<svg width="134" height="85" viewBox="0 0 134 85" fill="none" xmlns="http://www.w3.org/2000/svg">
<path d="M25.2573 28.929C25.2742 29.6382 25.1929 30.3716 25.0101 31.1292C24.8272 31.8869 24.5699 32.6203 24.2414 33.3295C23.8215 34.2255 23.3136 35.0351 22.7176 35.7547C22.1217 36.4742 21.4783 37.0935 20.7841 37.6194C20.1441 38.0864 19.4737 38.4427 18.7694 38.6849C18.065 38.9271 17.3844 39.0482 16.7275 39.0482H16.6191C15.7963 39.0309 15.0547 38.8371 14.3978 38.4739C13.7409 38.1106 13.1923 37.5813 12.7521 36.8894C12.4609 37.3945 12.2036 37.8477 11.9835 38.249C11.7634 38.6503 11.5805 38.9651 11.4349 39.1865C10.0804 41.4456 8.80384 43.1373 7.59497 44.2582C6.9008 44.874 6.20664 45.3376 5.50908 45.6455C4.81492 45.9534 4.09366 46.1091 3.34193 46.1091C2.26174 46.1091 1.44906 45.8185 0.900497 45.2407C0.389184 44.6803 0.131836 43.9607 0.131836 43.082C0.131836 42.3174 0.311304 41.4975 0.666853 40.6292C1.0224 39.7608 1.51339 38.934 2.13307 38.1487C2.8103 37.2907 3.54171 36.6265 4.32731 36.1594C5.1129 35.6924 5.89172 35.4571 6.657 35.4571C7.29699 35.4571 7.81846 35.6439 8.22141 36.0176C8.57019 36.3532 8.74288 36.8133 8.74288 37.391C8.74288 37.8753 8.62098 38.3908 8.37379 38.9305C8.1266 39.4737 7.79475 39.9753 7.37148 40.4423C6.93128 40.9301 6.44706 41.3107 5.91881 41.5909C5.29576 41.9092 4.69302 42.0683 4.10721 42.0683C3.9616 42.0683 3.84308 42.0234 3.75166 41.9265C3.66023 41.8331 3.61621 41.712 3.61621 41.5632C3.61621 41.4145 3.66023 41.2969 3.75166 41.2138C3.84308 41.1308 3.9616 41.0893 4.10721 41.0893C4.54741 41.0893 4.98762 40.9786 5.43798 40.7537C5.88495 40.5288 6.30145 40.2036 6.68409 39.7747C7.01255 39.401 7.27667 38.9997 7.47984 38.5707C7.67963 38.1417 7.78121 37.7508 7.78121 37.3945C7.78121 37.3011 7.77105 37.1973 7.75412 37.0866C7.73719 36.9759 7.6864 36.8721 7.60174 36.7787C7.52048 36.6853 7.40534 36.6057 7.25974 36.54C7.11413 36.4742 6.91096 36.4431 6.657 36.4431C6.03394 36.4431 5.39395 36.6437 4.73704 37.0451C4.08012 37.4464 3.45706 38.0207 2.87125 38.7679C2.32269 39.4598 1.88926 40.1863 1.56757 40.9544C1.24589 41.7189 1.08674 42.4316 1.08674 43.0854C1.08674 43.722 1.25266 44.2064 1.58112 44.5419C1.92651 44.9329 2.51232 45.13 3.33516 45.13C4.56096 45.13 5.75628 44.5869 6.92789 43.5041C8.07919 42.4593 9.30499 40.8506 10.6019 38.6849C10.7475 38.4427 10.9439 38.1106 11.1911 37.6885C11.4383 37.2699 11.7126 36.7891 12.0139 36.2459C12.3153 35.7028 12.6268 35.1215 12.9451 34.4954C13.2634 33.8692 13.5716 33.2292 13.8628 32.5753C14.303 31.6239 14.645 30.7971 14.8922 30.0948C15.1394 29.396 15.3121 28.7906 15.4137 28.2889C15.5152 27.7838 15.5593 27.3756 15.5491 27.0573C15.5389 26.739 15.5085 26.4865 15.4543 26.2997C15.3459 25.9641 15.1428 25.7392 14.8515 25.6285C14.4317 25.459 14.0152 25.4002 13.6054 25.4452C13.1923 25.4936 12.7995 25.6043 12.427 25.7807C12.0512 25.9572 11.7058 26.1959 11.3841 26.4969C11.0624 26.7944 10.7847 27.1127 10.5477 27.4483C10.1651 28.0468 9.92466 28.6245 9.83323 29.185C9.79599 29.3718 9.7926 29.5759 9.81969 29.8007C9.84678 30.0256 9.94159 30.2401 10.1075 30.4442C10.4732 30.894 10.9202 30.9286 11.4518 30.5549C11.8345 30.3128 12.1291 29.9668 12.3288 29.5171C12.5286 29.1261 12.5659 28.7975 12.4372 28.538C12.3085 28.2405 12.3898 28.026 12.6844 27.8946C12.7928 27.8392 12.9113 27.8288 13.0399 27.8669C13.1686 27.9049 13.26 27.9879 13.3142 28.1194C13.4429 28.3823 13.4937 28.666 13.4666 28.9739C13.4395 29.2818 13.3582 29.5863 13.2194 29.8838C13.084 30.1813 12.9079 30.4685 12.6979 30.7383C12.488 31.0081 12.2544 31.2296 11.997 31.3956C11.594 31.6585 11.1572 31.7866 10.6798 31.7866C10.2057 31.7693 9.76551 31.534 9.36256 31.0877C8.92235 30.5446 8.75981 29.863 8.86817 29.0431C8.97653 28.3131 9.27112 27.597 9.74519 26.8843C10.0364 26.4727 10.3852 26.0852 10.7881 25.7219C11.1911 25.3587 11.6279 25.0681 12.1054 24.8536C12.5794 24.6391 13.0806 24.5076 13.5987 24.4627C14.1201 24.4177 14.645 24.4938 15.1766 24.7014C15.7252 24.9262 16.118 25.3449 16.355 25.9607C16.4464 26.2789 16.4972 26.6387 16.5074 27.04C16.5175 27.4413 16.4668 27.8945 16.355 28.3996C16.8494 27.8565 17.3438 27.3894 17.8348 26.9985C18.512 26.4208 19.1892 25.9606 19.8631 25.6251C20.5403 25.2895 21.1702 25.075 21.756 24.9816C22.7989 24.8328 23.6116 25.075 24.1974 25.7116C24.9085 26.4173 25.2573 27.4898 25.2573 28.929ZM23.3644 32.9074C24.0213 31.5824 24.3328 30.2643 24.2956 28.9566C24.2956 28.3789 24.2313 27.8703 24.1026 27.431C23.9739 26.9916 23.7809 26.6526 23.5269 26.4069C23.1782 25.9952 22.6398 25.8465 21.9083 25.9572C21.414 26.0333 20.8654 26.2236 20.2627 26.5315C19.6599 26.8394 19.0572 27.2476 18.4511 27.7492C17.828 28.2543 17.2659 28.8079 16.7647 29.4167C16.2602 30.0256 15.8369 30.6449 15.4881 31.2814C15.4881 31.2987 15.4848 31.3091 15.4746 31.3091C15.4644 31.3091 15.4611 31.3195 15.4611 31.3368C15.3527 31.5997 15.241 31.8661 15.1326 32.1359C15.0242 32.4058 14.8956 32.6929 14.75 32.9905C14.2759 34.018 13.7917 34.9797 13.2973 35.8757C13.6258 36.5849 14.0795 37.1212 14.6551 37.4879C15.2308 37.8511 15.8945 38.0449 16.6428 38.0622C17.2286 38.0795 17.828 37.9826 18.4409 37.7681C19.0538 37.5536 19.6531 37.2319 20.239 36.8029C20.8789 36.3359 21.4648 35.7754 21.993 35.1215C22.5212 34.4677 22.9784 33.7308 23.3644 32.9074Z" fill="#767676"/>
<path d="M31.0147 40.695C31.1061 40.7884 31.1569 40.8991 31.167 41.0306C31.1772 41.1621 31.1332 41.2728 31.0451 41.3662C31.0282 41.4042 30.825 41.6291 30.4424 42.0373C30.0597 42.449 29.545 42.9057 28.9051 43.4108C27.1307 44.7739 25.5223 45.4554 24.0798 45.4554C23.3111 45.4554 22.7321 45.3171 22.3393 45.0368C21.9465 44.7566 21.6586 44.466 21.4758 44.1685C21.127 43.5527 21.0288 42.7812 21.1744 41.8575C21.32 40.9337 21.7128 39.9097 22.3528 38.7888C23.2468 37.1628 24.222 35.8377 25.2751 34.8102C26.3248 33.7827 27.3169 33.1842 28.2515 33.0182C28.966 32.9074 29.5586 33.0458 30.0327 33.4402C30.3984 33.7585 30.5981 34.1875 30.6354 34.7306C30.6523 35.2911 30.4796 35.9138 30.1139 36.5954C29.7482 37.2769 29.2166 37.9723 28.5224 38.6815C27.7538 39.4842 26.9411 40.0723 26.081 40.4459C25.3665 40.7642 24.6825 40.9234 24.0256 40.9234C23.6971 40.9234 23.4025 40.8957 23.1486 40.8403C22.8912 40.785 22.6813 40.7192 22.5187 40.6431C22.4273 40.8853 22.3494 41.1136 22.2851 41.3281C22.2207 41.5426 22.17 41.7537 22.1327 41.9578C22.0243 42.7051 22.0853 43.2759 22.3257 43.6668C22.6169 44.21 23.2027 44.4798 24.0798 44.4798C24.8281 44.4798 25.5731 44.2896 26.3146 43.9055C27.0562 43.5215 27.7233 43.0995 28.3159 42.6324C28.9084 42.1654 29.3927 41.7364 29.7685 41.342C30.1444 40.951 30.3306 40.7435 30.3306 40.7262C30.4221 40.6327 30.5304 40.5808 30.6591 40.5705C30.7878 40.5601 30.9063 40.6016 31.0147 40.695ZM23.1723 39.2662C23.135 39.3596 23.091 39.4426 23.0368 39.5188C22.9826 39.5949 22.9352 39.6779 22.898 39.7713C23.0436 39.8094 23.2129 39.8474 23.4059 39.882C23.5989 39.9201 23.8224 39.9374 24.0764 39.9374C25.3394 39.9201 26.5991 39.2731 27.8621 38.0034C28.4479 37.4049 28.8983 36.8237 29.22 36.2529C29.5383 35.682 29.6907 35.1942 29.6737 34.7825C29.6365 34.5404 29.5552 34.3432 29.4265 34.1944C29.1692 33.9695 28.8306 33.9038 28.4107 33.9972C28.045 34.0526 27.6522 34.2186 27.2323 34.4885C26.8124 34.7583 26.3824 35.1112 25.9422 35.5402C24.9534 36.5124 24.0324 37.7544 23.1723 39.2662Z" fill="#767676"/>
<path d="M37.651 33.5786C37.9625 33.6166 38.1182 33.7931 38.1182 34.1113C38.1013 34.2601 38.0404 34.3777 37.9388 34.4608C37.8372 34.5438 37.7255 34.5784 37.5968 34.5576C37.1938 34.5196 36.7198 34.5023 36.1712 34.5023C35.6226 34.5023 35.0741 34.5127 34.5255 34.53C34.1226 35.2011 33.7332 35.8792 33.3607 36.5608C32.9848 37.2423 32.6631 37.865 32.3888 38.4255C31.8572 39.4703 31.4712 40.3456 31.224 41.0444C30.9768 41.7433 30.8075 42.3106 30.7161 42.7396C30.6247 43.1686 30.5976 43.4973 30.6348 43.7187C30.6721 43.9436 30.7161 44.0923 30.7736 44.1685C30.7906 44.2065 30.838 44.2584 30.9091 44.3241C30.9836 44.3899 31.136 44.421 31.3764 44.421C31.6879 44.421 32.0672 44.3138 32.5141 44.0993C32.9611 43.8848 33.4521 43.5803 33.9803 43.1894C34.4205 42.8538 34.8607 42.4732 35.3111 42.0546C35.7581 41.6326 36.1475 41.2174 36.476 40.8092C36.5674 40.7157 36.6757 40.6604 36.8044 40.6396C36.9331 40.6223 37.0516 40.6569 37.16 40.7503C37.2514 40.8438 37.3056 40.9545 37.3259 41.0859C37.3428 41.2174 37.309 41.3385 37.2175 41.4492C36.8518 41.8782 36.4353 42.3141 35.9714 42.7535C35.5041 43.1928 35.0267 43.5976 34.5323 43.9713C33.2896 44.9227 32.2365 45.4001 31.3798 45.4001C30.9599 45.4001 30.6382 45.3205 30.4215 45.1614C30.2014 45.0022 30.0456 44.8396 29.9542 44.6701C29.6054 44.1096 29.5986 43.2136 29.9271 41.9785C30.2014 40.9337 30.7398 39.5983 31.5457 37.9723C31.803 37.4672 32.0841 36.9205 32.3956 36.3324C32.7071 35.7443 33.0458 35.1423 33.4115 34.5265C33.1541 34.5438 32.9205 34.5576 32.7105 34.568C32.5006 34.5784 32.3211 34.5818 32.1755 34.5818C31.9927 34.5991 31.8267 34.6095 31.6811 34.6095H31.654C31.3628 34.6095 31.1969 34.4504 31.1597 34.1321C31.1597 33.9833 31.2003 33.8623 31.2816 33.7688C31.3628 33.6754 31.478 33.627 31.6236 33.627C31.6608 33.627 31.9012 33.6166 32.3516 33.5993C32.7986 33.582 33.3437 33.5613 33.9837 33.544C34.3122 32.9835 34.6271 32.4507 34.9285 31.9456C35.2298 31.4405 35.494 30.9942 35.7242 30.5998C35.9511 30.2089 36.2118 29.7799 36.5064 29.3094C36.5809 29.1987 36.6791 29.1226 36.8078 29.0845C36.9365 29.0464 37.055 29.0672 37.1633 29.1399C37.4376 29.3267 37.4918 29.5619 37.3293 29.8422C37.0719 30.2331 36.845 30.5998 36.6453 30.9354C36.4455 31.271 36.2118 31.6585 35.9443 32.0978C35.6802 32.5372 35.3992 33.0077 35.1079 33.5128C35.582 33.5128 36.0459 33.5128 36.4929 33.5128C36.9331 33.5232 37.3225 33.5405 37.651 33.5786Z" fill="#767676"/>
<path d="M45.9864 40.7538C46.0779 40.8472 46.132 40.9579 46.1524 41.0893C46.1693 41.2208 46.1354 41.3419 46.044 41.4526C46.0068 41.4906 45.9627 41.5356 45.9086 41.591C45.8544 41.6463 45.807 41.7017 45.7731 41.7605C44.9333 42.8053 44.1647 43.6771 43.4705 44.3655C42.7763 45.0574 42.1364 45.4034 41.5505 45.4034C41.0392 45.4034 40.6634 45.1993 40.4263 44.7876C40.1893 44.3378 40.1893 43.6875 40.4263 42.826C40.6634 41.9854 41.1747 40.8645 41.9637 39.4634C42.1093 39.2004 42.1194 38.7784 41.9907 38.1903C41.8621 37.6021 41.6081 36.9068 41.2221 36.1042C40.7277 36.8134 40.1554 37.6091 39.5087 38.4843C38.8585 39.363 38.1068 40.3421 37.2467 41.4249C37.1553 41.5356 37.0469 41.6014 36.9182 41.6221C36.7896 41.6394 36.6812 41.6048 36.5898 41.5114C36.4814 41.418 36.4171 41.3073 36.3968 41.1758C36.3798 41.0444 36.4137 40.9233 36.5051 40.8126C38.3337 38.4774 39.7322 36.592 40.7006 35.1528C40.5347 34.7999 40.4907 34.3744 40.5652 33.8797C40.6363 33.385 40.7209 32.9802 40.8124 32.6619C40.8496 32.5685 40.9004 32.4232 40.9647 32.226C41.0291 32.0288 41.1171 31.8213 41.2255 31.5964C41.3338 31.3715 41.4591 31.1467 41.5946 30.9252C41.7334 30.7004 41.8925 30.5136 42.0754 30.3648C42.2752 30.1953 42.4851 30.1088 42.7052 30.0984C42.9253 30.0881 43.1251 30.1676 43.308 30.3371C43.6906 30.6727 43.7753 31.2262 43.5552 31.9908C43.3554 32.5893 42.9795 33.3469 42.431 34.2602C42.3395 34.409 42.2447 34.5647 42.1431 34.7238C42.0415 34.883 41.9366 35.0455 41.8282 35.2151C43.0168 37.4395 43.3351 39.024 42.7865 39.9788C42.3124 40.8195 41.9603 41.5114 41.73 42.0511C41.4998 42.5942 41.3508 43.0267 41.2763 43.3553C41.2018 43.684 41.1747 43.9158 41.195 44.0542C41.2119 44.196 41.2322 44.2825 41.2492 44.3205C41.2661 44.3378 41.2932 44.3621 41.3304 44.3897C41.3677 44.4174 41.4388 44.4313 41.5505 44.4313C41.642 44.4313 41.8079 44.369 42.0449 44.2479C42.282 44.1268 42.6206 43.8431 43.0608 43.3934C43.4096 43.0751 43.7448 42.7153 44.0766 42.314C44.4051 41.9127 44.7268 41.5252 45.0349 41.1516C45.0722 41.0963 45.1162 41.0409 45.1704 40.9821C45.2245 40.9267 45.272 40.8714 45.3058 40.8126C45.3972 40.7192 45.5056 40.6638 45.6343 40.6431C45.7596 40.6223 45.8781 40.6604 45.9864 40.7538ZM41.5438 33.8589C41.5607 33.8209 41.5742 33.8001 41.5844 33.7897C41.5946 33.7794 41.6081 33.7586 41.625 33.7205C41.9163 33.2362 42.1364 32.8349 42.282 32.5166C42.4276 32.1984 42.5393 31.9389 42.6104 31.7313C42.6849 31.5272 42.7188 31.3785 42.7188 31.2816C42.7188 31.1882 42.7086 31.1224 42.6917 31.0844C42.6172 31.1397 42.5122 31.2608 42.3768 31.4476C42.2379 31.6345 42.0991 31.9147 41.9501 32.2883C41.8418 32.5685 41.7537 32.8453 41.6894 33.1151C41.6318 33.3884 41.581 33.6341 41.5438 33.8589Z" fill="#767676"/>
<path d="M53.3387 40.8922C53.1016 41.3212 52.8003 41.7986 52.4346 42.321C52.0688 42.8434 51.649 43.345 51.1715 43.819C50.6974 44.2964 50.1692 44.6908 49.5935 45.0091C49.0179 45.3274 48.4016 45.4865 47.7413 45.4865C47.0844 45.4865 46.5765 45.355 46.2175 45.0956C45.862 44.8327 45.6012 44.5628 45.4353 44.2826C45.0324 43.5907 44.9308 42.6947 45.1339 41.5911C45.3337 40.5463 45.7638 39.4254 46.4241 38.2284C46.6814 37.7786 47.0268 37.2493 47.467 36.6301C47.9072 36.0143 48.4185 35.4158 49.0043 34.838C49.2244 34.6132 49.475 34.3848 49.7595 34.153C50.0439 33.9212 50.3351 33.7102 50.6365 33.5234C50.9379 33.3366 51.2494 33.1844 51.5677 33.0598C51.886 32.9387 52.2043 32.8765 52.5124 32.8765C52.658 32.8765 52.7766 32.9249 52.868 33.0183C52.9594 33.1117 53.0034 33.2328 53.0034 33.3816C53.0034 33.5303 52.9594 33.648 52.868 33.731C52.7766 33.814 52.658 33.8555 52.5124 33.8555C52.1467 33.8555 51.7167 34.0008 51.2223 34.2914C50.7279 34.582 50.2166 34.9972 49.685 35.5369C49.1364 36.08 48.6522 36.6404 48.2323 37.2182C47.8124 37.7959 47.484 38.2941 47.2435 38.7023C46.6408 39.7852 46.2548 40.8023 46.0922 41.7571C45.9263 42.5978 45.9906 43.2689 46.2852 43.774C46.5223 44.2618 47.0065 44.504 47.7379 44.504C48.1206 44.504 48.4863 44.4244 48.835 44.2653C49.1838 44.1061 49.5157 43.9055 49.8373 43.6633C50.1556 43.4212 50.4536 43.1513 50.7279 42.8503C51.0022 42.5528 51.2494 42.2622 51.4695 41.982C51.6151 41.7952 51.7438 41.6118 51.8521 41.4354C51.9605 41.2589 52.0722 41.086 52.1806 40.9164C51.7979 40.8784 51.4898 40.785 51.2629 40.6362C51.0327 40.4875 50.8566 40.3387 50.7279 40.1865C50.3453 39.7367 50.1523 39.159 50.1523 38.4498C50.1523 38.0208 50.2166 37.5814 50.3453 37.1317C50.4739 36.682 50.6636 36.2737 50.9209 35.9001C51.5237 35.0041 52.2111 34.5544 52.9763 34.5544C53.5622 34.5544 54.0091 34.8069 54.3207 35.312C54.6119 35.779 54.7372 36.3879 54.6898 37.1317C54.6423 37.879 54.4019 38.7196 53.9617 39.6537C53.8161 39.9512 53.6976 40.19 53.6062 40.3698C53.5215 40.5532 53.4301 40.7262 53.3387 40.8922ZM52.9831 35.5403C52.763 35.5403 52.5429 35.6233 52.3262 35.7929C52.1061 35.9624 51.9063 36.1838 51.7235 36.464C51.5406 36.7442 51.395 37.0556 51.2833 37.4016C51.1749 37.7475 51.1173 38.0969 51.1173 38.4532C51.1173 38.602 51.1343 38.7819 51.1715 38.986C51.2087 39.1901 51.3002 39.377 51.4458 39.5465C51.6828 39.8267 52.0655 39.9685 52.5971 39.9685H52.7359C52.8274 39.7817 52.9018 39.6364 52.956 39.5326C53.0102 39.4288 53.0474 39.37 53.0644 39.3493C53.3217 38.7715 53.4944 38.2768 53.5859 37.8651C53.6773 37.4534 53.7213 37.1075 53.7213 36.8273C53.7213 36.547 53.6976 36.3291 53.6536 36.17C53.6096 36.0108 53.5655 35.9036 53.5317 35.8482C53.3827 35.6441 53.2032 35.5403 52.9831 35.5403Z" fill="#767676"/>
<path d="M56.4102 46.9155C55.8786 46.9155 55.479 46.8047 55.2047 46.5799C54.9305 46.355 54.7205 46.1301 54.5749 45.9087C54.155 45.1614 54.1279 44.0682 54.4936 42.629C54.6596 41.9578 54.9135 41.2244 55.2623 40.4287C55.6111 39.6365 56.031 38.8096 56.5254 37.9482C56.7624 37.5365 57.0502 37.0383 57.3888 36.4502C57.7275 35.862 58.0796 35.2497 58.4453 34.6131C58.811 33.98 59.1767 33.3469 59.5425 32.7207C59.9082 32.0945 60.2332 31.5306 60.5143 31.0255C60.7987 30.5204 61.0324 30.1156 61.2152 29.8077C61.3981 29.4998 61.4895 29.3372 61.4895 29.3165C61.6554 29.0535 61.8722 28.9982 62.1464 29.1469C62.4038 29.3165 62.458 29.5379 62.3124 29.8181C62.3124 29.8354 62.2209 30.0015 62.0381 30.3094C61.8552 30.6173 61.6216 31.0186 61.3371 31.5133C61.0527 32.008 60.7276 32.5754 60.3653 33.2085C59.9996 33.8451 59.6339 34.4782 59.2682 35.1148C58.9025 35.7513 58.5503 36.3602 58.2117 36.9518C57.8731 37.5399 57.5852 38.0416 57.3482 38.4498C56.8741 39.2732 56.4712 40.0551 56.1427 40.8024C55.8143 41.5496 55.5671 42.2415 55.4012 42.8747C55.1099 44.0336 55.1167 44.8847 55.4282 45.4244C55.6111 45.76 55.9396 45.9295 56.417 45.9295C56.7624 45.9295 57.0875 45.8188 57.3888 45.5939C57.6902 45.369 57.9611 45.0992 58.1981 44.7809C58.4352 44.4626 58.6417 44.1374 58.8144 43.8018C58.9871 43.4662 59.1293 43.186 59.2411 42.9611L59.2953 42.9058C59.4239 42.6255 59.6339 42.5494 59.9251 42.6809C60.0538 42.7363 60.135 42.8297 60.1723 42.9611C60.2095 43.0926 60.1994 43.2137 60.1452 43.3244L60.1181 43.4074C59.9894 43.6704 59.8167 43.9956 59.5966 44.3865C59.3765 44.7774 59.1158 45.1615 58.8144 45.5351C58.5131 45.9087 58.1609 46.2305 57.7579 46.5003C57.3516 46.7805 56.9046 46.9155 56.4102 46.9155Z" fill="#767676"/>
<path d="M72.4552 33.6654C71.7983 34.731 71.2159 35.7792 70.7147 36.8171C70.2102 37.855 69.814 38.8479 69.5228 39.8028C69.2315 40.7542 69.0656 41.5948 69.0284 42.3248C68.9911 43.0548 69.0927 43.6326 69.3297 44.0616C69.621 44.6393 70.1898 44.9299 71.0296 44.9299C72.2554 44.9299 73.6912 43.9197 75.3368 41.9028C76.0513 41.0067 76.7082 40.083 77.311 39.1281C77.9137 38.1767 78.425 37.343 78.8483 36.6337C78.9567 36.4469 79.0583 36.2739 79.1497 36.1148C79.2411 35.9556 79.3325 35.8104 79.424 35.6789C79.424 35.6616 79.4273 35.6512 79.4375 35.6512C79.4477 35.6512 79.4511 35.6408 79.4511 35.6235C79.7998 34.987 80.1317 34.3781 80.4534 33.7865C80.7717 33.1983 81.0798 32.6621 81.371 32.1743C81.4252 32.0428 81.5166 31.9598 81.6453 31.9217C81.774 31.8837 81.9027 31.9044 82.0279 31.9771C82.1363 32.0532 82.2108 32.1535 82.248 32.285C82.2853 32.4164 82.265 32.5375 82.1939 32.6483C81.7909 33.3402 81.3676 34.1047 80.9173 34.9454C80.4703 35.7861 80.0132 36.6441 79.5459 37.5229C79.0786 38.4016 78.6181 39.2803 78.1609 40.1556C77.7038 41.0344 77.2771 41.8543 76.8843 42.6224C76.4915 43.3869 76.1427 44.0754 75.8414 44.6808C75.54 45.2897 75.3064 45.7499 75.1404 46.0681C75.3402 45.9574 75.5468 45.8398 75.7567 45.7187C75.9667 45.5976 76.1834 45.4627 76.4001 45.314C77.0943 44.8642 77.8629 44.2864 78.7027 43.5772C79.5425 42.868 80.3856 41.9443 81.2254 40.8026C81.3168 40.6919 81.4252 40.6262 81.5539 40.6054C81.6825 40.5881 81.8011 40.6158 81.9094 40.6884C82.0009 40.7818 82.0618 40.8925 82.0889 41.024C82.116 41.1555 82.0855 41.2766 81.9941 41.3873C81.0967 42.5843 80.2062 43.5495 79.319 44.2864C78.4318 45.0233 77.6327 45.6357 76.9182 46.1235C76.4441 46.4418 75.9904 46.7151 75.5603 46.9504C75.1303 47.1856 74.7239 47.3759 74.3413 47.5247C73.7555 48.4761 73.1527 49.251 72.5297 49.8495C71.6527 50.6902 70.8738 51.1192 70.2 51.14H70.1187C69.5871 51.14 69.2045 50.9359 68.9674 50.5242C68.7846 50.2439 68.7473 49.9083 68.8591 49.5139C68.9674 49.1403 69.2011 48.784 69.56 48.4484C69.9156 48.1128 70.349 47.8499 70.8637 47.663C70.972 47.625 71.1007 47.5835 71.2463 47.5385C71.3919 47.4901 71.5477 47.4416 71.7136 47.3828C71.971 47.3067 72.2622 47.2202 72.5906 47.1164C72.9191 47.0126 73.2848 46.8881 73.6878 46.7393C73.7419 46.6459 73.8029 46.5421 73.8672 46.4314C73.9316 46.3207 73.9891 46.2065 74.0467 46.0958C74.084 46.0578 74.2397 45.7637 74.514 45.2136C74.7883 44.6636 75.1371 43.9682 75.5569 43.1275C74.9339 43.8367 74.3142 44.4248 73.6911 44.8919C72.7599 45.563 71.8728 45.9021 71.0296 45.9021C70.2779 45.9021 69.709 45.7533 69.3162 45.4523C68.9234 45.1548 68.6457 44.8469 68.4798 44.5286C67.8771 43.4077 67.9143 41.7367 68.5882 39.5121C68.8997 38.5227 69.3162 37.4814 69.8343 36.3881C70.3558 35.2949 70.9619 34.2085 71.6594 33.1222C72.0996 32.4303 72.6482 31.6934 73.3051 30.908C73.1595 30.7212 73.0308 30.5344 72.9225 30.3476C72.4484 29.4135 72.3367 28.2753 72.594 26.9295C72.7024 26.331 72.8852 25.7255 73.1426 25.1097C73.3999 24.4939 73.7081 23.9127 74.0738 23.373C74.2736 23.1101 74.5038 23.0651 74.7578 23.2311C74.8662 23.3245 74.9373 23.4353 74.9644 23.5667C74.9914 23.6982 74.961 23.8193 74.8695 23.93C74.5411 24.4143 74.2566 24.9333 74.0196 25.4868C73.7826 26.0369 73.6167 26.5835 73.5252 27.1267C73.4338 27.6698 73.4067 28.1715 73.444 28.6385C73.4812 29.1056 73.5997 29.5242 73.7995 29.8978C73.8164 29.9359 73.8401 29.9809 73.8672 30.0397C73.8943 30.095 73.9282 30.1435 73.962 30.1815C74.8018 29.2682 75.689 28.4171 76.6236 27.6318C76.9148 27.3896 77.2737 27.1128 77.6936 26.8049C78.1135 26.497 78.5571 26.203 79.0244 25.9227C79.4917 25.6425 79.9624 25.4107 80.4364 25.2239C80.9105 25.0371 81.3609 24.9333 81.7808 24.916C82.2006 24.8779 82.5291 24.9333 82.7695 25.0855C83.0065 25.2342 83.1792 25.383 83.291 25.5353C83.4908 25.7982 83.5822 26.1234 83.5653 26.5143C83.5483 26.9053 83.4298 27.3446 83.2097 27.8324C82.9524 28.3548 82.607 28.8738 82.1668 29.3893C81.7266 29.9048 81.2254 30.3649 80.6599 30.7766C80.1859 31.1122 79.5899 31.4443 78.8788 31.7695C78.1643 32.0982 77.3415 32.2608 76.4103 32.2608C75.6043 32.2608 74.8831 32.0843 74.2431 31.728C74.2058 31.7107 74.1686 31.6899 74.1347 31.6726C74.0975 31.6553 74.0602 31.6277 74.0264 31.5896C73.4338 32.2642 72.9123 32.9527 72.4552 33.6654ZM71.8795 49.1576C72.208 48.822 72.5094 48.476 72.7837 48.1197C72.638 48.1578 72.4958 48.1958 72.357 48.2304C72.2182 48.2685 72.0861 48.3065 71.9608 48.3411C71.8152 48.3792 71.673 48.4172 71.5341 48.4518C71.3953 48.4899 71.2836 48.528 71.1921 48.5626C70.7892 48.7321 70.4641 48.9327 70.2169 49.1645C69.9697 49.3963 69.8207 49.6074 69.7632 49.7942C69.7462 49.9049 69.7462 49.9706 69.7632 49.9914C69.8004 50.0294 69.8444 50.0709 69.8986 50.1159C69.9528 50.1609 70.0375 50.1747 70.1458 50.1574C70.6097 50.1298 71.1854 49.7942 71.8795 49.1576ZM77.2263 28.424C76.3121 29.154 75.4621 29.9636 74.6765 30.8631C75.1167 31.1433 75.6924 31.2817 76.4035 31.2817C77.0977 31.2817 77.7613 31.1571 78.3912 30.9046C79.021 30.652 79.5967 30.3337 80.1181 29.9532C80.6396 29.5692 81.0866 29.1506 81.4625 28.6939C81.8383 28.2372 82.1261 27.8013 82.3259 27.3896C82.4918 27.0713 82.5833 26.8049 82.6002 26.5904C82.6171 26.3759 82.6002 26.2306 82.546 26.1545C82.5088 26.1165 82.4444 26.0611 82.353 25.985C82.2616 25.9089 82.0889 25.8812 81.8315 25.902C81.2999 25.9193 80.6328 26.1511 79.8303 26.587C79.0278 27.0263 78.1609 27.6387 77.2263 28.424Z" fill="#767676"/>
<path d="M93.0227 40.754C93.1141 40.8474 93.1683 40.9581 93.1886 41.0896C93.2055 41.221 93.1717 41.3421 93.0802 41.4528C93.043 41.4909 93.0023 41.5359 92.9583 41.5912C92.9109 41.6466 92.8635 41.7019 92.8059 41.7607C91.9662 42.8055 91.1975 43.6774 90.5033 44.3658C89.8092 45.0578 89.1692 45.4037 88.5834 45.4037C88.1635 45.4037 87.8485 45.3242 87.6386 45.165C87.4287 45.0059 87.2763 44.8433 87.1849 44.6738C86.9851 44.3001 86.9106 43.8434 86.9648 43.3003C85.7017 44.7948 84.4861 45.5421 83.3178 45.5421C82.6778 45.5421 82.1936 45.4106 81.8651 45.1512C81.5367 44.8882 81.2996 44.6288 81.1506 44.3658C80.768 43.6566 80.7037 42.7675 80.9576 41.7054C81.066 41.183 81.2421 40.6467 81.4791 40.0932C81.7161 39.5431 82.0107 38.9861 82.3561 38.4257C83.3449 36.855 84.459 35.613 85.7017 34.6996C86.2503 34.3087 86.7819 34.0043 87.2932 33.7898C87.8045 33.5753 88.2718 33.468 88.6917 33.468C89.1658 33.468 89.5383 33.551 89.8024 33.7206C90.0665 33.8901 90.2629 34.0665 90.3916 34.2533C90.5914 34.5163 90.72 34.8242 90.7742 35.1771C90.9198 34.9522 91.0383 34.755 91.1298 34.5889C91.2212 34.4194 91.3126 34.2707 91.4041 34.1392C91.4785 33.9904 91.5598 33.859 91.6512 33.7482C91.7257 33.6375 91.8239 33.5649 91.9526 33.5372C92.0813 33.5095 92.1998 33.5337 92.3082 33.6064C92.4165 33.6825 92.491 33.7828 92.5283 33.9143C92.5655 34.0458 92.5384 34.1669 92.447 34.2776C92.447 34.2949 92.21 34.6824 91.7325 35.44C91.2584 36.1977 90.6625 37.2009 89.9514 38.4533C89.4773 39.294 89.0913 40.0378 88.8001 40.6813C88.5089 41.3248 88.2921 41.8853 88.1567 42.3627C88.0179 42.8401 87.94 43.2276 87.923 43.5252C87.9061 43.8227 87.94 44.0406 88.0314 44.1686C88.0483 44.2067 88.089 44.2586 88.1533 44.3243C88.2176 44.3901 88.3599 44.4212 88.58 44.4212C88.6714 44.4212 88.8373 44.3589 89.0744 44.2378C89.3114 44.1168 89.6602 43.8331 90.1173 43.3833C90.4458 43.065 90.7742 42.7052 91.1061 42.3039C91.4345 41.9026 91.7562 41.5151 92.0644 41.1415C92.1185 41.0861 92.1693 41.0308 92.2167 40.972C92.2608 40.9166 92.3048 40.8612 92.3386 40.8024C92.4301 40.709 92.5384 40.6537 92.6671 40.6329C92.7958 40.6225 92.9143 40.6606 93.0227 40.754ZM86.4162 42.4631C86.8733 41.9026 87.239 41.394 87.5133 40.9373C87.7876 40.4807 87.9332 40.242 87.9535 40.2212C87.9535 40.2039 87.9569 40.1935 87.9671 40.1935C87.9772 40.1935 87.9806 40.1832 87.9806 40.1659C88.2549 39.5327 88.6375 38.7924 89.1319 37.9517C89.2233 37.7822 89.3182 37.6161 89.4197 37.4466C89.5213 37.2771 89.6161 37.1214 89.7076 36.9692V36.9138C89.7245 36.8204 89.7516 36.6855 89.7888 36.509C89.8261 36.3326 89.8464 36.1458 89.8566 35.9486C89.8667 35.7514 89.8566 35.5576 89.8295 35.3604C89.8024 35.1632 89.7347 34.9902 89.6229 34.8415C89.4231 34.5785 89.1116 34.4505 88.6917 34.4505C88.4344 34.4505 88.0957 34.5301 87.6759 34.6893C87.256 34.8484 86.7988 35.1079 86.3044 35.4746C85.8101 35.8379 85.2886 36.3049 84.74 36.8757C84.1915 37.4466 83.6598 38.142 83.1485 38.9619C82.5085 39.9894 82.0886 40.9685 81.8855 41.9026C81.7195 42.7813 81.7568 43.4421 81.9938 43.8919C82.2139 44.3416 82.6507 44.5631 83.311 44.5631C84.2287 44.5631 85.2615 43.8642 86.4162 42.4631Z" fill="#767676"/>
<path d="M101.826 40.7538C101.917 40.8472 101.971 40.9579 101.992 41.0893C102.009 41.2208 101.975 41.3419 101.883 41.4526C101.846 41.4906 101.802 41.5356 101.744 41.591C101.69 41.6463 101.643 41.7017 101.609 41.7605C100.769 42.8053 100.001 43.6771 99.3065 44.3655C98.6123 45.0574 97.9723 45.4034 97.3865 45.4034C96.8752 45.4034 96.4993 45.1993 96.2623 44.7876C96.0252 44.3378 96.0252 43.6875 96.2623 42.826C96.4993 41.9854 97.0106 40.8645 97.7996 39.4634C97.9452 39.2004 97.9554 38.7784 97.8267 38.1903C97.698 37.6021 97.444 36.9068 97.058 36.1042C96.5636 36.8134 95.9914 37.6091 95.3446 38.4843C94.6945 39.363 93.9427 40.3421 93.0827 41.4249C92.9912 41.5356 92.8829 41.6014 92.7542 41.6221C92.6255 41.6394 92.5172 41.6048 92.4257 41.5114C92.3174 41.418 92.253 41.3073 92.2327 41.1758C92.2158 41.0444 92.2497 40.9233 92.3411 40.8126C94.1696 38.4774 95.5681 36.592 96.5365 35.1528C96.3706 34.7999 96.3266 34.3744 96.3977 33.8797C96.4722 33.385 96.5535 32.9802 96.6449 32.6619C96.6822 32.5685 96.733 32.4232 96.7973 32.226C96.8616 32.0288 96.9497 31.8213 97.058 31.5964C97.1664 31.3715 97.2917 31.1467 97.4271 30.9252C97.566 30.7004 97.7251 30.5136 97.908 30.3648C98.1077 30.1953 98.3211 30.1088 98.5378 30.0984C98.7579 30.0881 98.9577 30.1676 99.1405 30.3371C99.5232 30.6727 99.6078 31.2262 99.3877 31.9908C99.1879 32.5893 98.8121 33.3469 98.2635 34.2602C98.1721 34.409 98.0773 34.5647 97.9757 34.7238C97.8741 34.883 97.7691 35.0455 97.6608 35.2151C98.8493 37.4395 99.1676 39.024 98.6191 39.9788C98.145 40.8195 97.7928 41.5114 97.5626 42.0511C97.3323 42.5942 97.1833 43.0267 97.1088 43.3553C97.0343 43.684 97.0072 43.9158 97.0275 44.0542C97.0445 44.196 97.0648 44.2825 97.0817 44.3205C97.0987 44.3378 97.1257 44.3621 97.163 44.3897C97.2002 44.4174 97.2714 44.4313 97.3831 44.4313C97.4745 44.4313 97.6405 44.369 97.8775 44.2479C98.1145 44.1268 98.4531 43.8431 98.8933 43.3934C99.2387 43.0751 99.5773 42.7153 99.9092 42.314C100.238 41.9127 100.559 41.5252 100.867 41.1516C100.905 41.0963 100.949 41.0409 101.006 40.9821C101.06 40.9267 101.108 40.8714 101.145 40.8126C101.237 40.7192 101.345 40.6638 101.474 40.6431C101.599 40.6223 101.717 40.6604 101.826 40.7538ZM97.3831 33.8589C97.4 33.8209 97.4136 33.8001 97.4237 33.7897C97.4339 33.7794 97.4474 33.7586 97.4644 33.7205C97.7556 33.2362 97.9757 32.8349 98.1213 32.5166C98.2669 32.1984 98.3786 31.9389 98.4498 31.7313C98.5242 31.5272 98.5581 31.3785 98.5581 31.2816C98.5581 31.1882 98.5479 31.1224 98.531 31.0844C98.4565 31.1397 98.3516 31.2608 98.2161 31.4476C98.0773 31.6345 97.9384 31.9147 97.7894 32.2883C97.6811 32.5685 97.593 32.8453 97.5287 33.1151C97.4711 33.3884 97.4203 33.6341 97.3831 33.8589Z" fill="#767676"/>
<path d="M112.933 40.754C113.024 40.8474 113.078 40.9581 113.099 41.0896C113.116 41.221 113.082 41.3421 112.99 41.4528C112.953 41.4909 112.912 41.5359 112.868 41.5912C112.824 41.6466 112.774 41.7019 112.716 41.7607C111.876 42.8055 111.108 43.6774 110.413 44.3658C109.719 45.0578 109.079 45.4037 108.493 45.4037C108.074 45.4037 107.759 45.3242 107.549 45.165C107.339 45.0059 107.186 44.8433 107.095 44.6738C106.895 44.3001 106.821 43.8434 106.875 43.3003C105.612 44.7948 104.396 45.5421 103.228 45.5421C102.588 45.5421 102.104 45.4106 101.775 45.1512C101.447 44.8882 101.21 44.6288 101.061 44.3658C100.678 43.6566 100.614 42.7675 100.868 41.7054C100.976 41.183 101.152 40.6467 101.389 40.0932C101.626 39.5431 101.921 38.9861 102.266 38.4257C103.255 36.855 104.369 35.613 105.612 34.6996C106.16 34.3087 106.692 34.0043 107.203 33.7898C107.715 33.5753 108.182 33.468 108.602 33.468C109.076 33.468 109.448 33.551 109.712 33.7206C109.977 33.8901 110.173 34.0665 110.302 34.2533C110.501 34.5163 110.63 34.8242 110.684 35.1771C110.83 34.9522 110.948 34.755 111.04 34.5889C111.131 34.4194 111.223 34.2707 111.314 34.1392C111.389 33.9904 111.47 33.859 111.561 33.7482C111.636 33.6375 111.734 33.5649 111.863 33.5372C111.991 33.5095 112.11 33.5337 112.218 33.6064C112.327 33.6825 112.401 33.7828 112.438 33.9143C112.476 34.0458 112.449 34.1669 112.357 34.2776C112.357 34.2949 112.12 34.6824 111.643 35.44C111.169 36.1977 110.573 37.2009 109.861 38.4533C109.387 39.294 109.001 40.0378 108.71 40.6813C108.419 41.3248 108.202 41.8853 108.067 42.3627C107.931 42.8401 107.85 43.2276 107.833 43.5252C107.816 43.8227 107.85 44.0406 107.942 44.1686C107.958 44.2067 107.999 44.2586 108.063 44.3243C108.128 44.3901 108.27 44.4212 108.49 44.4212C108.582 44.4212 108.747 44.3589 108.984 44.2378C109.221 44.1168 109.57 43.8331 110.027 43.3833C110.356 43.065 110.684 42.7052 111.016 42.3039C111.345 41.9026 111.666 41.5151 111.974 41.1415C112.029 41.0861 112.079 41.0308 112.127 40.972C112.171 40.9166 112.215 40.8612 112.249 40.8024C112.34 40.709 112.449 40.6537 112.577 40.6329C112.706 40.6225 112.824 40.6606 112.933 40.754ZM106.323 42.4631C106.78 41.9026 107.146 41.394 107.42 40.9373C107.694 40.4807 107.84 40.242 107.86 40.2212C107.86 40.2039 107.864 40.1935 107.874 40.1935C107.884 40.1935 107.887 40.1832 107.887 40.1659C108.162 39.5327 108.544 38.7924 109.039 37.9517C109.13 37.7822 109.225 37.6161 109.326 37.4466C109.428 37.2771 109.523 37.1214 109.614 36.9692V36.9138C109.631 36.8204 109.658 36.6855 109.696 36.509C109.733 36.3326 109.753 36.1458 109.763 35.9486C109.773 35.7514 109.763 35.5576 109.736 35.3604C109.709 35.1632 109.641 34.9902 109.53 34.8415C109.33 34.5785 109.018 34.4505 108.598 34.4505C108.341 34.4505 108.002 34.5301 107.583 34.6893C107.163 34.8484 106.706 35.1079 106.211 35.4746C105.717 35.8379 105.195 36.3049 104.647 36.8757C104.098 37.4466 103.567 38.142 103.055 38.9619C102.415 39.9894 101.995 40.9685 101.792 41.9026C101.626 42.7813 101.664 43.4421 101.901 43.8919C102.121 44.3416 102.557 44.5631 103.218 44.5631C104.139 44.5631 105.172 43.8642 106.323 42.4631Z" fill="#767676"/>
<path d="M124.285 40.7538C124.393 40.8472 124.458 40.9579 124.478 41.0894C124.495 41.2209 124.461 41.3419 124.37 41.4526C124.332 41.4907 124.302 41.5288 124.275 41.5634C124.248 41.6014 124.214 41.6395 124.18 41.6741C123.997 41.8989 123.763 42.1792 123.479 42.5147C123.195 42.8503 122.866 43.1998 122.49 43.5665C122.114 43.9297 121.708 44.2895 121.271 44.6459C120.831 45.0022 120.357 45.2997 119.846 45.5419C119.497 45.7114 119.141 45.8602 118.776 45.9917C118.41 46.1231 118.044 46.2546 117.678 46.3826C117.184 47.2786 116.646 48.0536 116.06 48.7074C115.22 49.6415 114.431 50.1536 113.7 50.247C113.662 50.247 113.625 50.2504 113.591 50.2608C113.554 50.2712 113.517 50.2746 113.483 50.2746C113.009 50.2746 112.633 50.0878 112.359 49.7142C112.139 49.472 112.074 49.126 112.166 48.6763C112.257 48.2646 112.477 47.8771 112.823 47.5139C113.171 47.1506 113.608 46.8358 114.14 46.5763C114.485 46.4276 114.861 46.2857 115.264 46.1542C115.667 46.0228 116.077 45.8844 116.497 45.7356C116.588 45.6976 116.676 45.6699 116.757 45.6526C116.839 45.6353 116.927 45.6042 117.018 45.5696C117.093 45.4208 117.16 45.2721 117.225 45.1198C117.289 44.9711 117.357 44.8223 117.431 44.6701C117.448 44.632 117.496 44.5144 117.567 44.3207C117.641 44.1235 117.75 43.8571 117.895 43.5215C116.578 44.8673 115.389 45.5385 114.33 45.5385C113.69 45.5385 113.205 45.407 112.877 45.1475C112.548 44.8846 112.311 44.6251 112.162 44.3622C111.78 43.653 111.715 42.7638 111.969 41.7017C112.078 41.1793 112.254 40.6431 112.491 40.0896C112.728 39.5395 113.022 38.9825 113.368 38.422C114.357 36.8514 115.471 35.6094 116.713 34.6961C117.262 34.3051 117.79 34.0007 118.305 33.7862C118.816 33.5717 119.284 33.4644 119.703 33.4644C120.177 33.4644 120.55 33.5475 120.814 33.717C121.078 33.8865 121.275 34.063 121.403 34.2498C121.512 34.3812 121.613 34.5577 121.705 34.7825C121.796 34.5784 121.888 34.3812 121.979 34.1944C122.07 34.0076 122.162 33.8104 122.253 33.6063C122.399 33.326 122.619 33.2499 122.91 33.3814C123.019 33.4368 123.096 33.5302 123.144 33.6616C123.188 33.7931 123.184 33.9142 123.13 34.0249C122.873 34.568 122.622 35.1043 122.375 35.6371C122.128 36.1698 121.877 36.7061 121.62 37.2492L121.593 37.3046C121.136 38.3321 120.706 39.3077 120.303 40.2314C119.9 41.1551 119.554 41.9785 119.26 42.6981C118.969 43.4177 118.735 43.9885 118.559 44.4072C118.386 44.8258 118.298 45.0472 118.298 45.0645C118.298 45.1025 118.288 45.1198 118.271 45.1198C118.471 45.0437 118.664 44.9711 118.847 44.8949C119.03 44.8188 119.212 44.7358 119.395 44.6424C119.852 44.4175 120.286 44.1477 120.699 43.8294C121.109 43.5111 121.488 43.179 121.837 42.833C122.182 42.4871 122.49 42.155 122.754 41.8401C123.019 41.5219 123.242 41.252 123.425 41.0271C123.462 40.9891 123.493 40.951 123.52 40.9164C123.547 40.8784 123.577 40.8438 123.614 40.8057C123.706 40.7123 123.814 40.6569 123.943 40.6362C124.085 40.6223 124.194 40.6604 124.285 40.7538ZM117.621 42.404C118.078 41.8816 118.461 41.4008 118.772 40.9614C119.084 40.522 119.256 40.2556 119.294 40.1622C119.514 39.6571 119.747 39.1312 119.995 38.5777C120.242 38.0276 120.492 37.4603 120.75 36.8825C120.767 36.7718 120.794 36.63 120.831 36.4639C120.868 36.2944 120.885 36.1145 120.885 35.9173C120.885 35.7201 120.872 35.5264 120.845 35.3292C120.817 35.132 120.75 34.9694 120.638 34.8379C120.438 34.575 120.127 34.4469 119.707 34.4469C119.449 34.4469 119.111 34.5265 118.691 34.6857C118.271 34.8448 117.814 35.1043 117.32 35.471C116.825 35.8343 116.304 36.3013 115.755 36.8721C115.207 37.443 114.675 38.1384 114.164 38.9583C113.524 39.9858 113.104 40.9649 112.901 41.8989C112.735 42.7777 112.772 43.4385 113.009 43.8882C113.229 44.338 113.666 44.5594 114.326 44.5594C114.783 44.5594 115.284 44.376 115.833 44.0128C116.388 43.653 116.981 43.1167 117.621 42.404ZM115.345 48.0363C115.511 47.8668 115.67 47.6799 115.826 47.4758C115.982 47.2717 116.131 47.0538 116.28 46.8323C115.623 47.0365 115.047 47.2544 114.553 47.4758C114.113 47.6799 113.771 47.9186 113.524 48.192C113.276 48.4618 113.134 48.7005 113.097 48.9081C113.08 49.0188 113.08 49.0845 113.097 49.1053C113.134 49.1607 113.188 49.2125 113.263 49.261C113.337 49.3059 113.446 49.3129 113.591 49.2748C114.103 49.216 114.688 48.8043 115.345 48.0363Z" fill="#767676"/>
<path d="M133.228 40.695C133.319 40.7884 133.37 40.8991 133.38 41.0306C133.39 41.1621 133.35 41.2728 133.258 41.3662C133.241 41.4042 133.038 41.6291 132.655 42.0373C132.273 42.449 131.758 42.9057 131.118 43.4108C129.344 44.7739 127.735 45.4554 126.293 45.4554C125.524 45.4554 124.945 45.3171 124.552 45.0368C124.159 44.7566 123.872 44.466 123.689 44.1685C123.34 43.5527 123.242 42.7812 123.387 41.8575C123.533 40.9337 123.926 39.9097 124.566 38.7888C125.46 37.1628 126.435 35.8377 127.488 34.8102C128.538 33.7827 129.53 33.1842 130.464 33.0182C131.179 32.9074 131.772 33.0458 132.246 33.4402C132.611 33.7585 132.811 34.1875 132.848 34.7306C132.865 35.2911 132.693 35.9138 132.327 36.5954C131.961 37.2769 131.43 37.9723 130.735 38.6815C129.967 39.4842 129.154 40.0723 128.294 40.4459C127.579 40.7642 126.895 40.9234 126.238 40.9234C125.91 40.9234 125.615 40.8957 125.361 40.8403C125.104 40.785 124.894 40.7192 124.732 40.6431C124.64 40.8853 124.562 41.1136 124.498 41.3281C124.434 41.5426 124.383 41.7537 124.346 41.9578C124.237 42.7051 124.298 43.2759 124.539 43.6668C124.83 44.21 125.416 44.4798 126.293 44.4798C127.041 44.4798 127.786 44.2896 128.528 43.9055C129.269 43.5215 129.936 43.0995 130.529 42.6324C131.121 42.1654 131.606 41.7364 131.981 41.342C132.357 40.951 132.544 40.7435 132.544 40.7262C132.635 40.6327 132.743 40.5808 132.872 40.5705C132.997 40.5601 133.116 40.6016 133.228 40.695ZM125.382 39.2662C125.345 39.3596 125.301 39.4426 125.246 39.5188C125.192 39.5949 125.145 39.6779 125.107 39.7713C125.253 39.8094 125.422 39.8474 125.615 39.882C125.808 39.9201 126.032 39.9374 126.286 39.9374C127.549 39.9201 128.809 39.2731 130.072 38.0034C130.657 37.4049 131.108 36.8237 131.43 36.2529C131.748 35.682 131.9 35.1942 131.883 34.7825C131.846 34.5404 131.765 34.3432 131.636 34.1944C131.379 33.9695 131.04 33.9038 130.62 33.9972C130.255 34.0526 129.862 34.2186 129.442 34.4885C129.022 34.7583 128.592 35.1112 128.152 35.5402C127.166 36.5124 126.242 37.7544 125.382 39.2662Z" fill="#767676"/>
<path d="M43.323 65.2164C43.262 65.2164 43.2011 65.1888 43.1605 65.1334C43.0927 65.04 43.1097 64.9085 43.2011 64.8393C44.5352 63.8154 45.927 62.6807 47.4575 61.3696C47.5456 61.297 47.6742 61.3074 47.7453 61.3973C47.8165 61.4872 47.8063 61.6187 47.7183 61.6913C46.1809 63.0059 44.7824 64.144 43.4449 65.1749C43.4076 65.2026 43.3636 65.2164 43.323 65.2164Z" fill="#767676"/>
<path d="M39.7503 68.1229C39.6893 68.1229 39.6318 68.0952 39.5911 68.0433C39.52 67.9534 39.537 67.8219 39.625 67.7493L40.5257 67.0159C40.6138 66.9433 40.7424 66.9571 40.8135 67.0505C40.8847 67.1404 40.8711 67.2719 40.7797 67.3446L39.879 68.0779C39.8383 68.1091 39.7943 68.1229 39.7503 68.1229Z" fill="#767676"/>
<path d="M39.6379 62.1793C39.5431 62.1793 39.4585 62.1101 39.4382 62.0132C39.4144 61.899 39.4856 61.7883 39.5973 61.7676C40.7825 61.5185 42.0422 61.2106 43.4508 60.83C43.5592 60.7989 43.6709 60.868 43.7014 60.9788C43.7319 61.0895 43.6642 61.2037 43.5558 61.2348C42.1437 61.6154 40.8739 61.9267 39.682 62.1758C39.665 62.1793 39.6515 62.1793 39.6379 62.1793Z" fill="#767676"/>
<path d="M36.404 62.9647C36.3126 62.9647 36.2279 62.899 36.2042 62.8056C36.1771 62.6949 36.2448 62.5808 36.3566 62.5531L37.1726 62.3559C37.281 62.3317 37.3927 62.3975 37.4198 62.5116C37.4469 62.6223 37.3792 62.7364 37.2675 62.7641L36.4514 62.9612C36.4345 62.9647 36.4175 62.9647 36.404 62.9647Z" fill="#767676"/>
<path d="M105.323 62.9057C105.309 62.9057 105.296 62.9057 105.282 62.9023C103.853 62.6185 102.583 62.3314 101.398 62.0269C101.29 61.9992 101.222 61.885 101.249 61.7743C101.276 61.6636 101.388 61.5944 101.496 61.6221C102.675 61.9266 103.941 62.2103 105.36 62.494C105.472 62.5147 105.543 62.6255 105.522 62.7397C105.506 62.8365 105.417 62.9057 105.323 62.9057Z" fill="#767676"/>
<path d="M99.0206 61.4839C99.0071 61.4839 98.9901 61.4839 98.9766 61.4805L98.1605 61.2971C98.0487 61.2728 97.981 61.1621 98.0047 61.0479C98.0284 60.9371 98.1368 60.8645 98.2485 60.8887L99.0646 61.0721C99.1764 61.0963 99.2441 61.2071 99.2204 61.3213C99.2001 61.4182 99.1154 61.4839 99.0206 61.4839Z" fill="#767676"/>
<path d="M58.5928 63.8259C58.559 63.8259 58.5217 63.8155 58.4913 63.7982C58.3931 63.7394 58.3592 63.6114 58.4168 63.511L59.1922 62.1479C59.2497 62.0476 59.375 62.013 59.4732 62.0718C59.5714 62.1306 59.6053 62.2586 59.5477 62.359L58.7723 63.7221C58.7317 63.7878 58.6606 63.8259 58.5928 63.8259Z" fill="#767676"/>
<path d="M49.5798 77.7093C49.5426 77.7093 49.5019 77.699 49.4681 77.6748C49.3733 77.6125 49.3496 77.481 49.4105 77.3841L57.1987 65.376C57.263 65.2791 57.3883 65.2549 57.4831 65.3171C57.5779 65.3794 57.6016 65.5109 57.5407 65.6078L49.7525 77.6159C49.7119 77.6782 49.6476 77.7093 49.5798 77.7093Z" fill="#767676"/>
<path d="M61.4809 82.9819C61.4673 82.9819 61.4504 82.9819 61.4368 82.9785C61.3251 82.9542 61.2574 82.8435 61.2811 82.7294C62.2292 78.3531 63.3839 73.9663 64.5014 69.7249C65.2057 67.0541 65.9303 64.2934 66.5974 61.5638C66.6245 61.4531 66.7362 61.3839 66.8446 61.4116C66.9529 61.4393 67.0207 61.5535 66.9936 61.6642C66.3265 64.3972 65.5985 67.1579 64.8941 69.8322C63.7767 74.0701 62.6254 78.4499 61.6773 82.8159C61.6603 82.9162 61.5757 82.9819 61.4809 82.9819Z" fill="#767676"/>
<path d="M44.6395 73.8453C44.5921 73.8453 44.5447 73.828 44.5075 73.7934C44.4228 73.7173 44.4127 73.5858 44.4838 73.4994L51.246 65.4318C51.3205 65.3453 51.4492 65.3349 51.5338 65.4075C51.6185 65.4836 51.6286 65.6151 51.5575 65.7016L44.7953 73.7692C44.7547 73.8211 44.6971 73.8453 44.6395 73.8453Z" fill="#767676"/>
<path d="M55.6432 80.2246C55.6195 80.2246 55.5958 80.2212 55.5721 80.2108C55.4672 80.1693 55.413 80.0516 55.4502 79.9409C56.9503 75.8067 58.7382 71.7175 60.4652 67.7632C61.0171 66.5039 61.5657 65.2412 62.1109 63.9784C62.1549 63.8746 62.2768 63.8262 62.3818 63.8712C62.4867 63.9162 62.5307 64.0407 62.4867 64.1479C61.9449 65.4141 61.393 66.6735 60.841 67.9362C59.1175 71.8836 57.3329 75.9693 55.8362 80.0897C55.8058 80.1727 55.7279 80.2246 55.6432 80.2246Z" fill="#767676"/>
<path d="M52.8497 63.7326C52.8023 63.7326 52.7582 63.7153 52.7176 63.6842C52.6296 63.6115 52.6194 63.4801 52.6905 63.3901L54.343 61.3766C54.4141 61.2866 54.5462 61.2762 54.6308 61.3489C54.7189 61.4215 54.729 61.553 54.6579 61.643L53.0054 63.6565C52.9648 63.7084 52.9072 63.7326 52.8497 63.7326Z" fill="#767676"/>
<path d="M55.6432 80.2246C55.6195 80.2246 55.5958 80.2212 55.5721 80.2108C55.4672 80.1693 55.413 80.0516 55.4502 79.9409C56.9503 75.8067 58.7382 71.7175 60.4652 67.7632C61.0171 66.5039 61.5657 65.2412 62.1109 63.9784C62.1549 63.8746 62.2768 63.8262 62.3818 63.8712C62.4867 63.9162 62.5307 64.0407 62.4867 64.1479C61.9449 65.4141 61.393 66.6735 60.841 67.9362C59.1175 71.8836 57.3329 75.9693 55.8362 80.0897C55.8058 80.1727 55.7279 80.2246 55.6432 80.2246Z" fill="#767676"/>
<path d="M76.2534 84.6321C76.1518 84.6321 76.0638 84.5526 76.0502 84.4488C75.5762 80.3596 75.2376 76.1873 74.9091 72.1534C74.6281 68.7008 74.3368 65.1271 73.9644 61.626C73.9508 61.5118 74.0321 61.408 74.1438 61.3976C74.2556 61.3838 74.3572 61.4668 74.3707 61.581C74.7432 65.089 75.0344 68.6627 75.3155 72.1188C75.6439 76.1492 75.9825 80.318 76.4566 84.4003C76.4701 84.5145 76.3889 84.6183 76.2771 84.6321C76.2703 84.6321 76.2636 84.6321 76.2534 84.6321Z" fill="#767676"/>
<path d="M83.5027 83.3659C83.4113 83.3659 83.3266 83.3037 83.3029 83.2068C82.2126 78.7059 80.8852 74.1842 79.6018 69.8148C79.0228 67.8428 78.4234 65.8051 77.8545 63.7917C77.824 63.681 77.885 63.5633 77.9934 63.5322C78.1017 63.501 78.2168 63.5633 78.2473 63.674C78.8162 65.684 79.4156 67.7217 79.9912 69.6902C81.2746 74.0666 82.6054 78.5883 83.6957 83.103C83.7228 83.2137 83.6551 83.3279 83.5467 83.3555C83.5366 83.3625 83.5196 83.3659 83.5027 83.3659Z" fill="#767676"/>
<path d="M91.8846 79.9752C91.8101 79.9752 91.739 79.9337 91.7017 79.8611C90.5166 77.4947 89.3314 75.08 88.1869 72.7447C86.5243 69.3544 84.8075 65.8498 83.0569 62.4386C83.0061 62.3349 83.0433 62.2103 83.1415 62.1584C83.2431 62.1065 83.365 62.1446 83.4158 62.2449C85.1698 65.663 86.8866 69.1675 88.5492 72.5579C89.6937 74.8931 90.8789 77.3079 92.0607 79.6708C92.1115 79.7746 92.0708 79.8991 91.9726 79.951C91.9489 79.9683 91.9185 79.9752 91.8846 79.9752Z" fill="#767676"/>
<path d="M96.7143 64.6531C96.6635 64.6531 96.6127 64.6358 96.5755 64.5943L93.5719 61.6883C93.4906 61.6087 93.4873 61.4772 93.5651 61.3942C93.643 61.3112 93.7717 61.3077 93.853 61.3873L96.8565 64.2933C96.9378 64.3729 96.9412 64.5043 96.8633 64.5873C96.8227 64.6323 96.7685 64.6531 96.7143 64.6531Z" fill="#767676"/>
<path d="M101.763 69.9979C101.709 69.9979 101.655 69.9771 101.618 69.9356L100.263 68.5032C100.185 68.4202 100.185 68.2887 100.266 68.2091C100.348 68.1295 100.476 68.133 100.554 68.2125L101.909 69.645C101.987 69.728 101.987 69.8595 101.905 69.9391C101.865 69.9806 101.814 69.9979 101.763 69.9979Z" fill="#767676"/>
<path d="M68.704 78.5774C68.6972 78.5774 68.6938 78.5774 68.6871 78.5774C68.5753 78.567 68.4907 78.4667 68.5008 78.3525C68.8699 73.6302 69.1984 69.4995 69.5099 65.7251C69.52 65.6109 69.6216 65.5313 69.73 65.5348C69.8417 65.5452 69.9264 65.6455 69.9162 65.7597C69.6081 69.5341 69.2762 73.6648 68.9072 78.3871C68.9004 78.4944 68.8123 78.5774 68.704 78.5774Z" fill="#767676"/>
<path d="M68.2245 84.677C68.2177 84.677 68.2143 84.677 68.2076 84.677C68.0958 84.6667 68.0112 84.5663 68.0213 84.4522L68.4514 79.263C68.4615 79.1488 68.5631 79.0657 68.6715 79.0727C68.7832 79.083 68.8679 79.1834 68.8577 79.2975L68.4277 84.4867C68.4209 84.594 68.3295 84.677 68.2245 84.677Z" fill="#767676"/>
<path d="M97.2645 75.7441C97.2002 75.7441 97.1392 75.713 97.0986 75.6576C93.7056 70.8591 90.3432 66.1472 87.1026 61.6463C87.0349 61.5529 87.0552 61.4214 87.1466 61.3557C87.238 61.2865 87.3667 61.3072 87.4311 61.4006C90.6682 65.9016 94.0307 70.617 97.4271 75.4154C97.4948 75.5089 97.4745 75.6403 97.3797 75.706C97.3492 75.7303 97.3052 75.7441 97.2645 75.7441Z" fill="#767676"/>
<path d="M91.5443 27.4624C91.4867 27.4624 91.4291 27.4381 91.3885 27.3897C91.314 27.3032 91.3275 27.1683 91.4122 27.0956L104.486 15.8001C104.574 15.724 104.703 15.7378 104.774 15.8243C104.849 15.9108 104.835 16.0457 104.75 16.1183L91.6763 27.4139C91.6391 27.4451 91.5917 27.4624 91.5443 27.4624Z" fill="#767676"/>
<path d="M84.2745 22.6361C84.2406 22.6361 84.2034 22.6257 84.1729 22.6084C84.0747 22.5496 84.0408 22.4216 84.0984 22.3213L84.8806 20.9513C84.9382 20.851 85.0635 20.8198 85.1617 20.8752C85.2599 20.934 85.2938 21.062 85.2362 21.1623L84.454 22.5323C84.4133 22.598 84.3422 22.6361 84.2745 22.6361Z" fill="#767676"/>
<path d="M86.2791 19.3877C86.2418 19.3877 86.2012 19.3773 86.1673 19.3531C86.0725 19.2909 86.0488 19.1594 86.1097 19.0625L93.898 7.05405C93.9623 6.95718 94.0876 6.93297 94.1824 6.99524C94.2772 7.05752 94.3009 7.18899 94.24 7.28586L86.4517 19.2943C86.4077 19.3531 86.3434 19.3877 86.2791 19.3877Z" fill="#767676"/>
<path d="M77.7888 19.9481C77.7718 19.9481 77.7549 19.9446 77.738 19.9411C77.6296 19.9135 77.5619 19.7993 77.589 19.6886C77.9581 18.1975 78.3306 16.71 78.703 15.2224C79.8002 10.846 80.9312 6.32442 81.9606 1.8547C81.9877 1.74399 82.096 1.67134 82.2078 1.69902C82.3161 1.72669 82.3872 1.83739 82.3602 1.95156C81.3307 6.42474 80.1964 10.9533 79.0992 15.3296C78.7267 16.8172 78.3543 18.3082 77.9852 19.7959C77.9615 19.8858 77.8802 19.9481 77.7888 19.9481Z" fill="#767676"/>
<path d="M96.2518 14.534C96.2044 14.534 96.157 14.5167 96.1198 14.4821C96.0351 14.406 96.025 14.2746 96.0961 14.1881L98.8525 10.8981C98.9269 10.8116 99.0556 10.8012 99.1403 10.8738C99.2249 10.9499 99.2351 11.0814 99.164 11.1679L96.4076 14.4579C96.367 14.5098 96.3094 14.534 96.2518 14.534Z" fill="#767676"/>
<path d="M86.0923 9.54498C86.0686 9.54498 86.0415 9.54153 86.0178 9.53115C85.9128 9.48964 85.862 9.36855 85.9027 9.2613C86.1668 8.57978 86.458 7.90518 86.7356 7.25133C87.1251 6.34148 87.4941 5.48352 87.8091 4.58751C87.8463 4.48026 87.9648 4.42146 88.0698 4.46297C88.1748 4.50102 88.2323 4.62211 88.1917 4.72936C87.87 5.63921 87.484 6.54559 87.1081 7.42084C86.8305 8.06777 86.5426 8.73892 86.2785 9.41698C86.248 9.49655 86.1735 9.54498 86.0923 9.54498Z" fill="#767676"/>
<path d="M95.9131 27.7182C95.8386 27.7182 95.7675 27.6767 95.7336 27.6075C95.6828 27.5038 95.7201 27.3792 95.8183 27.3273L104.812 22.5082C104.914 22.4563 105.035 22.4943 105.086 22.5946C105.137 22.6984 105.1 22.823 105.002 22.8749L96.0079 27.694C95.9774 27.7113 95.9469 27.7182 95.9131 27.7182Z" fill="#767676"/>
<path d="M105.455 22.5913C105.38 22.5913 105.309 22.5498 105.275 22.4806C105.221 22.3768 105.262 22.2523 105.36 22.2004L107.585 21.0102C107.686 20.9583 107.808 20.9964 107.859 21.0967C107.913 21.2005 107.872 21.3251 107.774 21.377L105.549 22.5706C105.522 22.5844 105.488 22.5913 105.455 22.5913Z" fill="#767676"/>
<path d="M100.515 29.2161C100.43 29.2161 100.349 29.1608 100.322 29.0743C100.285 28.9636 100.342 28.846 100.451 28.8079L107.975 26.1962C108.08 26.1616 108.198 26.2169 108.235 26.3276C108.273 26.4383 108.215 26.5559 108.107 26.594L100.583 29.2058C100.559 29.2127 100.539 29.2161 100.515 29.2161Z" fill="#767676"/>
<path d="M85.7198 27.5488C85.6724 27.5488 85.6284 27.5315 85.5877 27.5004C85.4997 27.4277 85.4895 27.2962 85.5606 27.2063L93.3455 17.7099C93.42 17.62 93.5487 17.6096 93.6333 17.6822C93.7214 17.7549 93.7315 17.8863 93.6604 17.9763L85.8755 27.4727C85.8383 27.5211 85.7807 27.5488 85.7198 27.5488Z" fill="#767676"/>
<path d="M81.5518 20.8162C81.5247 20.8162 81.4977 20.8093 81.4706 20.7989C81.3656 20.7539 81.3216 20.6294 81.3656 20.5221C82.7675 17.2564 84.0136 14.302 85.0972 11.2334C85.1344 11.1261 85.2529 11.0673 85.3579 11.1088C85.4629 11.1469 85.5204 11.268 85.4798 11.3752C84.3962 14.4542 83.1433 17.4155 81.7381 20.6882C81.7042 20.7712 81.6297 20.8162 81.5518 20.8162Z" fill="#767676"/>
<path d="M69.4571 22.1995C69.3555 22.1995 69.2674 22.1199 69.2539 22.0127C68.79 17.7539 68.3972 13.4121 68.0213 9.21566C67.7572 6.28193 67.483 3.24787 67.1884 0.265699C67.1782 0.151532 67.2595 0.0477537 67.3712 0.037375C67.4829 0.0269962 67.5845 0.110019 67.5947 0.224185C67.8927 3.20635 68.1636 6.24387 68.4277 9.17761C68.8035 13.3706 69.1963 17.709 69.6602 21.9643C69.6738 22.0784 69.5925 22.1822 69.4808 22.196C69.474 22.1995 69.4672 22.1995 69.4571 22.1995Z" fill="#767676"/>
<path d="M65.9917 23.1414C65.9036 23.1414 65.819 23.0791 65.7953 22.9892L62.3718 10.4584C62.3414 10.3477 62.4057 10.2336 62.514 10.2024C62.6224 10.1713 62.7342 10.237 62.7646 10.3477L66.1881 22.8785C66.2185 22.9892 66.1542 23.1033 66.0458 23.1345C66.0255 23.1414 66.0086 23.1414 65.9917 23.1414Z" fill="#767676"/>
<path d="M61.6421 7.20621C61.554 7.20621 61.4694 7.14393 61.4457 7.05399L59.949 1.57062C59.9185 1.45992 59.9828 1.34576 60.0912 1.31462C60.1995 1.28349 60.3113 1.34921 60.3418 1.45992L61.8384 6.94328C61.8689 7.05398 61.8046 7.16817 61.6962 7.1993C61.6759 7.20276 61.659 7.20621 61.6421 7.20621Z" fill="#767676"/>
<path d="M62.0923 25.3106C62.0178 25.3106 61.9467 25.2691 61.9094 25.1964C58.293 17.9209 54.9136 11.3165 51.5816 5.00619C51.5274 4.90586 51.5646 4.77785 51.6628 4.7225C51.761 4.66715 51.8863 4.7052 51.9405 4.80553C55.2725 11.1193 58.6519 17.7271 62.2717 25.0062C62.3225 25.1099 62.2819 25.2345 62.1837 25.2864C62.1532 25.3037 62.1228 25.3106 62.0923 25.3106Z" fill="#767676"/>
<path d="M54.2601 27.5244C54.2093 27.5244 54.1585 27.5071 54.1213 27.4656L46.7936 20.3805C46.7123 20.301 46.7089 20.1695 46.7868 20.0865C46.8647 20.0034 46.9934 20 47.0747 20.0795L54.4023 27.1646C54.4836 27.2442 54.487 27.3757 54.4091 27.4587C54.3685 27.5002 54.3143 27.5244 54.2601 27.5244Z" fill="#767676"/>
<path d="M44.6049 18.0695C44.5507 18.0695 44.4965 18.0487 44.4593 18.0072L40.1521 13.4439C40.0742 13.3609 40.0776 13.2294 40.1588 13.1499C40.2401 13.0703 40.3688 13.0738 40.4467 13.1568L44.7539 17.72C44.8318 17.8031 44.8284 17.9345 44.7471 18.0141C44.7065 18.0487 44.6557 18.0695 44.6049 18.0695Z" fill="#767676"/>
<path d="M40.647 27.272C40.6165 27.272 40.5861 27.2651 40.559 27.2512L33.282 23.6879C33.1804 23.6395 33.1364 23.5149 33.1872 23.4077C33.2346 23.3039 33.3599 23.2589 33.4615 23.3108L40.7384 26.8742C40.84 26.9226 40.884 27.0471 40.8333 27.1544C40.7994 27.227 40.7249 27.272 40.647 27.272Z" fill="#767676"/>
<path d="M73.7631 20.5294C73.7597 20.5294 73.753 20.5294 73.7496 20.5294C73.6378 20.5225 73.5532 20.4221 73.5599 20.308C73.5938 19.7787 73.6277 19.2528 73.6581 18.7235C73.841 15.7587 74.0306 12.6969 74.3862 9.69402C74.3997 9.57986 74.5013 9.5003 74.613 9.51067C74.7248 9.52451 74.806 9.62829 74.7925 9.74246C74.437 12.7315 74.2473 15.7898 74.0645 18.7477C74.0306 19.277 74.0001 19.8063 73.9663 20.3322C73.9595 20.4429 73.8681 20.5294 73.7631 20.5294Z" fill="#767676"/>
<path d="M74.9921 5.60477C74.9853 5.60477 74.9819 5.60477 74.9752 5.60477C74.8634 5.59439 74.7788 5.49407 74.7889 5.3799L75.219 0.190387C75.2291 0.0762173 75.3341 -0.00335112 75.4391 0.000108562C75.5508 0.0104876 75.6355 0.110806 75.6253 0.224975L75.1953 5.41449C75.1851 5.52174 75.0971 5.60477 74.9921 5.60477Z" fill="#767676"/>
<path d="M47.5479 10.9289C47.4869 10.9289 47.426 10.9012 47.3853 10.8458C46.83 10.0986 46.2713 9.31676 45.7295 8.55913L45.4112 8.11631C45.3435 8.0229 45.3638 7.89145 45.4552 7.82572C45.5466 7.75999 45.6753 7.77729 45.7396 7.8707L46.058 8.3135C46.5997 9.06767 47.1551 9.84952 47.7104 10.5933C47.7781 10.6867 47.7612 10.8147 47.6698 10.8874C47.6359 10.915 47.5919 10.9289 47.5479 10.9289Z" fill="#767676"/>
<path d="M59.0123 26.8257C58.9513 26.8257 58.8904 26.7981 58.8497 26.7427C56.5674 23.643 54.2919 20.4602 52.0909 17.3812L50.5333 15.2017C50.4655 15.1083 50.4858 14.9768 50.5773 14.9111C50.6687 14.8419 50.7974 14.8626 50.8617 14.9561L52.4194 17.1356C54.6204 20.2145 56.8925 23.3939 59.1748 26.4936C59.2425 26.587 59.2256 26.7185 59.1342 26.7877C59.0969 26.8119 59.0529 26.8257 59.0123 26.8257Z" fill="#767676"/>
<path d="M47.6696 27.4763C47.6289 27.4763 47.5883 27.466 47.5544 27.4383L41.8859 23.4421C41.7945 23.3764 41.7708 23.2449 41.8351 23.1515C41.8995 23.0581 42.0282 23.0339 42.1196 23.0996L47.7881 27.0957C47.8795 27.1615 47.9032 27.293 47.8389 27.3864C47.7982 27.4452 47.7339 27.4763 47.6696 27.4763Z" fill="#767676"/>
<path d="M40.2979 22.2589C40.2573 22.2589 40.2167 22.2486 40.1828 22.2209L36.8 19.8339C36.7086 19.7682 36.6849 19.6368 36.7492 19.5433C36.8135 19.4499 36.9422 19.4257 37.0337 19.4914L40.4165 21.8784C40.5079 21.9442 40.5316 22.0756 40.4673 22.169C40.4266 22.2278 40.3623 22.2589 40.2979 22.2589Z" fill="#767676"/>
<path d="M35.7524 54.8882V55.7601C35.7524 56.4105 35.2377 56.9433 34.6011 56.9433H33.2263C33.1248 56.9433 33.0469 56.8603 33.0469 56.76V51.9577C33.0469 51.8539 33.1248 51.7743 33.2263 51.7743H34.486C35.1226 51.7743 35.6373 52.3071 35.6373 52.9576V53.4385C35.6373 53.6807 35.573 53.9021 35.4409 54.0889C35.6373 54.2965 35.7524 54.5802 35.7524 54.8882ZM33.9171 53.7153H34.4894C34.6418 53.7153 34.7704 53.5838 34.7704 53.4281V52.9195C34.7704 52.7569 34.6418 52.6254 34.4894 52.6254H33.9171V53.7153ZM34.8856 54.8467C34.8856 54.684 34.7569 54.5526 34.6045 54.5526H33.9171V56.0888H34.6045C34.7569 56.0888 34.8856 55.9573 34.8856 55.7843V54.8467Z" fill="#767676"/>
<path d="M37.4234 52.6134V53.7136H38.0601C38.1616 53.7136 38.2395 53.7932 38.2395 53.897V54.3537C38.2395 54.4575 38.1616 54.537 38.0601 54.537H37.4234V56.0973H38.4291C38.5307 56.0973 38.6086 56.1769 38.6086 56.2807V56.7547C38.6086 56.8585 38.5307 56.938 38.4291 56.938H36.7293C36.6277 56.938 36.5498 56.855 36.5498 56.7547V51.9527C36.5498 51.8489 36.6277 51.7693 36.7293 51.7693H38.4291C38.5307 51.7693 38.6086 51.8523 38.6086 51.9527V52.4266C38.6086 52.5304 38.5307 52.61 38.4291 52.61H37.4234V52.6134Z" fill="#767676"/>
<path d="M41.1117 53.077V52.9213C41.1117 52.7587 40.983 52.6342 40.8238 52.6342H40.492C40.3328 52.6342 40.2042 52.7587 40.2042 52.9213V53.3711C40.2042 53.5337 40.3328 53.6582 40.492 53.6651H40.8238C41.4672 53.6651 41.9819 54.191 41.9819 54.8483V55.7581C41.9819 56.4085 41.4604 56.9413 40.8238 56.9413H40.492C39.8554 56.9413 39.3339 56.4085 39.3339 55.7581V55.1527C39.3339 55.0489 39.4118 54.9694 39.5134 54.9694H40.0179C40.1195 54.9694 40.1974 55.0524 40.1974 55.1527V55.7962C40.1974 55.9588 40.3261 56.0902 40.4852 56.0902H40.8171C40.9762 56.0902 41.1049 55.9588 41.1049 55.7962V54.8344C41.1049 54.6718 40.9762 54.5473 40.8171 54.5473H40.4852C39.8486 54.5404 39.3271 54.0214 39.3271 53.3711V52.949C39.3271 52.2986 39.8486 51.7659 40.4852 51.7659H40.8171C41.4604 51.7659 41.9751 52.2986 41.9751 52.949V53.0736C41.9751 53.1773 41.8939 53.2569 41.7957 53.2569H41.2911C41.1895 53.2638 41.1117 53.1808 41.1117 53.077Z" fill="#767676"/>
<path d="M45.0608 51.9558V52.4436C45.0608 52.5474 44.9728 52.627 44.8814 52.627H44.2583V56.7577C44.2583 56.8615 44.1804 56.9411 44.0788 56.9411H43.5709C43.4761 56.9411 43.3915 56.8581 43.3915 56.7577V52.627H42.7752C42.6736 52.627 42.5957 52.5439 42.5957 52.4436V51.9558C42.5957 51.852 42.6736 51.7724 42.7752 51.7724H44.878C44.9728 51.769 45.0608 51.852 45.0608 51.9558Z" fill="#767676"/>
<path d="M49.8038 56.0904H50.0916C50.1796 56.0904 50.2643 56.1734 50.2643 56.2737V56.7546C50.2643 56.8584 50.1762 56.9379 50.0747 56.9379H48.6423C48.0768 56.9379 47.623 56.4709 47.623 55.9035V52.8072C47.623 52.2294 48.0802 51.7659 48.6423 51.7659H49.2484C49.8139 51.7659 50.2677 52.2329 50.2677 52.8072V55.3569C50.2744 55.6856 50.078 55.9658 49.8038 56.0904ZM49.4042 52.8107C49.4042 52.7069 49.3161 52.6204 49.2146 52.6204H48.6795C48.578 52.6204 48.4933 52.7103 48.4933 52.8107V55.907C48.4933 56.0039 48.5813 56.0904 48.6795 56.0904H49.4042V52.8107Z" fill="#767676"/>
<path d="M53.1032 51.7693H53.6078C53.7094 51.7693 53.7872 51.8592 53.7872 51.963V55.9969C53.7872 56.5124 53.3673 56.9414 52.8628 56.9414H52.067C51.5591 56.9414 51.1426 56.5124 51.1426 55.9969V51.963C51.1426 51.8592 51.2205 51.7693 51.322 51.7693H51.83C51.9316 51.7693 52.0095 51.8592 52.0095 51.963V55.907C52.0095 56.0107 52.0975 56.0903 52.1991 56.0903H52.7341C52.8357 56.0903 52.9237 56.0107 52.9237 55.907V51.963C52.9204 51.8592 53.0016 51.7693 53.1032 51.7693Z" fill="#767676"/>
<path d="M57.2178 56.1076V56.758C57.2178 56.8618 57.1365 56.9414 57.0383 56.9414H56.5236C56.4288 56.9414 56.3509 56.8583 56.3509 56.758V56.0869H55.3825V56.758C55.3825 56.8618 55.3046 56.9414 55.203 56.9414H54.6951C54.5935 56.9414 54.5156 56.8583 54.5156 56.758V56.1076C54.5156 56.0765 54.5156 56.0557 54.5224 56.0107L55.1455 51.9319C55.159 51.835 55.2403 51.7693 55.3351 51.7693H56.4187C56.5135 51.7693 56.5846 51.8523 56.5981 51.9319L57.211 56.0107C57.2178 56.0557 57.2178 56.0765 57.2178 56.1076ZM56.2494 55.2496L55.8667 52.6411L55.4841 55.2496H56.2494Z" fill="#767676"/>
<path d="M58.8083 51.9558V56.1004H59.8207C59.9223 56.1004 60.0002 56.18 60.0002 56.2838V56.7577C60.0002 56.8615 59.9223 56.9411 59.8207 56.9411H58.1209C58.0193 56.9411 57.9414 56.8581 57.9414 56.7577V51.9558C57.9414 51.852 58.0193 51.7724 58.1209 51.7724H58.6288C58.7304 51.769 58.8083 51.852 58.8083 51.9558Z" fill="#767676"/>
<path d="M61.3764 56.9414H60.8719C60.7703 56.9414 60.6924 56.8583 60.6924 56.758V51.963C60.6924 51.8592 60.7737 51.7693 60.8719 51.7693H61.3764C61.478 51.7693 61.5559 51.8592 61.5559 51.963V56.758C61.5592 56.8618 61.478 56.9414 61.3764 56.9414Z" fill="#767676"/>
<path d="M64.7093 51.9558V52.4436C64.7093 52.5474 64.6212 52.627 64.5298 52.627H63.9068V56.7577C63.9068 56.8615 63.8289 56.9411 63.7273 56.9411H63.2194C63.1245 56.9411 63.0399 56.8581 63.0399 56.7577V52.627H62.4236C62.322 52.627 62.2441 52.5439 62.2441 52.4436V51.9558C62.2441 51.852 62.322 51.7724 62.4236 51.7724H64.5264C64.6212 51.769 64.7093 51.852 64.7093 51.9558Z" fill="#767676"/>
<path d="M67.3419 51.7693H67.8464C67.948 51.7693 68.0259 51.8523 68.0259 51.9527V52.6827C68.0259 52.7622 68.0124 52.8453 67.9751 52.9179L67.0575 54.845V56.7514C67.0575 56.8552 66.9762 56.9347 66.878 56.9347H66.3734C66.2719 56.9347 66.194 56.8517 66.194 56.7514V54.845L65.2695 52.9179C65.2391 52.8453 65.2188 52.7622 65.2188 52.6827V51.9527C65.2188 51.8489 65.2966 51.7693 65.3982 51.7693H65.9061C66.0077 51.7693 66.0856 51.8523 66.0856 51.9527V52.5131C66.0856 52.572 66.0992 52.6308 66.1296 52.6827L66.6274 53.731L67.1252 52.6827C67.1455 52.6308 67.1624 52.572 67.1624 52.5131V51.9527C67.1624 51.8523 67.2403 51.7693 67.3419 51.7693Z" fill="#767676"/>
<path d="M72.5368 54.3571C72.5368 54.9245 72.0898 55.3847 71.5311 55.3847C70.9825 55.3847 70.5254 54.928 70.5254 54.3571C70.5254 53.7966 70.9825 53.3295 71.5311 53.3295C72.0864 53.3295 72.5368 53.7931 72.5368 54.3571Z" fill="#767676"/>
<path d="M77.9165 54.8861V55.7579C77.9165 56.4083 77.4018 56.9411 76.7652 56.9411H75.3904C75.2888 56.9411 75.2109 56.858 75.2109 56.7577V51.9559C75.2109 51.8522 75.2922 51.7726 75.3904 51.7726H76.6501C77.2867 51.7726 77.8014 52.3053 77.8014 52.9557V53.4366C77.8014 53.6788 77.737 53.9002 77.605 54.087C77.798 54.2946 77.9165 54.5782 77.9165 54.8861ZM76.0778 53.7134H76.6501C76.8024 53.7134 76.9311 53.5819 76.9311 53.4262V52.9177C76.9311 52.7551 76.8024 52.6236 76.6501 52.6236H76.0778V53.7134ZM77.0462 54.8446C77.0462 54.682 76.9176 54.5506 76.7652 54.5506H76.0778V56.0866H76.7652C76.9176 56.0866 77.0462 55.9551 77.0462 55.7821V54.8446Z" fill="#767676"/>
<path d="M79.5865 52.6134V53.7136H80.2231C80.3247 53.7136 80.4026 53.7932 80.4026 53.897V54.3537C80.4026 54.4575 80.3247 54.537 80.2231 54.537H79.5865V56.0973H80.5922C80.6938 56.0973 80.7717 56.1769 80.7717 56.2807V56.7547C80.7717 56.8585 80.6938 56.938 80.5922 56.938H78.8924C78.7908 56.938 78.7129 56.855 78.7129 56.7547V51.9527C78.7129 51.8489 78.7908 51.7693 78.8924 51.7693H80.5922C80.6938 51.7693 80.7717 51.8523 80.7717 51.9527V52.4266C80.7717 52.5304 80.6938 52.61 80.5922 52.61H79.5865V52.6134Z" fill="#767676"/>
<path d="M83.2748 53.077V52.9213C83.2748 52.7587 83.1461 52.6342 82.9869 52.6342H82.6551C82.4959 52.6342 82.3673 52.7587 82.3673 52.9213V53.3711C82.3673 53.5337 82.4959 53.6582 82.6551 53.6651H82.9869C83.6303 53.6651 84.145 54.191 84.145 54.8483V55.7581C84.145 56.4085 83.6235 56.9413 82.9869 56.9413H82.6551C82.0185 56.9413 81.497 56.4085 81.497 55.7581V55.1527C81.497 55.0489 81.5749 54.9694 81.6765 54.9694H82.181C82.2826 54.9694 82.3605 55.0524 82.3605 55.1527V55.7962C82.3605 55.9588 82.4892 56.0902 82.6483 56.0902H82.9802C83.1393 56.0902 83.268 55.9588 83.268 55.7962V54.8344C83.268 54.6718 83.1393 54.5473 82.9802 54.5473H82.6483C82.0117 54.5404 81.4902 54.0214 81.4902 53.3711V52.949C81.4902 52.2986 82.0117 51.7659 82.6483 51.7659H82.9802C83.6235 51.7659 84.1382 52.2986 84.1382 52.949V53.0736C84.1382 53.1773 84.057 53.2569 83.9588 53.2569H83.4542C83.356 53.2638 83.2748 53.1808 83.2748 53.077Z" fill="#767676"/>
<path d="M87.222 51.9558V52.4436C87.222 52.5474 87.134 52.627 87.0426 52.627H86.4195V56.7577C86.4195 56.8615 86.3416 56.9411 86.24 56.9411H85.7321C85.6373 56.9411 85.5526 56.8581 85.5526 56.7577V52.627H84.9363C84.8347 52.627 84.7568 52.5439 84.7568 52.4436V51.9558C84.7568 51.852 84.8347 51.7724 84.9363 51.7724H87.0392C87.1374 51.769 87.222 51.852 87.222 51.9558Z" fill="#767676"/>
<path d="M92.365 52.9523V53.4262C92.365 54.0766 91.8436 54.6094 91.2137 54.6094H90.6584V56.7577C90.6584 56.8615 90.5771 56.9411 90.4789 56.9411H89.9744C89.8728 56.9411 89.7949 56.858 89.7949 56.7577V51.956C89.7949 51.8522 89.8762 51.7726 89.9744 51.7726H91.2171C91.8436 51.7691 92.365 52.3019 92.365 52.9523ZM91.4982 52.9142C91.4982 52.7516 91.3763 52.6202 91.2171 52.6202H90.6618V53.7134H91.2171C91.3763 53.7134 91.4982 53.5819 91.4982 53.4262V52.9142Z" fill="#767676"/>
<path d="M94.945 54.5263L95.5951 55.7683C95.6324 55.8409 95.6459 55.9309 95.6459 56.0105V56.7508C95.6459 56.8546 95.5748 56.9341 95.4732 56.9341H94.9687C94.8671 56.9341 94.7791 56.8546 94.7791 56.7508V56.2353C94.7791 56.1523 94.7655 56.0727 94.7283 55.9828L93.9562 54.5194V56.7577C93.9562 56.8615 93.875 56.9411 93.7768 56.9411H93.2722C93.1774 56.9411 93.0928 56.858 93.0928 56.7577V51.9559C93.0928 51.8522 93.1808 51.7726 93.2722 51.7726H94.5217C95.1583 51.7726 95.6696 52.3053 95.6696 52.9557V53.4228C95.6696 53.9209 95.3649 54.3465 94.945 54.5263ZM94.5183 52.6202H93.9528V53.7203H94.5183C94.6707 53.7203 94.7994 53.5888 94.7994 53.4158V52.9073C94.8028 52.7447 94.6707 52.6202 94.5183 52.6202Z" fill="#767676"/>
<path d="M97.0785 56.9414H96.574C96.4724 56.9414 96.3945 56.8583 96.3945 56.758V51.963C96.3945 51.8592 96.4758 51.7693 96.574 51.7693H97.0785C97.1801 51.7693 97.258 51.8592 97.258 51.963V56.758C97.2614 56.8618 97.1801 56.9414 97.0785 56.9414Z" fill="#767676"/>
<path d="M100.014 54.5474H100.519C100.62 54.5474 100.698 54.6374 100.698 54.7377V55.9936C100.698 56.5091 100.285 56.938 99.7739 56.938H98.9781C98.4702 56.938 98.0537 56.5091 98.0537 55.9936V52.7138C98.0537 52.1879 98.4668 51.7693 98.9781 51.7693H99.7739C100.289 51.7693 100.698 52.1914 100.698 52.7138V53.5268C100.698 53.6306 100.617 53.7206 100.519 53.7206H100.014C99.9127 53.7206 99.8348 53.6306 99.8348 53.5268V52.7968C99.8348 52.693 99.7468 52.6134 99.6554 52.6134H99.1136C99.012 52.6134 98.924 52.6965 98.924 52.7968V55.9001C98.924 56.0039 99.012 56.0835 99.1136 56.0835H99.6554C99.7502 56.0835 99.8348 56.0039 99.8348 55.9001V54.7412C99.8348 54.6374 99.9161 54.5474 100.014 54.5474Z" fill="#767676"/>
<path d="M102.376 52.6134V53.7136H103.012C103.114 53.7136 103.192 53.7932 103.192 53.897V54.3537C103.192 54.4575 103.114 54.537 103.012 54.537H102.376V56.0973H103.381C103.483 56.0973 103.561 56.1769 103.561 56.2807V56.7547C103.561 56.8585 103.483 56.938 103.381 56.938H101.681C101.58 56.938 101.502 56.855 101.502 56.7547V51.9527C101.502 51.8489 101.58 51.7693 101.681 51.7693H103.381C103.483 51.7693 103.561 51.8523 103.561 51.9527V52.4266C103.561 52.5304 103.483 52.61 103.381 52.61H102.376V52.6134Z" fill="#767676"/>
<path d="M106.256 52.5718C111.481 52.5718 116.706 52.5718 121.931 52.5718C122.591 52.5718 122.591 51.5273 121.931 51.5273C116.706 51.5273 111.481 51.5273 106.256 51.5273C105.599 51.5273 105.599 52.5718 106.256 52.5718Z" fill="#767676"/>
<path d="M106.256 54.8C109.663 54.8 113.069 54.8 116.479 54.8C117.14 54.8 117.14 53.7552 116.479 53.7552C113.073 53.7552 109.666 53.7552 106.256 53.7552C105.599 53.7552 105.599 54.8 106.256 54.8Z" fill="#767676"/>
<path d="M106.256 56.8895C107.8 56.8895 109.345 56.8895 110.889 56.8895C111.549 56.8895 111.549 55.8445 110.889 55.8445C109.345 55.8445 107.8 55.8445 106.256 55.8445C105.599 55.8445 105.599 56.8895 106.256 56.8895Z" fill="#767676"/>
<path d="M29.7958 51.5275C24.571 51.5275 19.3461 51.5275 14.1212 51.5275C13.4609 51.5275 13.4609 52.572 14.1212 52.572C19.3461 52.572 24.571 52.572 29.7958 52.572C30.4562 52.572 30.4562 51.5275 29.7958 51.5275Z" fill="#767676"/>
<path d="M29.7972 53.7552C26.3907 53.7552 22.9842 53.7552 19.5743 53.7552C18.914 53.7552 18.914 54.8 19.5743 54.8C22.9808 54.8 26.3873 54.8 29.7972 54.8C30.4575 54.8 30.4575 53.7552 29.7972 53.7552Z" fill="#767676"/>
<path d="M29.7965 55.8445C28.2524 55.8445 26.7083 55.8445 25.1642 55.8445C24.5039 55.8445 24.5039 56.8895 25.1642 56.8895C26.7083 56.8895 28.2524 56.8895 29.7965 56.8895C30.4568 56.8895 30.4568 55.8445 29.7965 55.8445Z" fill="#767676"/>
</svg>
