<svg width="129" height="90" viewBox="0 0 129 90" fill="none" xmlns="http://www.w3.org/2000/svg">
<path d="M56.2653 79.3145C56.2946 80.8859 54.4674 82.5432 52.5229 82.633C52.7829 83.8489 53.1015 85.0349 52.5815 86.277C51.8271 88.2336 49.7984 89.2999 47.7954 89.0343C44.5766 88.589 43.7051 84.0547 46.8103 82.6929C47.9126 82.2177 49.5641 83.3139 48.3483 84.4101C47.6819 85.0311 46.5796 85.2107 47.0703 86.5127C47.3596 87.2235 48.1433 87.3732 48.7804 87.2534C49.8827 87.0477 50.4905 86.0974 50.5491 85.0311C50.6956 84.1108 50.3477 83.1643 50.1134 82.214C48.6633 81.5032 47.561 79.872 47.9675 78.2146C48.2861 76.763 50.0548 77.3541 49.359 78.2745C49.0404 78.8955 49.5055 79.7859 50.0255 80.2611C50.172 79.5802 50.4027 78.9292 50.7798 78.3044C52.2336 76.026 56.2068 75.9063 56.2653 79.3145ZM54.0902 78.2483C52.8122 78.0126 52.2922 79.7298 52.2629 80.6502C52.2629 80.71 52.2629 80.7699 52.2629 80.8297C52.6987 80.7699 53.1344 80.624 53.4823 80.3845C54.3795 79.7597 55.0496 78.5738 54.0902 78.2483Z" fill="#767676"/>
<path d="M60.067 79.0487C59.7777 79.4041 59.2247 80.115 58.6169 81.0054C58.8183 81.0054 58.994 81.0354 59.0819 81.0354C59.547 81.0653 59.0526 82.3111 58.5033 82.3111C58.3019 82.3111 58.009 82.2812 57.7197 82.2812C56.3575 84.2679 54.9953 86.4004 55.1967 86.58C55.5738 86.9953 57.4011 84.8927 58.1555 84.0022C58.6791 83.4111 59.3456 84.092 58.7926 84.7131C57.489 86.1049 55.5445 88.8323 53.9773 88.5367C52.8164 88.3572 52.3514 87.0252 53.3108 85.6933C53.7173 85.1022 54.5888 83.6767 55.4859 82.2251C55.3395 82.2251 55.1967 82.2251 55.0502 82.2251C54.5265 82.2251 55.0795 80.9493 55.6031 80.9194C55.7496 80.9194 56.0096 80.9194 56.2989 80.9194C57.2254 79.4378 58.0383 78.162 58.3019 77.9263C58.767 77.4811 59.3163 77.1257 59.7813 77.2454C60.2391 77.3876 60.9348 78.0423 60.067 79.0487Z" fill="#767676"/>
<path d="M66.2434 84.7393C64.9654 86.131 63.0539 88.8285 61.4866 88.5629C60.908 88.4432 60.6736 87.9119 60.7322 87.2572C60.2379 87.8184 59.5714 88.3235 58.8463 88.3235C56.4405 88.3235 57.1362 85.2107 58.5571 83.5233C59.9779 81.8323 61.7759 80.65 62.9074 81.1214C63.2846 81.2711 63.5153 81.5666 63.6324 81.8921C63.691 81.8023 63.7203 81.7425 63.7789 81.6864C64.244 81.2411 64.8226 80.8857 65.2583 81.0354C65.7527 81.1551 66.4191 81.836 65.5769 82.8424C64.5918 83.9686 62.7353 86.2208 63.0246 86.5164C63.2846 86.782 64.9104 84.8852 65.6648 83.9985C66.1848 83.4036 66.7926 84.1444 66.2434 84.7393ZM61.3987 84.7393C62.2995 83.6131 62.8488 82.6666 62.6474 82.487C62.4753 82.3074 61.5745 83.138 60.5894 84.3539C59.6337 85.5399 59.1393 86.696 59.2565 86.812C59.5128 87.0776 60.4979 85.8654 61.3987 84.7393Z" fill="#767676"/>
<path d="M71.3492 79.0487C71.0599 79.4041 70.507 80.115 69.8991 81.0054C70.1005 81.0054 70.2763 81.0354 70.3642 81.0354C70.8292 81.0653 70.3349 82.3111 69.7856 82.3111C69.5842 82.3111 69.2912 82.2812 69.002 82.2812C67.6397 84.2679 66.2775 86.4004 66.4789 86.58C66.8561 86.9953 68.6834 84.8927 69.4377 84.0022C69.9614 83.4111 70.6278 84.092 70.0749 84.7131C68.7713 86.1049 66.8268 88.8323 65.2595 88.5367C64.0987 88.3572 63.6336 87.0252 64.593 85.6933C64.9995 85.1022 65.871 83.6767 66.7682 82.2251C66.6217 82.2251 66.4789 82.2251 66.3324 82.2251C65.8088 82.2251 66.3617 80.9493 66.8854 80.9194C67.0318 80.9194 67.2918 80.9194 67.5811 80.9194C68.5076 79.4378 69.3205 78.162 69.5842 77.9263C70.0492 77.4811 70.5985 77.1257 71.0636 77.2454C71.5213 77.3876 72.2171 78.0423 71.3492 79.0487Z" fill="#767676"/>
<path d="M73.4938 84.7395C72.1865 86.1312 70.3042 88.8287 68.7076 88.5631C67.5761 88.3573 67.4589 87.0217 68.3891 85.6898C69.3741 84.3279 70.4763 82.2216 71 81.6903C71.4651 81.2451 72.0437 80.8897 72.4794 81.0393C72.9738 81.1591 73.6695 81.84 72.798 82.8464C71.813 83.9725 69.9564 86.2248 70.2456 86.5203C70.5056 86.786 72.1608 84.8891 72.9152 84.0025C73.4059 83.4038 74.043 84.1446 73.4938 84.7395ZM73.5524 80.235C72.1608 80.235 73.523 77.0923 75.1196 77.4477C76.5954 77.7732 74.6546 80.5904 73.5524 80.235Z" fill="#767676"/>
<path d="M80.4567 84.7392C80.021 85.1844 79.5596 85.7755 79.0652 86.3404C77.963 87.5564 77.6151 88.0016 76.5422 87.7921C76.3664 87.7621 76.2529 87.7023 76.1357 87.6125C75.4399 88.1176 74.7442 88.3832 74.1619 88.3832C72.1882 88.3832 71.551 86.3367 72.7411 84.2939C73.9312 82.2213 75.872 80.8856 77.2672 80.8856C78.7466 80.8856 79.8782 82.1315 78.7173 84.4698C78.3402 85.2106 77.9044 85.8615 77.4393 86.4265C77.6407 86.3367 77.9886 86.0711 78.3402 85.6857C78.8895 85.1208 79.4717 84.4399 79.8489 83.9946C80.3689 83.4035 81.006 84.1443 80.4567 84.7392ZM77.1793 82.6328C76.3371 82.6328 73.4955 86.722 74.3084 86.722C74.9163 86.722 78.0216 82.6328 77.1793 82.6328Z" fill="#767676"/>
<path d="M87.2403 84.7394C85.9366 86.1311 84.0508 88.8286 82.4542 88.5629C80.8576 88.2674 81.2641 86.6961 82.2235 85.3642C83.1499 84.0323 84.3401 83.0222 84.1386 82.7565C83.9629 82.4909 82.2235 84.2979 81.6742 84.8891C81.037 85.8655 80.3962 86.8158 79.9934 87.377C79.3855 88.2375 79.1219 88.5629 78.4261 88.5629C77.3532 88.5629 77.6425 87.1113 78.9498 85.3642C79.9055 84.0323 80.7477 82.6368 80.8942 82.3413C81.33 81.4509 81.4728 81.0094 82.0843 81.0094C82.5494 81.0094 83.128 81.3648 83.2158 81.9859C83.9116 81.4247 84.6367 81.0094 85.3617 81.0094C86.0575 81.0094 87.0425 81.8399 86.1161 83.2018C85.1896 84.5636 83.7102 86.2247 83.9995 86.5202C84.2595 86.7859 85.8854 84.8891 86.6397 84.0024C87.1524 83.4038 87.7932 84.1446 87.2403 84.7394Z" fill="#767676"/>
<path d="M12.8141 42.0849L13.8101 43.978C15.1797 46.582 14.2203 49.8556 11.7009 51.2399L9.4708 52.4671L14.0042 61.0722C14.2239 61.4875 14.0738 61.9851 13.671 62.2095L11.646 63.3245C11.2395 63.5489 10.7524 63.3955 10.5327 62.984L0.403939 43.7647C0.184226 43.3495 0.334354 42.8519 0.737162 42.6274L5.71369 39.8887C8.23673 38.5007 11.4446 39.4847 12.8141 42.0849ZM9.26207 43.8471C8.91785 43.1961 8.14884 42.9342 7.51167 43.2859L5.28159 44.513L7.58858 48.8904L9.81868 47.6632C10.4559 47.3115 10.6682 46.5109 10.3387 45.8898L9.26207 43.8471Z" fill="#767676"/>
<path d="M19.4703 37.8126L21.162 42.5079L23.8755 41.4865C24.3076 41.3256 24.7727 41.5426 24.9301 41.9841L25.6332 43.937C25.7907 44.3785 25.5783 44.8537 25.1462 45.0145L22.4327 46.0359L24.8276 52.6841L29.1157 51.0716C29.5478 50.9108 30.0128 51.1278 30.1703 51.5692L30.8954 53.5858C31.0528 54.0273 30.8404 54.5024 30.4083 54.6633L23.1578 57.3907C22.7257 57.5515 22.2606 57.3345 22.1032 56.8931L14.7208 36.4096C14.5633 35.9681 14.7757 35.493 15.2078 35.3321L22.4547 32.6047C22.8868 32.4438 23.3518 32.6608 23.5093 33.1023L24.2344 35.1189C24.3918 35.5603 24.1794 36.0355 23.7473 36.1963L19.4703 37.8126Z" fill="#767676"/>
<path d="M37.5545 29.3349L38.0782 31.4861C38.188 31.9426 37.8914 32.399 37.4776 32.5038L34.7349 33.1997L39.1584 51.4197C39.2683 51.8761 39.0046 52.3251 38.5579 52.4373L36.3241 53.0022C35.9103 53.107 35.4379 52.8451 35.3281 52.3887L30.9045 34.1686L28.1911 34.857C27.7443 34.9693 27.3049 34.6999 27.195 34.2435L26.6714 32.0922C26.5615 31.6358 26.8252 31.1868 27.2719 31.0746L36.5548 28.7213C36.9759 28.6166 37.4447 28.8785 37.5545 29.3349Z" fill="#767676"/>
<path d="M50.9912 39.0399L54.6824 44.2103C54.8911 44.5209 55.0083 44.9099 55.0595 45.2766L55.5136 48.6026C55.5759 49.0665 55.3012 49.4818 54.8472 49.5454L52.5695 49.8709C52.1154 49.9345 51.6723 49.6239 51.61 49.16L51.2914 46.833C51.2402 46.4663 51.1267 46.1109 50.9106 45.733L46.5273 39.6423L47.9005 49.7212C47.9628 50.1851 47.6552 50.6041 47.2011 50.6677L44.9234 50.9932C44.4986 51.0531 44.0592 50.7426 43.9969 50.2787L41.0455 28.6579C40.9832 28.194 41.3238 27.7712 41.7449 27.7114L47.3769 26.9108C50.2405 26.503 52.8807 28.5681 53.2799 31.4938L53.5655 33.5889C53.8731 35.8486 52.7708 37.9737 50.9912 39.0399ZM47.8969 30.7343L45.3592 31.0972L46.0366 36.0544L48.5743 35.6915C49.2591 35.5942 49.7608 34.9133 49.6582 34.1463L49.3433 31.853C49.2444 31.1197 48.5817 30.637 47.8969 30.7343Z" fill="#767676"/>
<path d="M68.5119 29.7651L69.0062 44.6368C69.0868 47.02 67.2449 48.9992 64.9452 49.0778L61.3309 49.2012C58.9983 49.2835 57.0612 47.4353 56.9843 45.0521L56.4899 30.1804C56.4093 27.7972 58.2183 25.7844 60.5509 25.7058L64.1652 25.5823C66.4612 25.5038 68.4313 27.3856 68.5119 29.7651ZM64.579 30.2403C64.5644 29.7689 64.1579 29.4471 63.6965 29.4658L61.265 29.5519C60.8036 29.5668 60.4228 29.9185 60.4374 30.3862L60.9061 44.4834C60.9208 44.9548 61.3309 45.3439 61.7886 45.3252L64.2201 45.2392C64.6815 45.2242 65.0624 44.8052 65.0441 44.3375L64.579 30.2403Z" fill="#767676"/>
<path d="M76.5015 26.6404L75.4323 45.4478L80.0243 45.721C80.482 45.7472 80.8225 46.14 80.7969 46.6076L80.6761 48.7514C80.6504 49.2191 80.2659 49.567 79.8082 49.5408L72.0963 49.0844C71.6385 49.0582 71.298 48.6654 71.3236 48.1977L72.5613 26.4085C72.587 25.9408 72.9715 25.5929 73.4292 25.6191L75.7252 25.7537C76.1866 25.7837 76.5272 26.1728 76.5015 26.6404Z" fill="#767676"/>
<path d="M88.6489 30.854L87.9495 35.8074L90.8131 36.2302C91.2671 36.2975 91.5747 36.7165 91.5088 37.1805L91.2195 39.2419C91.1536 39.7058 90.7435 40.0201 90.2894 39.9527L87.4258 39.53L86.4371 46.5448L90.9595 47.2107C91.4136 47.2781 91.7212 47.6971 91.6553 48.161L91.355 50.2898C91.2891 50.7537 90.879 51.068 90.4249 51.0006L82.7789 49.8745C82.3248 49.8072 82.0172 49.3881 82.0831 48.9242L85.1298 27.3185C85.1957 26.8546 85.6058 26.5404 86.0599 26.6077L93.7059 27.7338C94.16 27.8012 94.4676 28.2202 94.4017 28.6841L94.1014 30.8129C94.0355 31.2768 93.6254 31.591 93.1713 31.5237L88.6489 30.854Z" fill="#767676"/>
<path d="M107.253 30.8538L109.483 31.4337C109.93 31.5497 110.183 32.0323 110.069 32.4888L105.631 50.2562C105.063 52.5346 102.742 53.9376 100.515 53.3577L97.0107 52.4449C94.7806 51.865 93.4038 49.493 93.975 47.2183L98.4132 29.4508C98.5267 28.9944 98.9735 28.6951 99.4202 28.8111L101.65 29.391C102.097 29.5069 102.35 29.9896 102.236 30.446L97.8932 47.8244C97.7797 48.2808 98.0727 48.7372 98.5194 48.8532L100.878 49.4668C101.324 49.5828 101.797 49.3246 101.91 48.8682L106.253 31.4898C106.36 31.0371 106.806 30.7378 107.253 30.8538Z" fill="#767676"/>
<path d="M123.122 57.9521L121.932 60.8292C121.748 61.2595 121.243 61.4391 120.851 61.2632L118.742 60.3241C118.321 60.1371 118.134 59.6507 118.317 59.2204L119.339 56.8185C119.419 56.6352 119.482 56.4781 119.533 56.2835L122.576 46.0285L117.347 54.6897C117.131 55.0339 116.71 55.1761 116.347 55.0152L114.055 53.9976C113.692 53.8367 113.48 53.4139 113.575 53.0173L116.215 43.2038L110.942 52.4674C110.832 52.6395 110.766 52.7928 110.69 52.9762L109.668 55.3781C109.485 55.8084 109.009 55.9992 108.588 55.8121L106.478 54.873C106.057 54.686 105.87 54.1996 106.054 53.7693L107.302 50.9184C107.343 50.8249 107.434 50.6117 107.57 50.376L117.102 34.7297C117.318 34.3855 117.739 34.2434 118.131 34.4192L120.39 35.4256C120.782 35.6015 120.965 36.0093 120.87 36.4059L117.9 48.0863L124.275 37.9173C124.491 37.5731 124.912 37.431 125.275 37.5918L127.567 38.6095C127.959 38.7853 128.142 39.1931 128.047 39.5897L123.338 57.3797C123.254 57.6416 123.162 57.8586 123.122 57.9521Z" fill="#767676"/>
<path d="M66.7886 56.2125C66.774 56.2125 66.7557 56.2125 66.741 56.2125C66.7337 56.2125 66.7264 56.2125 66.7154 56.2125C66.7081 56.2125 66.7008 56.2125 66.6898 56.2125C66.6751 56.2125 66.6568 56.2125 66.6422 56.2125C43.4148 56.2125 22.9045 62.8645 10.5273 73.0332L16.379 76.015L17.0858 82.9401C19.1657 81.0433 21.6998 79.2175 24.6732 77.5115C35.7212 71.1626 50.6251 67.6645 66.6385 67.6645C66.6532 67.6645 66.6715 67.6645 66.6861 67.6645C66.6934 67.6645 66.7008 67.6645 66.7118 67.6645C66.7191 67.6645 66.7264 67.6645 66.7374 67.6645C66.752 67.6645 66.7704 67.6645 66.785 67.6645C82.8021 67.6645 97.706 71.1626 108.75 77.5115C111.724 79.2213 114.258 81.0433 116.338 82.9401L117.044 76.015L122.896 73.0332C110.526 62.8645 90.016 56.2125 66.7886 56.2125Z" fill="#767676"/>
<path d="M41.7599 85.5177C42.9866 85.5177 42.9866 83.576 41.7599 83.576C40.5332 83.576 40.5332 85.5177 41.7599 85.5177Z" fill="#767676"/>
<path d="M90.2833 85.5177C91.5101 85.5177 91.5101 83.576 90.2833 83.576C89.0566 83.576 89.0566 85.5177 90.2833 85.5177Z" fill="#767676"/>
<path d="M23.5214 72.5543C23.8619 73.1341 23.6788 73.8823 23.1112 74.2302C22.551 74.5744 21.8112 74.3911 21.4707 73.8112C21.1338 73.2388 21.3205 72.4794 21.8808 72.1353C22.4484 71.7874 23.1845 71.9819 23.5214 72.5543Z" fill="white"/>
<path d="M29.6409 70.1111L30.0731 71.0501C30.3953 71.7498 30.106 72.5879 29.4212 72.9208L27.9418 73.6317C27.832 73.6841 27.7075 73.6392 27.6562 73.527L25.2723 68.3563C25.221 68.2441 25.265 68.1169 25.3748 68.0645L26.7297 67.4135C27.4145 67.0843 28.2311 67.3911 28.5534 68.0907L28.7914 68.607C28.9122 68.8689 28.9525 69.142 28.9049 69.4077C29.2235 69.5311 29.4871 69.7743 29.6409 70.1111ZM27.0813 69.7968L27.6965 69.5012C27.8613 69.4226 27.9345 69.2131 27.8576 69.0448L27.6049 68.4948C27.5244 68.3189 27.3193 68.2441 27.1545 68.3227L26.5393 68.6182L27.0813 69.7968ZM28.6852 70.5114C28.6046 70.3355 28.3996 70.2607 28.2348 70.3393L27.4951 70.6947L28.2567 72.3484L28.9965 71.993C29.1612 71.9144 29.2345 71.7049 29.1503 71.5216L28.6852 70.5114Z" fill="white"/>
<path d="M30.5378 66.8001L31.0212 68.016L31.7243 67.7242C31.8378 67.6793 31.9586 67.7317 32.0063 67.8439L32.2077 68.349C32.2516 68.465 32.2003 68.5884 32.0905 68.6371L31.3874 68.9289L32.0685 70.6498L33.1781 70.1897C33.2879 70.1448 33.4124 70.1971 33.4564 70.3094L33.6651 70.8294C33.709 70.9454 33.6578 71.0688 33.5479 71.1175L31.673 71.8919C31.5595 71.9368 31.4387 71.8844 31.3911 71.7722L29.2891 66.4747C29.2452 66.3624 29.2965 66.2352 29.4063 66.1866L31.2812 65.4122C31.3911 65.3673 31.5156 65.4196 31.5595 65.5319L31.7646 66.0519C31.8085 66.1641 31.7572 66.2913 31.6474 66.34L30.5378 66.8001Z" fill="white"/>
<path d="M34.9866 65.6926L34.928 65.5167C34.8657 65.3334 34.6717 65.2436 34.4922 65.3072L34.1187 65.4419C33.9393 65.5055 33.8404 65.7 33.9027 65.8834L34.0748 66.3884C34.137 66.5717 34.3311 66.6615 34.5142 66.6054L34.8877 66.4707C35.6128 66.2126 36.3891 66.5979 36.6418 67.3387L36.9897 68.3601C37.2387 69.0896 36.8578 69.8977 36.1438 70.1521L35.7703 70.2868C35.0562 70.5412 34.2652 70.1521 34.0162 69.4189L33.7855 68.7379C33.7452 68.622 33.8038 68.4985 33.9173 68.4573L34.4849 68.2553C34.5984 68.2142 34.7193 68.274 34.7596 68.39L35.0049 69.1121C35.0672 69.2954 35.2649 69.3927 35.4443 69.3291L35.8179 69.1944C35.9973 69.1308 36.0925 68.9288 36.0302 68.7454L35.6604 67.6642C35.5981 67.4809 35.404 67.3911 35.2246 67.4547L34.8511 67.5894C34.1334 67.8363 33.3497 67.4622 33.1007 66.7326L32.9396 66.2575C32.6906 65.5279 33.0714 64.7198 33.7855 64.4654L34.159 64.3307C34.8841 64.0726 35.664 64.4654 35.9131 65.1987L35.9607 65.3409C36.0009 65.4569 35.9424 65.5803 35.8288 65.6215L35.2612 65.8235C35.1477 65.8684 35.0269 65.8085 34.9866 65.6926Z" fill="white"/>
<path d="M39.2496 62.9392L39.4107 63.4967C39.4437 63.6164 39.3741 63.7361 39.2642 63.7698L38.5538 63.983L39.9197 68.6968C39.9526 68.8165 39.8904 68.9362 39.7732 68.9698L39.1946 69.1457C39.0884 69.1793 38.9603 69.1158 38.9273 68.996L37.5614 64.2823L36.862 64.4955C36.7448 64.5292 36.6277 64.4656 36.5947 64.3459L36.4336 63.7885C36.4006 63.6688 36.4629 63.549 36.58 63.5154L38.9822 62.7896C39.0921 62.7597 39.2166 62.8195 39.2496 62.9392Z" fill="white"/>
<path d="M46.0703 66.3137L46.4072 66.2388C46.5061 66.2164 46.6306 66.2875 46.6562 66.4072L46.7771 66.9647C46.8027 67.0844 46.7221 67.2004 46.6049 67.2303L44.9424 67.6082C44.287 67.7579 43.6388 67.3351 43.496 66.6729L42.716 63.0773C42.5695 62.4076 42.9833 61.7454 43.6388 61.5994L44.3456 61.4386C45.001 61.2889 45.6492 61.7117 45.792 62.3814L46.4328 65.3446C46.5134 65.7188 46.3596 66.0967 46.0703 66.3137ZM44.7813 62.6059C44.7557 62.4862 44.6312 62.4038 44.514 62.4338L43.8915 62.576C43.7743 62.6021 43.6937 62.7294 43.723 62.8491L44.503 66.4484C44.5286 66.5606 44.6495 66.6392 44.7667 66.613L45.6052 66.4222L44.7813 62.6059Z" fill="white"/>
<path d="M49.0481 60.5146L49.6413 60.4098C49.7585 60.3874 49.872 60.4772 49.8903 60.5969L50.6996 65.3261C50.8021 65.9322 50.3956 66.5233 49.8024 66.6281L48.8686 66.7927C48.2754 66.8975 47.6968 66.4822 47.5943 65.8761L46.785 61.1469C46.763 61.0272 46.8399 60.9037 46.9571 60.885L47.5503 60.7802C47.6675 60.7578 47.781 60.8476 47.7994 60.9673L48.5903 65.5917C48.6123 65.7114 48.7295 65.79 48.8467 65.7676L49.4729 65.6553C49.59 65.6329 49.6779 65.5206 49.6559 65.4009L48.865 60.7765C48.854 60.6568 48.9309 60.5333 49.0481 60.5146Z" fill="white"/>
<path d="M54.7549 64.8923L54.8538 65.6593C54.8685 65.7828 54.7879 65.8913 54.6671 65.9062L54.0592 65.9885C53.9493 66.0035 53.8431 65.9212 53.8248 65.7977L53.7223 65.0046L52.5798 65.158L52.6823 65.9511C52.697 66.0746 52.6164 66.1831 52.4956 66.1981L51.8987 66.2804C51.7778 66.2953 51.6716 66.213 51.657 66.0896L51.5581 65.3226C51.5545 65.2889 51.5508 65.2627 51.5508 65.2066L51.6643 60.2943C51.668 60.1783 51.7522 60.0885 51.8621 60.0736L53.1437 59.9015C53.2536 59.8865 53.3524 59.9726 53.3817 60.0661L54.7293 64.7838C54.744 64.8325 54.7476 64.8587 54.7549 64.8923ZM53.4769 64.0356L52.6274 61.0164L52.5725 64.1553L53.4769 64.0356Z" fill="white"/>
<path d="M56.1442 59.7812L56.6056 64.6935L57.8067 64.5738C57.9276 64.5625 58.0301 64.6486 58.0411 64.7721L58.0924 65.3333C58.1033 65.4567 58.0191 65.5615 57.8983 65.5727L55.8842 65.771C55.7634 65.7822 55.6609 65.6962 55.6499 65.5727L55.1152 59.8822C55.1042 59.7587 55.1885 59.654 55.3093 59.6428L55.9099 59.5829C56.0307 59.5717 56.1332 59.6577 56.1442 59.7812Z" fill="white"/>
<path d="M59.7108 65.4379L59.1103 65.4828C58.9894 65.4903 58.8905 65.4005 58.8796 65.2771L58.4877 59.5829C58.4804 59.4594 58.5683 59.3472 58.6855 59.3397L59.286 59.2948C59.4069 59.2874 59.5094 59.3846 59.5167 59.5081L59.9086 65.2023C59.9195 65.3257 59.8317 65.4305 59.7108 65.4379Z" fill="white"/>
<path d="M63.3837 59.3053L63.4094 59.8852C63.413 60.0087 63.3142 60.1097 63.2043 60.1134L62.4646 60.1471L62.6733 65.0595C62.677 65.183 62.5891 65.284 62.4683 65.2878L61.8677 65.314C61.7542 65.3177 61.648 65.2279 61.6443 65.1044L61.4356 60.192L60.7032 60.2257C60.5824 60.2294 60.4835 60.1396 60.4798 60.0161L60.4542 59.4362C60.4505 59.3128 60.5384 59.2117 60.6593 59.208L63.164 59.0958C63.2702 59.0883 63.3764 59.1818 63.3837 59.3053Z" fill="white"/>
<path d="M66.6632 59.0409L67.2674 59.0334C67.3883 59.0334 67.4835 59.127 67.4835 59.2504L67.4908 60.1221C67.4908 60.2193 67.4761 60.3166 67.4322 60.4027L66.3593 62.7071L66.3812 64.9742C66.3812 65.0976 66.2897 65.1949 66.1688 65.1949L65.5646 65.2024C65.4438 65.2024 65.3486 65.1088 65.3486 64.9854L65.3266 62.7183L64.2024 60.4326C64.1658 60.3465 64.1401 60.2493 64.1401 60.152L64.1328 59.2804C64.1328 59.1569 64.2244 59.0596 64.3452 59.0596L64.9494 59.0522C65.0703 59.0522 65.1655 59.1457 65.1655 59.2691L65.1728 59.9388C65.1728 60.0099 65.1911 60.0809 65.2277 60.1408L65.8319 61.3828L66.4142 60.1296C66.4398 60.0697 66.4545 59.9986 66.4545 59.9276L66.4471 59.2579C66.4508 59.1419 66.5424 59.0447 66.6632 59.0409Z" fill="white"/>
<path d="M72.9582 62.2995C72.9289 62.9768 72.3686 63.4969 71.7058 63.4632C71.0503 63.4333 70.534 62.8608 70.5669 62.1835C70.5962 61.5137 71.1638 60.986 71.8193 61.0197C72.4821 61.0534 72.9874 61.6334 72.9582 62.2995Z" fill="white"/>
<path d="M79.3647 63.5114L79.2585 64.544C79.1816 65.3147 78.5078 65.8796 77.7535 65.7973L76.1276 65.6252C76.0068 65.614 75.9226 65.5055 75.9372 65.382L76.5194 59.6992C76.5304 59.5757 76.6366 59.4897 76.7575 59.5046L78.2479 59.6618C79.0022 59.7403 79.5442 60.4362 79.4673 61.2069L79.4087 61.7755C79.3794 62.0636 79.2768 62.318 79.0974 62.52C79.3025 62.8006 79.405 63.1448 79.3647 63.5114ZM78.343 63.3506C78.3614 63.1598 78.2259 62.9839 78.0464 62.9652L77.2335 62.8792L77.0467 64.6974L77.8597 64.7834C78.0391 64.8021 78.2112 64.66 78.2295 64.4617L78.343 63.3506ZM77.3324 61.8915L78.0098 61.9626C78.1893 61.9813 78.3614 61.8391 78.3797 61.6558L78.4419 61.0535C78.4602 60.8627 78.3247 60.6868 78.1453 60.6681L77.4679 60.5971L77.3324 61.8915Z" fill="white"/>
<path d="M81.7436 61.1133L81.5605 62.4116L82.3112 62.5201C82.432 62.5388 82.5126 62.6473 82.4943 62.767L82.4174 63.3058C82.3991 63.4293 82.2929 63.5116 82.1757 63.4929L81.425 63.3844L81.1687 65.2214L82.3515 65.3936C82.4723 65.4123 82.5529 65.5208 82.5346 65.6405L82.4577 66.198C82.4394 66.3215 82.3332 66.4038 82.2123 66.3851L80.2093 66.0932C80.0884 66.0745 80.0115 65.966 80.0262 65.8463L80.8172 60.1891C80.8355 60.0657 80.9417 59.9871 81.0625 60.0021L83.0656 60.2939C83.1864 60.3126 83.2633 60.4211 83.2486 60.5408L83.1717 61.0983C83.1534 61.2218 83.0472 61.3004 82.9264 61.2854L81.7436 61.1133Z" fill="white"/>
<path d="M86.1152 62.4079L86.1481 62.2245C86.1811 62.0337 86.0566 61.8579 85.8699 61.8242L85.4817 61.7532C85.295 61.7195 85.1155 61.8355 85.0826 62.0263L84.9873 62.5538C84.9544 62.7446 85.0789 62.9204 85.2656 62.9616L85.6538 63.0326C86.4082 63.1748 86.8988 63.9006 86.7597 64.6675L86.5693 65.73C86.4338 66.4932 85.7124 67.002 84.969 66.8636L84.5809 66.7925C83.8375 66.6541 83.3358 65.9171 83.4713 65.1576L83.5995 64.4468C83.6215 64.3271 83.7313 64.2485 83.8485 64.271L84.4417 64.3832C84.5589 64.4057 84.6358 64.5179 84.6138 64.6376L84.4783 65.3896C84.4454 65.5804 84.5699 65.7637 84.7566 65.7974L85.1448 65.8685C85.3316 65.9021 85.511 65.7749 85.544 65.5841L85.7454 64.458C85.7783 64.2672 85.6538 64.0914 85.467 64.0577L85.0789 63.9866C84.3355 63.8407 83.8339 63.1187 83.9694 62.3592L84.0572 61.8654C84.1927 61.1059 84.9141 60.5934 85.6575 60.7318L86.0456 60.8029C86.8 60.9413 87.2907 61.6783 87.1515 62.4378L87.1259 62.5837C87.1039 62.7034 86.9941 62.782 86.8769 62.7595L86.2837 62.6473C86.1701 62.6436 86.0932 62.5313 86.1152 62.4079Z" fill="white"/>
<path d="M91.1201 62.127L90.9956 62.692C90.97 62.8117 90.8491 62.8828 90.7393 62.8566L90.0179 62.692L88.9633 67.4883C88.9376 67.608 88.8241 67.6828 88.707 67.6529L88.1174 67.5182C88.0075 67.492 87.927 67.376 87.9563 67.2563L89.0109 62.46L88.2968 62.2954C88.1797 62.2692 88.1064 62.1532 88.1357 62.0335L88.2602 61.4686C88.2858 61.3489 88.3994 61.274 88.5165 61.304L90.959 61.8652C91.0652 61.8913 91.1457 62.0073 91.1201 62.127Z" fill="white"/>
<path d="M96.9712 65.0267L96.8137 65.5655C96.5977 66.3063 95.825 66.7328 95.1073 66.5121L94.4738 66.3175L93.756 68.7682C93.7231 68.8879 93.6022 68.9515 93.4887 68.9178L92.9101 68.742C92.7929 68.7083 92.7307 68.5848 92.7673 68.4688L94.3676 62.9913C94.4005 62.8754 94.5214 62.808 94.6349 62.8417L96.052 63.2757C96.7698 63.4964 97.1872 64.2859 96.9712 65.0267ZM95.9934 64.6825C96.0484 64.4954 95.9532 64.3046 95.7701 64.2485L95.1366 64.0539L94.774 65.2998L95.4075 65.4944C95.5906 65.5505 95.7737 65.442 95.825 65.2624L95.9934 64.6825Z" fill="white"/>
<path d="M99.4188 67.87L99.6678 69.5274C99.6788 69.6246 99.6604 69.7294 99.6312 69.8229L99.3455 70.6535C99.3053 70.7694 99.1917 70.8331 99.0782 70.7919L98.5106 70.5861C98.3971 70.545 98.3312 70.4178 98.3715 70.3018L98.5729 69.7219C98.6058 69.6321 98.6205 69.5349 98.6132 69.4189L98.3129 67.4622L97.445 69.9763C97.4047 70.0923 97.2839 70.1522 97.1704 70.111L96.6028 69.9052C96.4966 69.8678 96.4307 69.7406 96.4709 69.6246L98.3349 64.2336C98.3751 64.1176 98.5033 64.0615 98.6095 64.0989L100.016 64.604C100.73 64.8621 101.1 65.6665 100.847 66.396L100.667 66.9198C100.466 67.4809 99.9607 67.8401 99.4188 67.87ZM99.6788 65.558L99.0453 65.3298L98.6168 66.5644L99.2503 66.7926C99.4224 66.8524 99.6202 66.7589 99.6861 66.5681L99.8838 65.9957C99.9497 65.8124 99.8509 65.6178 99.6788 65.558Z" fill="white"/>
<path d="M100.806 71.4956L100.246 71.2674C100.132 71.2225 100.081 71.0953 100.125 70.9831L102.198 65.6815C102.242 65.5656 102.37 65.5057 102.48 65.5506L103.04 65.7788C103.153 65.8237 103.201 65.9584 103.157 66.0744L101.084 71.3759C101.04 71.4882 100.92 71.5443 100.806 71.4956Z" fill="white"/>
<path d="M105.097 70.2871L105.646 70.5415C105.756 70.5938 105.8 70.7285 105.748 70.8408L105.148 72.2026C104.899 72.7638 104.247 73.022 103.69 72.7675L102.826 72.371C102.277 72.1166 102.028 71.4431 102.273 70.8819L103.844 67.3239C104.097 66.7552 104.745 66.5046 105.302 66.759L106.166 67.1556C106.722 67.4137 106.968 68.0759 106.719 68.6446L106.331 69.5276C106.283 69.6398 106.151 69.6959 106.041 69.6473L105.492 69.3929C105.382 69.3405 105.338 69.2058 105.39 69.0936L105.741 68.3004C105.789 68.1882 105.734 68.0572 105.635 68.0086L105.045 67.7392C104.935 67.6868 104.804 67.7317 104.752 67.844L103.269 71.2112C103.222 71.3234 103.277 71.4543 103.386 71.5067L103.976 71.7761C104.079 71.8247 104.21 71.7798 104.262 71.6676L104.818 70.4105C104.859 70.2945 104.987 70.2384 105.097 70.2871Z" fill="white"/>
<path d="M108.73 69.5464L108.136 70.7099L108.807 71.0691C108.913 71.1252 108.953 71.2562 108.898 71.3647L108.649 71.8473C108.594 71.9558 108.466 71.997 108.36 71.9408L107.69 71.5817L106.847 73.2279L107.909 73.7928C108.016 73.8489 108.056 73.9799 108.001 74.0884L107.745 74.586C107.69 74.6945 107.561 74.7356 107.455 74.6795L105.661 73.7217C105.555 73.6656 105.515 73.5347 105.569 73.4262L108.162 68.3566C108.217 68.2481 108.345 68.207 108.451 68.2631L110.246 69.2209C110.352 69.277 110.392 69.4079 110.337 69.5164L110.081 70.014C110.026 70.1225 109.898 70.1637 109.792 70.1076L108.73 69.5464Z" fill="white"/>
<path d="M111.923 73.7852C111.583 74.3652 110.85 74.556 110.283 74.208C109.722 73.8638 109.528 73.1117 109.869 72.5317C110.206 71.9592 110.949 71.7684 111.509 72.1089C112.081 72.4569 112.26 73.2127 111.923 73.7852Z" fill="white"/>
<path d="M69.3552 12.8172C69.3552 16.2442 66.6344 19.0239 63.2802 19.0239C59.9259 19.0239 57.2051 16.2442 57.2051 12.8172C57.2051 9.39027 63.2802 0.0858154 63.2802 0.0858154C63.2802 0.0858154 69.3552 9.39027 69.3552 12.8172Z" fill="#767676"/>
<path d="M50.479 21.3063C48.1354 21.3063 46.2275 19.3571 46.2275 16.9626C46.2275 14.774 49.6185 9.51749 50.0066 8.92637L50.4827 8.20056L50.9587 8.92637C51.3469 9.51749 54.7378 14.774 54.7378 16.9626C54.7305 19.3571 52.8226 21.3063 50.479 21.3063ZM50.479 10.3181C49.3109 12.2 47.3664 15.612 47.3664 16.9626C47.3664 18.7136 48.7616 20.1427 50.479 20.1427C52.1928 20.1427 53.5916 18.7173 53.5916 16.9626C53.5916 15.612 51.6471 12.1963 50.479 10.3181Z" fill="#767676"/>
<path d="M77.4438 20.5541C75.1002 20.5541 73.1924 18.6049 73.1924 16.2105C73.1924 14.0218 76.5833 8.7653 76.9714 8.17417L77.4475 7.44836L77.9235 8.17417C78.3117 8.7653 81.7026 14.0218 81.7026 16.2105C81.6953 18.6049 79.7874 20.5541 77.4438 20.5541ZM77.4438 9.56593C76.2757 11.4478 74.3312 14.8598 74.3312 16.2105C74.3312 17.9651 75.7264 19.3905 77.4438 19.3905C79.1576 19.3905 80.5564 17.9651 80.5564 16.2105C80.5564 14.8598 78.612 11.4478 77.4438 9.56593Z" fill="#767676"/>
</svg>
