<svg width="129" height="95" viewBox="0 0 129 95" fill="none" xmlns="http://www.w3.org/2000/svg">
<path d="M45.908 63.1977C45.8033 63.0603 45.606 63.0358 45.4715 63.1427C43.1065 65.0367 41.2499 66.4418 39.453 67.6912C39.3125 67.789 39.2736 67.9875 39.3723 68.1311C39.432 68.2227 39.5307 68.2686 39.6294 68.2686C39.6892 68.2686 39.752 68.2502 39.8028 68.2136C41.6116 66.955 43.4772 65.5437 45.8541 63.6407C45.9917 63.5368 46.0126 63.3352 45.908 63.1977Z" fill="#767676"/>
<path d="M36.3476 70.6934C36.4104 70.6934 36.4732 70.6751 36.53 70.6323L37.3582 70.0215C37.4958 69.9176 37.5287 69.7222 37.427 69.5786C37.3253 69.4351 37.131 69.4045 36.9934 69.5084L36.1652 70.1192C36.0277 70.223 35.9948 70.4185 36.0964 70.562C36.1562 70.6476 36.2519 70.6934 36.3476 70.6934Z" fill="#767676"/>
<path d="M55.4699 63.335L53.4009 66.6248C53.3082 66.7715 53.3501 66.97 53.4936 67.0647C53.5444 67.0983 53.6042 67.1166 53.661 67.1166C53.7627 67.1166 53.8643 67.0647 53.9212 66.97L55.9902 63.6802C56.0829 63.5336 56.041 63.335 55.8975 63.2403C55.757 63.1456 55.5626 63.1884 55.4699 63.335Z" fill="#767676"/>
<path d="M45.3826 78.6722C45.4783 78.6722 45.571 78.6264 45.6338 78.5409L52.7915 68.546C52.8931 68.4055 52.8632 68.207 52.7227 68.1031C52.5852 67.9992 52.3908 68.0298 52.2892 68.1734L45.1315 78.1682C45.0298 78.3087 45.0597 78.5073 45.2002 78.6111C45.254 78.6539 45.3198 78.6722 45.3826 78.6722Z" fill="#767676"/>
<path d="M61.3391 63.4113C60.6066 66.2368 59.7784 69.0868 58.9771 71.8421C57.9516 75.3732 56.8902 79.0235 56.0172 82.6677C55.9754 82.8388 56.077 83.0098 56.2445 83.0526C56.2684 83.0587 56.2953 83.0618 56.3192 83.0618C56.4597 83.0618 56.5853 82.964 56.6212 82.8204C57.4882 79.1915 58.5466 75.5474 59.5721 72.0254C60.3734 69.264 61.2045 66.4079 61.94 63.5762C61.9849 63.4082 61.8862 63.2341 61.7188 63.1883C61.5573 63.1425 61.3839 63.2433 61.3391 63.4113Z" fill="#767676"/>
<path d="M40.8394 75.4554C40.9232 75.4554 41.0039 75.4218 41.0667 75.3546L47.2826 68.6377C47.3992 68.5094 47.3962 68.3109 47.2706 68.1887C47.145 68.0696 46.9507 68.0757 46.8311 68.2009L40.6152 74.9178C40.4986 75.0461 40.5016 75.2447 40.6272 75.3669C40.687 75.428 40.7617 75.4554 40.8394 75.4554Z" fill="#767676"/>
<path d="M36.1854 63.0877L32.9444 64.7523C32.7919 64.8317 32.7291 65.0211 32.8069 65.1769C32.8607 65.2868 32.9713 65.3509 33.0849 65.3509C33.1328 65.3509 33.1806 65.3387 33.2254 65.3174L36.4664 63.6528C36.6189 63.5734 36.6817 63.384 36.6039 63.2282C36.5232 63.0725 36.3378 63.0083 36.1854 63.0877Z" fill="#767676"/>
<path d="M48.6138 66.9393L51.5587 63.6832C51.6753 63.5549 51.6664 63.3533 51.5408 63.2342C51.4152 63.115 51.2179 63.1242 51.1013 63.2525L48.1563 66.5086C48.0397 66.6369 48.0487 66.8385 48.1743 66.9576C48.2341 67.0126 48.3088 67.0432 48.3836 67.0432C48.4673 67.0401 48.551 67.0065 48.6138 66.9393Z" fill="#767676"/>
<path d="M59.0326 63.6528C59.1043 63.494 59.0356 63.3046 58.8771 63.2313C58.7216 63.161 58.5363 63.2283 58.4645 63.3901C57.448 65.678 56.3417 67.9721 55.2714 70.1897C53.6868 73.4765 52.0483 76.8732 50.6641 80.3279C50.5983 80.4898 50.676 80.6761 50.8345 80.7403C50.8733 80.7556 50.9122 80.7647 50.9511 80.7647C51.0736 80.7647 51.1903 80.6914 51.2381 80.5662C52.6134 77.1298 54.2488 73.7422 55.8275 70.4677C56.9038 68.247 58.0131 65.9468 59.0326 63.6528Z" fill="#767676"/>
<path d="M69.5839 84.1583C69.6048 84.3171 69.7394 84.4332 69.8919 84.4332C69.9038 84.4332 69.9188 84.4332 69.9337 84.4301C70.1042 84.4088 70.2237 84.2469 70.2028 84.0758C69.7693 80.6821 69.4583 77.212 69.1564 73.8579C68.8484 70.4153 68.5285 66.8566 68.074 63.3682C68.0501 63.1941 67.8976 63.075 67.7242 63.0964C67.5538 63.1208 67.4342 63.2796 67.4581 63.4538C67.9096 66.93 68.2295 70.4825 68.5375 73.919C68.8364 77.2792 69.1504 80.7523 69.5839 84.1583Z" fill="#767676"/>
<path d="M72.8549 72.0073C74.0329 75.6392 75.2498 79.3964 76.2544 83.1474C76.2932 83.2879 76.4158 83.3826 76.5534 83.3826C76.5803 83.3826 76.6072 83.3796 76.6341 83.3704C76.7985 83.3246 76.8972 83.1505 76.8523 82.9825C75.8448 79.2131 74.6249 75.4498 73.4439 71.8087C72.55 69.0504 71.6261 66.1974 70.8009 63.3689C70.7531 63.2009 70.5797 63.1062 70.4152 63.1551C70.2508 63.2039 70.1581 63.3811 70.2059 63.5491C71.0341 66.3868 71.961 69.2429 72.8549 72.0073Z" fill="#767676"/>
<path d="M83.9838 80.3986C84.0406 80.5024 84.1452 80.5605 84.2529 80.5605C84.3037 80.5605 84.3575 80.5483 84.4053 80.5208C84.5548 80.4352 84.6087 80.2397 84.522 80.09C83.4337 78.1228 82.3454 76.1129 81.293 74.167C79.3645 70.6022 77.3703 66.9182 75.2984 63.3565C75.2117 63.2068 75.0203 63.1579 74.8738 63.2465C74.7273 63.3351 74.6765 63.5306 74.7662 63.6803C76.8352 67.2329 78.8264 70.9138 80.7518 74.4725C81.8072 76.4153 82.8955 78.4283 83.9838 80.3986Z" fill="#767676"/>
<path d="M88.4913 67.7275C88.5511 67.7794 88.6228 67.8039 88.6946 67.8039C88.7813 67.8039 88.868 67.7672 88.9308 67.6939C89.0414 67.5595 89.0265 67.3609 88.8979 67.2479L84.165 63.1026C84.0364 62.9896 83.8391 63.0049 83.7284 63.1362C83.6178 63.2706 83.6328 63.4692 83.7613 63.5822L88.4913 67.7275Z" fill="#767676"/>
<path d="M93.1205 72.1689C93.1803 72.2269 93.2581 72.2544 93.3328 72.2544C93.4165 72.2544 93.4973 72.2208 93.56 72.1536C93.6766 72.0254 93.6707 71.8238 93.5451 71.7047L92.3013 70.5105C92.1758 70.3914 91.9784 70.3975 91.8618 70.5257C91.7452 70.654 91.7512 70.8556 91.8768 70.9747L93.1205 72.1689Z" fill="#767676"/>
<path d="M64.3789 63.1456C64.2115 63.1334 64.056 63.2556 64.0411 63.4328C63.6135 68.0117 63.171 72.9755 62.6448 79.0482C62.6298 79.2223 62.7554 79.3781 62.9258 79.3934C62.9348 79.3934 62.9438 79.3934 62.9527 79.3934C63.1112 79.3934 63.2487 79.2681 63.2607 79.1032C63.7839 73.0305 64.2264 68.0697 64.654 63.4908C64.6749 63.3197 64.5524 63.1639 64.3789 63.1456Z" fill="#767676"/>
<path d="M62.9388 79.5188C62.7744 79.5065 62.6159 79.6318 62.601 79.8059L62.2063 84.125C62.1913 84.2991 62.3169 84.4549 62.4873 84.4701C62.4963 84.4701 62.5083 84.4732 62.5172 84.4732C62.6757 84.4732 62.8103 84.351 62.8252 84.1861L63.2199 79.867C63.2348 79.6898 63.1092 79.534 62.9388 79.5188Z" fill="#767676"/>
<path d="M89.1976 77.0352C89.2663 77.0352 89.3351 77.0108 89.3919 76.9649C89.5264 76.855 89.5474 76.6564 89.4397 76.519C85.8968 71.9828 82.3897 67.5353 79.0142 63.2985C78.9066 63.1611 78.7092 63.1427 78.5777 63.2527C78.4461 63.3627 78.4252 63.5643 78.5328 63.6987C81.9054 67.9355 85.4124 72.3799 88.9524 76.9161C89.0182 76.9955 89.1079 77.0352 89.1976 77.0352Z" fill="#767676"/>
<path d="M93.224 65.275C93.3286 65.275 93.4273 65.2231 93.4871 65.1254C93.5768 64.9757 93.5349 64.7802 93.3884 64.6885L91.0175 63.1733C90.874 63.0816 90.6797 63.1244 90.59 63.2741C90.5003 63.4238 90.5421 63.6193 90.6886 63.7109L93.0596 65.2262C93.1104 65.2567 93.1672 65.275 93.224 65.275Z" fill="#767676"/>
<path d="M82.6619 34.2729C82.7217 34.3553 82.8144 34.3981 82.9071 34.3981C82.9728 34.3981 83.0386 34.3767 83.0954 34.334L92.1995 27.2075C92.337 27.1006 92.3609 26.902 92.2563 26.7615C92.1516 26.6241 91.9573 26.5966 91.8198 26.7035L82.7157 33.8299C82.5842 33.9338 82.5572 34.1354 82.6619 34.2729Z" fill="#767676"/>
<path d="M78.1462 27.8465C78.0027 27.7518 77.8114 27.7946 77.7157 27.9412L73.9575 33.919C73.8648 34.0656 73.9067 34.2611 74.0502 34.3588C74.101 34.3924 74.1608 34.4077 74.2176 34.4077C74.3193 34.4077 74.4209 34.3558 74.4778 34.2611L78.2359 28.2833C78.3316 28.1367 78.2898 27.9412 78.1462 27.8465Z" fill="#767676"/>
<path d="M86.006 16.3667L78.8483 26.3616C78.7466 26.5021 78.7765 26.7007 78.917 26.8045C78.9709 26.8473 79.0366 26.8656 79.0994 26.8656C79.1951 26.8656 79.2908 26.8198 79.3506 26.7343L86.5083 16.7394C86.6099 16.5989 86.58 16.4003 86.4395 16.2965C86.302 16.1957 86.1076 16.2262 86.006 16.3667Z" fill="#767676"/>
<path d="M75.6234 12.246C75.6653 12.075 75.5666 11.9039 75.4022 11.8581C75.2377 11.8153 75.0673 11.9161 75.0225 12.0841C74.5411 13.978 74.0329 15.8903 73.5156 17.7964C73.71 17.8789 73.8983 17.9766 74.0807 18.0897C74.6069 16.1438 75.1271 14.1858 75.6234 12.246Z" fill="#767676"/>
<path d="M69.1151 34.0227C69.0703 34.1907 69.1719 34.3648 69.3364 34.4107C69.3633 34.4168 69.3902 34.4198 69.4141 34.4198C69.5516 34.4198 69.6772 34.3251 69.7131 34.1816C69.9882 33.1033 70.2752 32.0189 70.5622 30.9346H69.9194C69.6473 31.967 69.3782 32.9964 69.1151 34.0227Z" fill="#767676"/>
<path d="M88.4905 22.7266L91.0229 19.9898C91.1395 19.8616 91.1365 19.663 91.0109 19.5409C90.8854 19.4217 90.691 19.4278 90.5714 19.5531L88.039 22.2898C87.9224 22.4181 87.9254 22.6166 88.051 22.7388C88.1108 22.7968 88.1885 22.8243 88.2633 22.8243C88.347 22.8274 88.4307 22.7938 88.4905 22.7266Z" fill="#767676"/>
<path d="M80.8018 14.1672C80.6434 14.1031 80.461 14.1825 80.3982 14.3444C80.1112 15.0867 79.7733 15.7984 79.4146 16.5529C79.1575 17.0966 78.8914 17.6587 78.6462 18.2299C78.5774 18.3918 78.6492 18.5781 78.8077 18.6484C78.8495 18.6667 78.8914 18.6759 78.9332 18.6759C79.0528 18.6759 79.1664 18.6056 79.2173 18.4865C79.4564 17.9275 79.7195 17.3716 79.9737 16.834C80.3205 16.1008 80.6792 15.3464 80.9752 14.5827C81.038 14.4177 80.9603 14.2314 80.8018 14.1672Z" fill="#767676"/>
<path d="M90.0935 34.2212C90.1473 34.3311 90.2579 34.3953 90.3715 34.3953C90.4193 34.3953 90.4672 34.3831 90.512 34.3617L97.9956 30.5192C98.1481 30.4397 98.2108 30.2504 98.1331 30.0946C98.0554 29.9388 97.87 29.8746 97.7175 29.9541L90.234 33.7966C90.0755 33.876 90.0157 34.0654 90.0935 34.2212Z" fill="#767676"/>
<path d="M77.6738 34.356C77.7335 34.414 77.8083 34.4415 77.883 34.4415C77.9668 34.4415 78.0505 34.4079 78.1103 34.3407L85.9705 25.6564C86.0871 25.5281 86.0782 25.3265 85.9526 25.2073C85.827 25.0882 85.6297 25.0974 85.5131 25.2256L77.6528 33.91C77.5392 34.0352 77.5482 34.2369 77.6738 34.356Z" fill="#767676"/>
<path d="M71.5456 33.989C71.4769 34.1509 71.5486 34.3372 71.7071 34.4075C71.7489 34.4258 71.7908 34.435 71.8327 34.435C71.9523 34.435 72.0659 34.3647 72.1167 34.2456C72.6609 32.9748 73.2379 31.7162 73.818 30.4698C73.5519 30.6104 73.2678 30.7234 72.9748 30.8028C72.4875 31.8537 72.0061 32.9167 71.5456 33.989Z" fill="#767676"/>
<path d="M78.4821 20.1149C78.5449 19.953 78.4671 19.7667 78.3086 19.7025C78.1502 19.6384 77.9678 19.7178 77.905 19.8797C77.4027 21.1717 76.8466 22.4668 76.2666 23.7527V25.2555C77.0499 23.5573 77.8123 21.8376 78.4821 20.1149Z" fill="#767676"/>
<path d="M62.0572 10.7554C62.0392 10.5813 61.8867 10.4592 61.7133 10.4744C61.5429 10.4928 61.4203 10.6516 61.4383 10.8257C61.6804 13.025 61.9047 15.2732 62.1229 17.4725H62.7478C62.5295 15.2549 62.3023 12.9792 62.0572 10.7554Z" fill="#767676"/>
<path d="M64.0283 34.1296C64.0522 34.2885 64.1838 34.3985 64.3363 34.3985C64.3512 34.3985 64.3662 34.3985 64.3841 34.3954C64.5545 34.371 64.6711 34.2091 64.6442 34.0349C64.4947 33.0116 64.3542 31.976 64.2197 30.9374H63.5918C63.7293 32.0066 63.8729 33.0727 64.0283 34.1296Z" fill="#767676"/>
<path d="M61.4514 34.0409C61.4932 34.1784 61.6158 34.2639 61.7474 34.2639C61.7773 34.2639 61.8072 34.2608 61.8401 34.2486C62.0045 34.1967 62.0972 34.0195 62.0464 33.8515L61.1674 30.9346H60.5186L61.4514 34.0409Z" fill="#767676"/>
<path d="M56.4625 16.7273C56.4924 16.7273 56.5223 16.7242 56.5552 16.712C56.7196 16.6601 56.8123 16.4829 56.7615 16.3149L55.3862 11.7513C55.3354 11.5833 55.165 11.4917 54.9976 11.5406C54.8331 11.5925 54.7404 11.7697 54.7913 11.9377L56.1665 16.5013C56.2084 16.6387 56.331 16.7273 56.4625 16.7273Z" fill="#767676"/>
<path d="M58.0284 34.2334C58.0852 34.3373 58.1899 34.3954 58.3005 34.3954C58.3513 34.3954 58.4022 34.3831 58.453 34.3556C58.6025 34.2701 58.6563 34.0776 58.5726 33.9249C58.0255 32.9199 57.4813 31.9241 56.9372 30.9374H56.2256C56.8206 32.0249 57.4215 33.1215 58.0284 34.2334Z" fill="#767676"/>
<path d="M51.6493 21.4623C50.2889 19.0643 48.9555 16.7426 47.6519 14.5065C47.5652 14.3568 47.3738 14.308 47.2273 14.3965C47.0808 14.4851 47.03 14.6807 47.1197 14.8303C48.5728 17.323 50.0647 19.9288 51.5895 22.6261V22.226C51.5895 21.9663 51.6134 21.7128 51.6493 21.4623Z" fill="#767676"/>
<path d="M42.7128 27.2168C42.6022 27.3513 42.6172 27.5498 42.7457 27.6628L50.3727 34.3435C50.4325 34.3954 50.5043 34.4198 50.576 34.4198C50.6627 34.4198 50.7494 34.3832 50.8122 34.3098C50.9228 34.1754 50.9079 33.9769 50.7793 33.8639L43.1523 27.1833C43.0208 27.0672 42.8234 27.0824 42.7128 27.2168Z" fill="#767676"/>
<path d="M37.0631 21.4221C36.9375 21.303 36.7402 21.3091 36.6236 21.4374C36.5069 21.5657 36.5129 21.7673 36.6385 21.8864L40.597 25.6835C40.6568 25.7416 40.7345 25.7691 40.8093 25.7691C40.893 25.7691 40.9737 25.7355 41.0365 25.6683C41.1531 25.54 41.1472 25.3383 41.0216 25.2192L37.0631 21.4221Z" fill="#767676"/>
<path d="M31.2003 31.756C31.0419 31.6858 30.8595 31.7591 30.7907 31.921C30.722 32.0829 30.7937 32.2692 30.9522 32.3395L35.6702 34.432C35.7091 34.4503 35.7509 34.4595 35.7928 34.4595C35.9124 34.4595 36.026 34.3892 36.0768 34.267C36.1456 34.1051 36.0738 33.9188 35.9154 33.8485L31.2003 31.756Z" fill="#767676"/>
<path d="M66.6574 34.0777C66.6335 34.2518 66.7501 34.4106 66.9205 34.4351C66.9354 34.4381 66.9504 34.4381 66.9653 34.4381C67.1178 34.4381 67.2494 34.3251 67.2733 34.1663C67.4228 33.0911 67.5394 32.0128 67.641 30.9346H67.0162C66.9175 31.9853 66.8009 33.0361 66.6574 34.0777Z" fill="#767676"/>
<path d="M69.1556 10.4411C68.9912 10.4289 68.8327 10.5541 68.8178 10.7282L68.4231 15.047C68.4081 15.2211 68.5337 15.3769 68.7041 15.3921C68.7131 15.3921 68.7251 15.3921 68.734 15.3921C68.8925 15.3921 69.027 15.27 69.042 15.105L69.4367 10.7863C69.4516 10.6122 69.326 10.4564 69.1556 10.4411Z" fill="#767676"/>
<path d="M42.2457 17.4238L41.9437 17.0389C41.8361 16.9014 41.6417 16.88 41.5072 16.99C41.3726 17.1 41.3517 17.2985 41.4593 17.436L41.7613 17.8209C42.2546 18.4471 42.7659 19.0947 43.2742 19.7117C43.3369 19.785 43.4236 19.8247 43.5133 19.8247C43.5851 19.8247 43.6539 19.8003 43.7137 19.7514C43.8452 19.6384 43.8632 19.4399 43.7525 19.3054C43.2473 18.6915 42.739 18.0469 42.2457 17.4238Z" fill="#767676"/>
<path d="M54.9326 34.3185C54.9954 34.3918 55.0821 34.4315 55.1718 34.4315C55.2436 34.4315 55.3123 34.4071 55.3721 34.3582C55.5037 34.2452 55.5216 34.0467 55.411 33.9123C52.9533 30.9218 50.4748 27.7817 48.0769 24.7454L46.6507 22.9401C46.5431 22.8027 46.3488 22.7813 46.2142 22.8913C46.0797 23.0012 46.0587 23.1998 46.1664 23.3372L47.5925 25.1425C49.9904 28.1788 52.469 31.322 54.9326 34.3185Z" fill="#767676"/>
<path d="M38.1515 29.786C38.0618 29.9356 38.1037 30.1311 38.2502 30.2227L44.7919 34.3979C44.8427 34.4315 44.8995 34.4468 44.9563 34.4468C45.061 34.4468 45.1596 34.3948 45.2194 34.2971C45.3091 34.1474 45.2673 33.952 45.1208 33.8603L38.582 29.6852C38.4355 29.5936 38.2442 29.6363 38.1515 29.786Z" fill="#767676"/>
<path d="M5.4013 43.5042C5.46109 43.2568 5.73615 42.8811 6.3102 42.5909C6.95899 42.1938 7.87089 41.9739 8.87248 41.9739C9.11765 41.9739 9.36581 41.9861 9.60799 42.0136C11.4557 42.1816 12.7802 43.0552 13.2197 43.7822L13.2705 43.8555L17.4652 41.0361L17.4443 41.0055C16.0152 38.7542 13.2615 37.2269 10.0834 36.9184C9.69767 36.8879 9.29705 36.8573 8.90239 36.8573C7.09056 36.8573 5.3684 37.2819 3.92133 38.0822C1.89123 39.1941 0.611586 41.0147 0.405288 43.0735C0.0195998 47.2279 3.34728 50.3864 8.68412 50.9362C10.2089 51.089 11.3122 51.4525 11.9819 52.0329C12.4663 52.5277 12.4663 52.9951 12.4393 53.1936C12.4154 53.5083 12.0537 53.9115 11.5424 54.1894C10.8637 54.5621 9.9578 54.7698 8.99507 54.7698C8.74991 54.7698 8.49875 54.7576 8.25658 54.7301C6.43876 54.5652 5.09036 53.6946 4.60302 52.9431L4.5761 52.8973L0.375397 55.674L0.420251 55.7382C1.84939 57.9894 4.603 59.5168 7.78418 59.8253C8.15193 59.8558 8.54659 59.8864 8.96217 59.8864C10.7381 59.8864 12.4962 59.4618 13.9074 58.6951C15.9674 57.5343 17.25 55.7168 17.4264 53.7007C17.8121 49.4425 14.5741 46.3573 9.17745 45.838C7.81708 45.6853 5.27572 45.0163 5.39531 43.5531L5.3983 43.5287L5.4013 43.5042ZM4.67776 46.3603C5.68234 47.1943 7.17427 47.7288 8.99208 47.9091C12.3048 48.239 15.7312 49.8732 15.3993 53.4746C15.2707 54.7973 14.4067 55.9917 12.9626 56.8348C11.8563 57.4488 10.4362 57.7848 8.96517 57.7848C8.62432 57.7848 8.30143 57.7848 7.97853 57.7512C6.43876 57.5862 4.99767 57.0883 3.92432 56.346L3.55658 56.0925L4.36681 55.5396L4.53126 55.6465C5.48203 56.2666 6.74074 56.6729 8.0742 56.7981C8.34927 56.8287 8.64227 56.8592 8.96816 56.8592C10.2538 56.8592 11.5215 56.5568 12.5201 56.0161C13.707 55.3197 14.3917 54.4063 14.4993 53.3861C14.586 52.3689 14.1794 51.3211 13.3901 50.5147C12.4334 49.5983 10.9564 49.0454 8.87847 48.8316C6.47465 48.6086 4.47445 47.7136 3.38616 46.3787C2.6686 45.4959 2.36064 44.4512 2.46828 43.2751C2.56694 41.9494 3.45492 40.7337 4.902 39.9425C6.00824 39.298 7.39252 38.9559 8.90836 38.9559C9.2492 38.9559 9.57211 38.9558 9.89502 38.9894C11.4019 39.1544 12.84 39.6523 13.9462 40.3946L14.3439 40.6604L13.4708 41.198L13.3154 41.0972C12.3556 40.4862 11.1089 40.0647 9.80231 39.912C9.50931 39.8814 9.21631 39.8814 8.90536 39.8814C7.50314 39.8814 6.27731 40.1838 5.3385 40.7611C4.15453 41.3812 3.45493 42.3007 3.37121 43.3546C3.25461 44.5184 3.70906 45.557 4.67776 46.3603Z" fill="#767676"/>
<path d="M25.6131 59.8832H30.7527V42.1387H36.3049V36.8541H20.0879V42.1387H25.6102V59.8832H25.6131ZM22.1778 39.976V39.0504H34.1911V39.976H28.6389V57.7205H27.733V39.976H22.1778Z" fill="#767676"/>
<path d="M42.5039 52.9797H51.3569L47.1143 41.036L42.5039 52.9797ZM44.4922 51.5746L47.0784 44.9521L49.4015 51.5746H44.4922Z" fill="#767676"/>
<path d="M48.8277 36.8541H45.4791L36.6143 59.8832H42.1125L43.5925 56.068H50.2388L51.5663 59.8832H57.0377L48.8277 36.8541ZM51.6979 53.9052H42.1454L40.6655 57.7205H39.6818L46.9202 38.9863H47.3626L54.027 57.7205H53.0523L51.6979 53.9052Z" fill="#767676"/>
<path d="M67.5007 59.8832V42.1387H73.0528V36.8541H56.8359V42.1387H62.3581V59.8832H67.5007ZM58.9228 39.976V39.0504H70.936V39.976H65.3839V57.7205H64.4779V39.976H58.9228Z" fill="#767676"/>
<path d="M75.9932 59.8832H81.1028V36.8541H75.9932V59.8832ZM78.0801 38.9863H79.0159V57.7541H78.0801V38.9863Z" fill="#767676"/>
<path d="M106.498 48.3369C106.498 41.9864 101.427 36.8241 95.1965 36.8241C88.9806 36.8241 83.9248 41.9894 83.9248 48.3369C83.9248 54.7027 88.9806 59.8833 95.1965 59.8833C101.427 59.8833 106.498 54.7057 106.498 48.3369ZM86.0117 48.3369C86.0117 43.1624 90.1317 38.9531 95.1965 38.9531C100.276 38.9531 104.411 43.1624 104.411 48.3369C104.411 53.5297 100.276 57.7511 95.1965 57.7511C90.1317 57.7511 86.0117 53.5297 86.0117 48.3369Z" fill="#767676"/>
<path d="M103.533 48.3366C103.533 43.6569 99.7929 39.8478 95.1945 39.8478C90.6141 39.8478 86.8857 43.6569 86.8857 48.3366C86.8857 53.0346 90.6141 56.8559 95.1945 56.8559C99.7929 56.8589 103.533 53.0346 103.533 48.3366ZM95.1945 55.4813C91.3556 55.4813 88.2312 52.277 88.2312 48.3366C88.2312 44.4144 91.3556 41.2224 95.1945 41.2224C99.0514 41.2224 102.188 44.4144 102.188 48.3366C102.188 52.277 99.0514 55.4813 95.1945 55.4813Z" fill="#767676"/>
<path d="M123.475 36.8241V49.3785L114.233 36.8241H109.961V59.8833H115.1V46.7638L124.802 59.8833H128.644V36.8241H123.475ZM126.501 57.6901H125.837L113.02 40.3308V57.6901H112.084V38.9867H113.181L125.598 55.8115V38.9867H126.504V57.6901H126.501Z" fill="#767676"/>
<path d="M27.8606 66.4174L27.6543 65.9775C27.6125 65.8889 27.5138 65.8522 27.4271 65.895L25.9621 66.6159L25.6212 65.8919L27.0863 65.171C27.173 65.1283 27.2059 65.0275 27.167 64.9389L26.9607 64.499C26.9188 64.4104 26.8202 64.3738 26.7334 64.4165L22.733 66.3868C22.6462 66.4296 22.6104 66.5304 22.6522 66.619L22.8585 67.0588C22.9004 67.1474 22.9991 67.1841 23.0858 67.1413L24.9246 66.2371L25.2654 66.9611L23.4266 67.8653C23.3399 67.908 23.307 68.0088 23.3459 68.0974L23.5522 68.5373C23.5911 68.6198 23.6927 68.6625 23.7794 68.6198L27.7799 66.6495C27.8666 66.6067 27.8965 66.4968 27.8606 66.4174Z" fill="#767676"/>
<path d="M28.6556 67.9017L28.4224 67.474C28.3745 67.3884 28.2669 67.361 28.1832 67.4098L24.3113 69.6154C24.2275 69.6643 24.1977 69.7682 24.2455 69.8537L24.4787 70.2814C24.5265 70.3669 24.6282 70.3975 24.7119 70.3486L28.5838 68.143C28.6676 68.0941 28.7005 67.9872 28.6556 67.9017Z" fill="#767676"/>
<path d="M28.7964 71.9827C28.8772 71.9308 28.9011 71.8239 28.8473 71.7414L28.339 70.9289C28.2882 70.8464 28.1835 70.8219 28.1028 70.8769L27.747 71.1091C27.6663 71.161 27.6364 71.271 27.6902 71.3535L27.8487 71.607L26.7992 72.2912C26.7185 72.3432 26.6109 72.3157 26.5601 72.2332L26.285 71.7933C26.2372 71.717 26.2551 71.6039 26.3358 71.552L28.7546 69.9758C28.8293 69.9269 28.9429 69.9514 28.9908 70.0277L29.2658 70.4676C29.3167 70.5501 29.2927 70.6661 29.218 70.715L28.9878 70.8647C28.9071 70.9166 28.8831 71.0235 28.9369 71.106L29.1941 71.5184C29.2449 71.6009 29.3495 71.6253 29.4303 71.5703L29.7233 71.3779C30.1329 71.1121 30.2465 70.5562 29.9894 70.1438L29.5857 69.4962C29.3256 69.0777 28.7875 68.9586 28.3779 69.2244L25.8216 70.8922C25.418 71.1549 25.2984 71.7139 25.5555 72.1263L25.9591 72.7739C26.2162 73.1862 26.7634 73.3084 27.167 73.0457L28.7964 71.9827Z" fill="#767676"/>
<path d="M32.2312 73.3452L31.9442 72.9542C31.8874 72.8748 31.7827 72.8626 31.705 72.9206L30.4074 73.9224L29.935 73.281L31.2326 72.2792C31.3074 72.2212 31.3223 72.1142 31.2655 72.0348L30.9785 71.6439C30.9217 71.5645 30.817 71.5522 30.7393 71.6103L27.1934 74.3439C27.1186 74.402 27.1037 74.5089 27.1605 74.5883L27.4475 74.9793C27.5043 75.0587 27.6089 75.074 27.6867 75.0129L29.3161 73.7575L29.7885 74.3989L28.1591 75.6574C28.0813 75.7154 28.0694 75.8253 28.1262 75.9017L28.4132 76.2927C28.467 76.366 28.5747 76.3874 28.6524 76.3263L32.1983 73.5926C32.2761 73.5315 32.285 73.4185 32.2312 73.3452Z" fill="#767676"/>
<path d="M33.4006 79.7205L35.0898 78.0434C35.4725 77.6646 35.4815 77.0415 35.1107 76.6505L34.7101 76.2289C34.3394 75.8379 33.7294 75.8287 33.3467 76.2075L31.2927 78.245C30.916 78.6208 30.907 79.2409 31.2778 79.6319L32.2196 80.6216C32.2854 80.6919 32.396 80.698 32.4647 80.6308L32.7847 80.3162C32.8534 80.249 32.8504 80.1359 32.7936 80.0748L32.6023 79.8732C32.8684 79.9832 33.1853 79.9343 33.4006 79.7205ZM32.3422 79.6013L31.8668 79.1004C31.801 79.0301 31.801 78.911 31.8638 78.8499L33.9178 76.8124C33.9866 76.7452 34.1032 76.7452 34.1689 76.8154L34.5217 77.1851C34.5875 77.2553 34.5875 77.3744 34.5188 77.4416L32.3422 79.6013Z" fill="#767676"/>
<path d="M38.1067 79.4879L37.748 79.1641C37.6762 79.0999 37.5656 79.1121 37.5028 79.1855L35.096 81.9867C35.0332 82.06 34.9226 82.063 34.8508 81.9989L34.4711 81.6568C34.3994 81.5926 34.3874 81.4796 34.4502 81.4063L36.857 78.6081C36.9198 78.5348 36.9168 78.4218 36.845 78.3576L36.4862 78.0338C36.4145 77.9697 36.3039 77.9819 36.2411 78.0552L33.7805 80.9175C33.4636 81.2841 33.4994 81.8553 33.8612 82.1791L34.4263 82.6862C34.7851 83.01 35.3442 82.9703 35.6611 82.6037L38.1217 79.7414C38.1785 79.6651 38.1785 79.552 38.1067 79.4879Z" fill="#767676"/>
<path d="M40.1817 81.1313L39.3625 80.502C39.2907 80.447 39.195 80.4531 39.1293 80.5173L36.3936 83.2361C36.3637 83.2666 36.3517 83.2819 36.3338 83.3033L35.972 83.7951C35.9152 83.8745 35.9301 83.9814 36.0049 84.0395L36.3876 84.3327C36.4653 84.3908 36.57 84.3755 36.6268 84.2991L37.0005 83.792L37.733 84.3541L37.3593 84.8612C37.3025 84.9406 37.3174 85.0475 37.3892 85.1025L37.7779 85.3988C37.8556 85.4569 37.9603 85.4416 38.0171 85.3652L38.3788 84.8734C38.3968 84.852 38.4087 84.8337 38.4267 84.7971L40.2265 81.3604C40.2624 81.2901 40.2534 81.1863 40.1817 81.1313ZM38.1247 83.6637L37.5447 83.2177L39.2817 81.4704L38.1247 83.6637Z" fill="#767676"/>
<path d="M40.6563 86.3974L39.855 85.8628L41.9449 82.5793C41.9957 82.4968 41.9748 82.3899 41.8941 82.338L41.4934 82.0722C41.4127 82.0203 41.3081 82.0417 41.2572 82.1241L38.8355 85.93C38.7817 86.0125 38.8056 86.1194 38.8863 86.1714L40.2317 87.0663C40.3125 87.1182 40.4171 87.0969 40.4679 87.0144L40.7071 86.6387C40.758 86.5562 40.737 86.4493 40.6563 86.3974Z" fill="#767676"/>
<path d="M44.1379 83.7491L43.7253 83.5048C43.6416 83.4559 43.537 83.4895 43.4891 83.575L41.2677 87.4939C41.2199 87.5795 41.2468 87.6833 41.3305 87.7322L41.7431 87.9765C41.8268 88.0254 41.9285 87.9979 41.9763 87.9124L44.1977 83.9935C44.2426 83.908 44.2186 83.798 44.1379 83.7491Z" fill="#767676"/>
<path d="M46.6739 85.8328L46.8772 85.4235C46.919 85.3349 46.8802 85.2311 46.8024 85.1883L45.0295 84.2689C44.9457 84.2231 44.8441 84.2597 44.7993 84.3453L44.596 84.7546C44.5541 84.8432 44.587 84.944 44.6707 84.9898L45.1879 85.2586L43.4598 88.7377C43.415 88.8232 43.4568 88.9302 43.5345 88.9729L43.9621 89.1929C44.0488 89.2356 44.1475 89.202 44.1923 89.1165L45.9204 85.6373L46.4437 85.9092C46.5244 85.9489 46.632 85.9184 46.6739 85.8328Z" fill="#767676"/>
<path d="M49.4978 87.3232L49.7609 86.6848C49.7968 86.5962 49.7579 86.4954 49.6683 86.4557L49.2287 86.2663C49.1391 86.2296 49.0434 86.2693 49.0045 86.361L48.8042 86.8497C48.7832 86.9016 48.7504 86.9475 48.7115 86.9841L47.9012 87.7111L47.8414 86.6115C47.8355 86.5565 47.8444 86.4984 47.8654 86.4465L48.0657 85.9577C48.1016 85.8661 48.0627 85.7683 47.973 85.7286L47.5305 85.5392C47.4408 85.5026 47.3451 85.5423 47.3062 85.6309L47.0431 86.2693C47.0132 86.3396 47.0043 86.419 47.0013 86.4954L47.1179 88.5207L46.4332 90.1824C46.3973 90.2741 46.4362 90.3718 46.5259 90.4115L46.9654 90.6009C47.0551 90.6376 47.1508 90.5979 47.1896 90.5062L47.8713 88.8445L49.3633 87.5095C49.4261 87.4576 49.4679 87.3935 49.4978 87.3232Z" fill="#767676"/>
<path d="M49.6917 90.7932L49.2611 90.6374C49.1714 90.6038 49.0787 90.6465 49.0458 90.7382L48.8904 91.1842C48.8575 91.2759 48.9053 91.3675 48.998 91.4011L49.1206 91.447L48.989 91.5753C48.9591 91.6028 48.9322 91.6364 48.9173 91.6761L48.8754 91.8013C48.8575 91.8533 48.8874 91.9174 48.9322 91.9327L49.1505 92.0121C49.1953 92.0274 49.2551 91.9999 49.2761 91.9449L49.288 91.9113C49.3 91.8777 49.3299 91.8533 49.3418 91.841L49.5392 91.6455C49.5631 91.618 49.581 91.5875 49.593 91.5539L49.7843 91.0009C49.8112 90.9093 49.7694 90.8207 49.6917 90.7932Z" fill="#767676"/>
<path d="M54.4639 92.2138L53.5371 91.9786L54.4639 88.1786C54.4878 88.0839 54.431 87.9892 54.3383 87.9679L53.8749 87.8487C53.7822 87.8243 53.6925 87.8823 53.6686 87.977L52.5953 92.3818C52.5714 92.4765 52.6282 92.5681 52.7209 92.5925L54.2785 92.9896C54.3712 93.0141 54.4609 92.956 54.4848 92.8613L54.5895 92.4276C54.6104 92.3298 54.5566 92.2382 54.4639 92.2138Z" fill="#767676"/>
<path d="M57.8285 88.7161L57.0901 88.5847C56.6117 88.4992 56.1602 88.8321 56.0765 89.3178L55.5593 92.3634C55.4756 92.8522 55.7925 93.3104 56.2709 93.3959L57.0093 93.5273C57.4817 93.6097 57.9362 93.289 58.0199 92.8002L58.5371 89.7547C58.6208 89.2659 58.2979 88.7985 57.8285 88.7161ZM57.2276 92.5681C57.2127 92.6658 57.117 92.733 57.0213 92.7147L56.522 92.6261C56.4263 92.6108 56.3606 92.5131 56.3785 92.4153L56.8688 89.5286C56.8868 89.4309 56.9795 89.3789 57.0721 89.3942L57.5714 89.4828C57.6671 89.4981 57.7359 89.5836 57.7179 89.6783L57.2276 92.5681Z" fill="#767676"/>
<path d="M62.7913 89.2657L62.1934 89.2138C62.1306 89.2077 62.0797 89.2535 62.0768 89.3146L62.0289 89.9195C62.0259 89.9683 62.0229 89.9958 62.011 90.0508L61.6701 91.8012L61.4728 89.2505C61.4638 89.1924 61.419 89.1466 61.3652 89.1435L60.8479 89.1008C60.7941 89.0946 60.7433 89.1344 60.7313 89.1894L60.1274 91.6729L60.0646 89.8889C60.0616 89.8339 60.0646 89.8064 60.0676 89.7575L60.1154 89.1527C60.1214 89.0916 60.0765 89.0366 60.0167 89.0336L59.4188 88.9816C59.359 88.9755 59.3052 89.0213 59.3022 89.0824L59.2484 89.7514C59.2454 89.785 59.2424 89.8278 59.2454 89.892L59.4696 93.735C59.4756 93.8266 59.5384 93.8938 59.6281 93.903L60.1603 93.9488C60.241 93.9549 60.3217 93.8999 60.3367 93.8083L60.9645 90.955L61.126 93.8755C61.132 93.9671 61.1947 94.0343 61.2844 94.0435L61.8077 94.0893C61.8974 94.0954 61.9691 94.0404 61.9901 93.9518L62.8272 90.1974C62.8392 90.1363 62.8422 90.0936 62.8451 90.06L62.899 89.391C62.896 89.3238 62.8511 89.2718 62.7913 89.2657Z" fill="#767676"/>
<path d="M66.7157 89.2078L65.5407 89.2658C65.445 89.272 65.3733 89.3514 65.3793 89.4491L65.5975 93.9821C65.6035 94.0799 65.6812 94.1532 65.7769 94.147L66.2553 94.1226C66.351 94.1165 66.4227 94.0371 66.4167 93.9393L66.3181 91.9111L66.8443 91.8836C67.4393 91.8531 67.9057 91.3277 67.8758 90.7137L67.8549 90.2677C67.825 89.6538 67.3077 89.1773 66.7157 89.2078ZM66.8024 91.0406L66.2762 91.068L66.2254 90.0356L66.7516 90.0081C66.9011 90.002 67.0237 90.1211 67.0297 90.2739L67.0536 90.7534C67.0625 90.9031 66.9519 91.0314 66.8024 91.0406Z" fill="#767676"/>
<path d="M71.2752 92.5372L70.5218 91.4499C70.8955 91.233 71.1317 90.7963 71.0719 90.3259L71.0181 89.8891C70.9434 89.2783 70.4022 88.8415 69.8042 88.9178L68.6322 89.0675C68.5425 89.0797 68.4708 89.1653 68.4828 89.263L69.0299 93.7651C69.0418 93.8628 69.1315 93.927 69.2212 93.9178L69.6966 93.8567C69.7923 93.8445 69.8581 93.759 69.8461 93.6612L69.589 91.5629L70.4829 92.8427C70.5278 92.9221 70.5487 92.9954 70.5577 93.0717L70.6175 93.5574C70.6294 93.6551 70.7191 93.7193 70.8148 93.7071L71.2902 93.646C71.3859 93.6337 71.4427 93.5482 71.4307 93.4535L71.347 92.7602C71.341 92.6839 71.3171 92.6014 71.2752 92.5372ZM70.0315 90.7474L69.5023 90.8146L69.3767 89.7822L69.9059 89.715C70.0494 89.6967 70.1839 89.7975 70.2019 89.9502L70.2587 90.4297C70.2796 90.5886 70.175 90.7291 70.0315 90.7474Z" fill="#767676"/>
<path d="M72.2214 88.5268L71.752 88.6154C71.6593 88.6338 71.5995 88.7285 71.6174 88.8262L72.4188 93.283C72.4367 93.3808 72.5234 93.4419 72.6191 93.4235L73.0886 93.335C73.1813 93.3166 73.244 93.228 73.2261 93.1333L72.4248 88.6765C72.4068 88.5788 72.3171 88.5085 72.2214 88.5268Z" fill="#767676"/>
<path d="M76.2313 90.4726C76.2074 90.3779 76.1147 90.3138 76.022 90.3382L75.5586 90.4543C75.4659 90.4787 75.4121 90.5764 75.436 90.6711L75.6902 91.7372C75.7141 91.8319 75.6513 91.9266 75.5646 91.948L75.0653 92.0732C74.9726 92.0976 74.8739 92.0426 74.853 91.948L74.1713 89.1011C74.1474 89.0064 74.2102 88.9117 74.3029 88.8872L74.8022 88.762C74.8889 88.7406 74.9845 88.7956 75.0085 88.8903L75.1699 89.5623C75.1938 89.657 75.2865 89.7211 75.3792 89.6967L75.8426 89.5806C75.9353 89.5562 75.9891 89.4585 75.9652 89.3638L75.7858 88.6184C75.6692 88.1358 75.1998 87.8456 74.7274 87.9617L73.9979 88.145C73.5255 88.2641 73.2415 88.7437 73.3551 89.2263L74.0756 92.2381C74.1892 92.7116 74.6676 93.011 75.134 92.8949L75.8636 92.7116C76.336 92.5925 76.62 92.1068 76.5064 91.6303L76.2313 90.4726Z" fill="#767676"/>
<path d="M79.4211 90.9825C79.3912 90.8909 79.2985 90.8389 79.2058 90.8695L78.3029 91.1658L77.8634 89.7637L78.4344 89.5743C78.5241 89.5438 78.5749 89.4491 78.545 89.3544L78.4165 88.942C78.3866 88.8504 78.2939 88.7985 78.2012 88.829L77.6302 89.0153L77.3192 88.0256L78.2221 87.7293C78.3118 87.6988 78.3627 87.6041 78.3328 87.5094L78.1982 87.0848C78.1683 86.9932 78.0756 86.9412 77.983 86.9718L76.4552 87.4728C76.3655 87.5033 76.3146 87.598 76.3445 87.6927L77.7019 92.0119C77.7318 92.1035 77.8245 92.1555 77.9172 92.1249L79.445 91.624C79.5347 91.5934 79.5855 91.4987 79.5556 91.404L79.4211 90.9825Z" fill="#767676"/>
<path d="M81.2799 90.9884C81.2799 90.9518 81.274 90.9151 81.262 90.8846L81.0587 90.3379C81.0258 90.2463 80.9361 90.2065 80.8613 90.2371L80.4337 90.402C80.344 90.4356 80.2992 90.5303 80.3321 90.6219L80.4965 91.0648C80.5294 91.1564 80.6251 91.1931 80.7148 91.1595L80.8374 91.1137L80.8195 91.3C80.8135 91.3397 80.8135 91.3824 80.8284 91.4221L80.8733 91.5474C80.8912 91.5993 80.954 91.6268 80.9989 91.6115L81.2172 91.526C81.262 91.5076 81.2889 91.4466 81.271 91.3946L81.259 91.361C81.247 91.3275 81.253 91.2878 81.256 91.2725L81.2799 90.9884Z" fill="#767676"/>
<path d="M85.6003 86.7793C85.4717 86.5166 85.2564 86.3303 85.0023 86.2356C85.0352 86.0218 84.9993 85.808 84.8976 85.6033L84.6973 85.197C84.4282 84.6472 83.7735 84.4212 83.2353 84.6991L82.1739 85.2459C82.0872 85.2887 82.0543 85.3925 82.0991 85.4811L84.0964 89.5346C84.1382 89.6232 84.2399 89.6568 84.3266 89.611L85.4866 89.0153C86.0248 88.7404 86.2371 88.0684 85.965 87.5185L85.6003 86.7793ZM83.1067 85.6614L83.5881 85.4139C83.7166 85.3467 83.8811 85.4048 83.9498 85.5392L84.1621 85.9699C84.2279 86.1012 84.1711 86.2692 84.0425 86.3364L83.5612 86.5838L83.1067 85.6614ZM85.1279 88.2883L84.5478 88.5877L83.908 87.2894L84.488 86.9901C84.6166 86.9229 84.781 86.9809 84.8498 87.1184L85.2385 87.9095C85.3103 88.0531 85.2564 88.2211 85.1279 88.2883Z" fill="#767676"/>
<path d="M88.7616 86.4069C88.7137 86.3244 88.6091 86.2969 88.5284 86.3458L87.7151 86.8437L86.9737 85.579L87.4909 85.2644C87.5716 85.2155 87.5985 85.1086 87.5507 85.0261L87.3325 84.6534C87.2816 84.5709 87.18 84.5435 87.0993 84.5923L86.582 84.907L86.0588 84.015L86.875 83.5171C86.9558 83.4682 86.9827 83.3613 86.9348 83.2788L86.7106 82.8969C86.6628 82.8145 86.5581 82.787 86.4774 82.8359L85.0991 83.679C85.0184 83.7278 84.9915 83.8348 85.0393 83.9172L87.3205 87.809C87.3683 87.8915 87.473 87.919 87.5537 87.8701L88.932 87.027C89.0127 86.9781 89.0396 86.8712 88.9918 86.7887L88.7616 86.4069Z" fill="#767676"/>
<path d="M90.868 83.2998C90.5181 82.7897 89.8424 82.6705 89.3461 83.0249L89.089 83.2082C88.9634 83.2907 88.796 83.2662 88.7093 83.141L88.4701 82.7927C88.3834 82.6675 88.4192 82.4964 88.5418 82.4109L88.7989 82.2276C88.9215 82.139 89.089 82.1634 89.1757 82.2917L89.2594 82.4109C89.3132 82.4903 89.4179 82.5086 89.4986 82.4537L89.8903 82.1726C89.968 82.1176 89.9859 82.0107 89.9321 81.9282L89.8664 81.8305C89.5225 81.3264 88.8408 81.2012 88.3445 81.5555L88.0873 81.7388C87.594 82.0901 87.4744 82.7927 87.8182 83.2937L88.0425 83.6206C88.3863 84.1246 89.065 84.2346 89.5614 83.8894L89.8185 83.7061C89.9411 83.6175 90.1085 83.645 90.1952 83.7703L90.7035 84.5126C90.7902 84.6379 90.7603 84.812 90.6378 84.9006L90.3806 85.0839C90.258 85.1725 90.0876 85.1419 90.0009 85.0166L89.66 84.5187C89.6062 84.4393 89.5016 84.421 89.4209 84.476L89.0292 84.757C88.9514 84.812 88.9335 84.9189 88.9873 85.0014L89.3102 85.4688C89.6541 85.9728 90.3417 86.095 90.8321 85.7437L91.0892 85.5604C91.5826 85.2091 91.7022 84.5065 91.3583 84.0055L90.868 83.2998Z" fill="#767676"/>
<path d="M91.3997 80.1784L91.8541 79.7996C91.9229 79.7415 91.9378 79.6285 91.878 79.5552L91.594 79.1978C91.5342 79.1214 91.4236 79.1153 91.3548 79.1734L89.8151 80.4563C89.7404 80.5174 89.7314 80.6274 89.7912 80.7007L90.0752 81.0581C90.135 81.1345 90.2426 81.1437 90.3144 81.0826L90.7629 80.7068L93.1756 83.728C93.2354 83.8043 93.346 83.8104 93.4148 83.7524L93.7855 83.4439C93.8602 83.3828 93.8692 83.2728 93.8094 83.1995L91.3997 80.1784Z" fill="#767676"/>
<path d="M96.9799 77.5115C96.9111 77.4443 96.8005 77.4412 96.7347 77.5115L96.4028 77.8628C96.3371 77.933 96.3431 78.0461 96.4118 78.1133L97.1832 78.877C97.2519 78.9442 97.2489 79.0602 97.1862 79.1244L96.8304 79.5001C96.7646 79.5704 96.654 79.5765 96.5852 79.5093L94.5223 77.4687C94.4535 77.4015 94.4565 77.2855 94.5223 77.2183L94.8781 76.8425C94.9409 76.7784 95.0515 76.7692 95.1202 76.8395L95.6076 77.3191C95.6763 77.3863 95.787 77.3893 95.8527 77.3191L96.1846 76.9678C96.2504 76.8975 96.2444 76.7845 96.1756 76.7173L95.6345 76.1827C95.2847 75.8375 94.7345 75.8467 94.3967 76.2041L93.8735 76.757C93.5357 77.1144 93.5446 77.6765 93.8944 78.0216L96.074 80.1783C96.4178 80.5173 96.9769 80.5082 97.3117 80.1569L97.8349 79.604C98.1728 79.2466 98.1578 78.6814 97.814 78.3393L96.9799 77.5115Z" fill="#767676"/>
<path d="M97.1646 73.2109C97.0899 73.1498 96.9822 73.1651 96.9254 73.2353L96.6204 73.6111C96.5606 73.6874 96.5696 73.7943 96.6444 73.8585L97.8971 74.9185L97.3948 75.5355L96.1421 74.4755C96.0673 74.4144 95.9627 74.4236 95.8999 74.5L95.5949 74.8757C95.5351 74.9521 95.5441 75.059 95.6188 75.1201L99.0393 78.0129C99.114 78.074 99.2187 78.0648 99.2815 77.9884L99.5864 77.6127C99.6462 77.5363 99.6373 77.4294 99.5625 77.3683L97.9898 76.0365L98.4921 75.4194L100.065 76.7513C100.14 76.8124 100.244 76.8032 100.304 76.7268L100.609 76.3511C100.666 76.2808 100.66 76.1678 100.585 76.1067L97.1646 73.2109Z" fill="#767676"/>
<path d="M102.149 72.6487L99.6556 70.8954C99.255 70.6144 98.7049 70.7182 98.4328 71.1214L98.0052 71.7537C97.7302 72.1631 97.8348 72.719 98.2355 73L100.729 74.7534C101.13 75.0344 101.671 74.9336 101.946 74.5243L102.373 73.892C102.645 73.4888 102.55 72.9298 102.149 72.6487ZM101.656 73.5376L101.369 73.9622C101.315 74.0416 101.201 74.063 101.121 74.008L98.7557 72.3463C98.6779 72.2914 98.666 72.1814 98.7198 72.102L99.0068 71.6774C99.0607 71.598 99.1653 71.5674 99.243 71.6224L101.608 73.2841C101.692 73.3421 101.713 73.4582 101.656 73.5376Z" fill="#767676"/>
<path d="M103.752 71.4083L99.9822 69.0224C99.9015 68.9705 99.7909 68.9919 99.74 69.0744L99.4889 69.4898C99.4381 69.5723 99.468 69.6823 99.5487 69.7342L103.319 72.1201C103.4 72.172 103.504 72.1476 103.555 72.062L103.806 71.6466C103.86 71.5641 103.836 71.4572 103.752 71.4083Z" fill="#767676"/>
<path d="M104.871 67.905L103.848 67.3399C103.764 67.294 103.657 67.3215 103.612 67.4071L103.385 67.8378C103.34 67.9233 103.376 68.0302 103.459 68.0761L104.404 68.5984C104.488 68.6442 104.515 68.7542 104.473 68.8337L104.231 69.2949C104.186 69.3805 104.081 69.4171 103.995 69.3713L101.471 67.9753C101.388 67.9294 101.361 67.8195 101.405 67.7339L101.651 67.2727C101.692 67.1932 101.797 67.1566 101.881 67.2024L102.476 67.5323C102.56 67.5781 102.667 67.5506 102.712 67.4651L102.939 67.0344C102.984 66.9488 102.948 66.8419 102.865 66.7931L102.204 66.4265C101.776 66.1913 101.25 66.3501 101.02 66.7869L100.661 67.4621C100.431 67.8989 100.586 68.4365 101.014 68.6717L103.684 70.1472C104.105 70.3794 104.64 70.2175 104.868 69.7867L105.226 69.1116C105.457 68.6778 105.292 68.1372 104.871 67.905Z" fill="#767676"/>
<path d="M106.754 65.4552L106.356 65.2719C106.269 65.2322 106.171 65.2688 106.129 65.3574L105.737 66.2402L104.424 65.6323L104.673 65.0733C104.711 64.9847 104.676 64.8839 104.589 64.8411L104.203 64.664C104.117 64.6243 104.018 64.6609 103.976 64.7495L103.728 65.3085L102.801 64.8809L103.193 63.998C103.232 63.9094 103.196 63.8086 103.106 63.7659L102.708 63.5826C102.622 63.5429 102.523 63.5795 102.481 63.6681L101.82 65.1619C101.781 65.2505 101.817 65.3513 101.904 65.3941L105.949 67.2636C106.036 67.3033 106.135 67.2666 106.177 67.175L106.837 65.6812C106.879 65.5957 106.84 65.4949 106.754 65.4552Z" fill="#767676"/>
<path d="M22.8526 26.8839L26.7992 28.9608C26.8829 29.0066 26.9846 28.973 27.0294 28.8845L27.2477 28.4508C27.2925 28.3622 27.2596 28.2614 27.1729 28.2156L25.4059 27.287L25.6451 26.8106C25.9172 26.2699 25.7049 25.5949 25.1698 25.3139L24.7811 25.1093C24.2459 24.8283 23.5851 25.0451 23.3131 25.5858L22.7749 26.6517C22.733 26.7372 22.7659 26.8411 22.8526 26.8839ZM24.0127 25.9492C24.0815 25.8118 24.2429 25.766 24.3774 25.8362L24.796 26.0561C24.9246 26.1233 24.9784 26.2852 24.9126 26.4226L24.6705 26.8991L23.7705 26.4257L24.0127 25.9492Z" fill="#767676"/>
<path d="M24.6575 23.4412L28.4217 25.8453C28.5025 25.8972 28.6101 25.8667 28.6579 25.7903L28.9121 25.3748C28.9629 25.2924 28.939 25.1855 28.8583 25.1335L27.1032 24.0124L28.637 24.1102C28.7237 24.1255 28.7955 24.153 28.8583 24.1957L29.2649 24.4554C29.3456 24.5073 29.4532 24.4768 29.5041 24.3943L29.7582 23.9788C29.809 23.8963 29.7821 23.7956 29.7014 23.7436L29.1214 23.374C29.0586 23.3343 28.9808 23.3007 28.9061 23.2946L27.6055 23.206C27.6773 22.7753 27.4919 22.311 27.1002 22.0605L26.7355 21.8283C26.2242 21.5014 25.5515 21.6572 25.2316 22.1765L24.6067 23.1999C24.5558 23.2762 24.5768 23.3893 24.6575 23.4412ZM25.8953 22.6012C25.97 22.4759 26.1345 22.4331 26.2631 22.5156L26.6637 22.7692C26.7953 22.8547 26.8371 23.0288 26.7594 23.151L26.4783 23.6123L25.6142 23.0624L25.8953 22.6012Z" fill="#767676"/>
<path d="M30.3062 22.8673C30.3839 22.9254 30.4886 22.9101 30.5454 22.8307L31.4962 21.511C31.553 21.4316 31.538 21.3247 31.4603 21.2667L31.1075 21.0009C31.0297 20.9428 30.9251 20.9581 30.8683 21.0376L30.3062 21.8196L29.1461 20.9459L29.5019 20.451C29.5587 20.3716 29.5438 20.2647 29.466 20.2067L29.1252 19.9501C29.0475 19.892 28.9428 19.9073 28.886 19.9867L28.5302 20.4816L27.711 19.8645L28.2731 19.0825C28.3299 19.0031 28.315 18.8962 28.2372 18.8382L27.8844 18.5724C27.8067 18.5144 27.7021 18.5296 27.6452 18.6091L26.6945 19.9287C26.6377 20.0081 26.6526 20.115 26.7304 20.1731L30.3062 22.8673Z" fill="#767676"/>
<path d="M31.4669 19.9742C31.5028 20.017 31.5386 20.0476 31.5536 20.0628L32.026 20.4996C32.0977 20.5638 32.2024 20.5577 32.2682 20.4844L32.5851 20.1178C32.6479 20.0445 32.6419 19.9376 32.5701 19.8704L32.1725 19.5099C32.1426 19.4824 32.1157 19.458 32.0918 19.4274L30.6357 17.7687L32.3668 18.9326C32.4386 18.9784 32.5343 18.9631 32.5881 18.899L32.9319 18.5019C32.9857 18.4408 32.9857 18.3461 32.9319 18.2789L31.5924 16.666L33.3834 17.9398C33.4193 17.9612 33.4432 17.9856 33.4761 18.0131L33.8737 18.3736C33.9455 18.4377 34.0531 18.4316 34.1159 18.3583L34.4328 17.9917C34.4926 17.9245 34.4896 17.8085 34.4179 17.7443L33.9365 17.3197C33.9216 17.3044 33.8857 17.2739 33.8408 17.2403L30.7015 15.1448C30.6297 15.0989 30.54 15.1111 30.4802 15.1784L30.1364 15.5755C30.0826 15.6396 30.0826 15.7313 30.1364 15.7985L31.6941 17.7382L29.6251 16.388C29.5534 16.3422 29.4637 16.3544 29.4039 16.4216L29.063 16.8126C29.0032 16.8798 29.0062 16.9745 29.0571 17.0417L31.4669 19.9742Z" fill="#767676"/>
<path d="M35.1671 17.0174C35.2329 17.0877 35.3405 17.0907 35.4093 17.0205L35.7531 16.6814C35.8219 16.6142 35.8249 16.5042 35.7561 16.434L32.6707 13.1808C32.6049 13.1105 32.4943 13.1044 32.4255 13.1716L32.0817 13.5107C32.0129 13.5779 32.0159 13.6909 32.0817 13.7612L35.1671 17.0174Z" fill="#767676"/>
<path d="M36.163 15.05C36.471 15.4227 37.0301 15.4716 37.3949 15.1569L37.9689 14.6621C38.3337 14.3475 38.3815 13.7763 38.0736 13.4036L35.6667 10.4927C35.6039 10.4193 35.4933 10.4041 35.4215 10.4652L35.0567 10.7798C34.985 10.8439 34.979 10.9569 35.0418 11.0303L37.3978 13.8771C37.4606 13.9504 37.4457 14.0634 37.3709 14.1275L36.9852 14.4605C36.9135 14.5246 36.7999 14.5185 36.7401 14.4452L34.384 11.5984C34.3212 11.5251 34.2106 11.5098 34.1388 11.5709L33.7741 11.8855C33.7023 11.9497 33.6963 12.0627 33.7591 12.136L36.163 15.05Z" fill="#767676"/>
<path d="M38.8848 12.6645C38.9117 12.7134 38.9356 12.7531 38.9505 12.7715L39.3063 13.3091C39.3601 13.3885 39.4648 13.4099 39.5455 13.3549L39.9372 13.0769C40.0149 13.0219 40.0358 12.915 39.982 12.8356L39.6801 12.3866C39.6561 12.353 39.6382 12.3224 39.6203 12.2858L38.5977 10.3186L40.0029 11.8704C40.0598 11.9314 40.1584 11.9406 40.2242 11.8917L40.6518 11.5893C40.7205 11.5404 40.7414 11.4519 40.7056 11.3724L39.7817 9.47857L41.2198 11.1525C41.2497 11.183 41.2676 11.2105 41.2916 11.2472L41.5935 11.6962C41.6474 11.7757 41.752 11.797 41.8297 11.742L42.2244 11.4641C42.2961 11.4122 42.3231 11.3022 42.2662 11.2228L41.8985 10.6943C41.8865 10.676 41.8596 10.6363 41.8238 10.5935L39.2675 7.79546C39.2107 7.73437 39.118 7.72215 39.0462 7.77408L38.6187 8.07649C38.5499 8.12537 38.529 8.217 38.5648 8.29337L39.6233 10.5568L37.931 8.7424C37.8742 8.68131 37.7815 8.66909 37.7098 8.72101L37.2882 9.01731C37.2164 9.06924 37.1925 9.16088 37.2284 9.23725L38.8848 12.6645Z" fill="#767676"/>
<path d="M44.6586 9.002C44.8708 9.44187 45.4001 9.62514 45.8306 9.41132L46.5063 9.07225C46.9369 8.85537 47.1163 8.31471 46.907 7.87485L46.0548 6.10013C46.013 6.01154 45.9113 5.97794 45.8246 6.0207L44.9785 6.4453C44.8918 6.48806 44.8589 6.59191 44.9007 6.67744L45.0891 7.06538C45.131 7.15397 45.2356 7.19368 45.3193 7.15091L45.5825 7.01957L46.1326 8.15893C46.1744 8.24751 46.1326 8.35137 46.0489 8.39414L45.5884 8.62628C45.5077 8.66599 45.4031 8.63545 45.3612 8.54687L44.0965 5.91379C44.0576 5.83132 44.0935 5.72136 44.1742 5.68165L44.6346 5.44949C44.7213 5.40673 44.829 5.44338 44.8679 5.52586L44.9875 5.77634C45.0293 5.86492 45.131 5.89852 45.2177 5.85575L45.6482 5.63888C45.7349 5.59611 45.7678 5.49225 45.726 5.40672L45.5705 5.08599C45.3552 4.64002 44.829 4.46286 44.3984 4.67668L43.7227 5.01573C43.2862 5.23567 43.1098 5.76717 43.3251 6.21314L44.6586 9.002Z" fill="#767676"/>
<path d="M47.836 7.46832C47.845 7.51108 47.851 7.52942 47.8629 7.55386L48.0812 8.12507C48.1171 8.21671 48.2127 8.25947 48.3024 8.22281L48.7479 8.04565C48.8376 8.00899 48.8794 7.91125 48.8436 7.81961L48.6163 7.22701L49.4684 6.88489L49.6957 7.47749C49.7315 7.56913 49.8272 7.61189 49.9109 7.57829L50.3624 7.39807C50.452 7.36141 50.4939 7.26366 50.458 7.17203L50.2398 6.6008C50.2308 6.57331 50.2218 6.55498 50.2009 6.51833L48.2845 3.146C48.2456 3.0788 48.153 3.03298 48.0692 3.06659L47.1155 3.44842C47.0318 3.48202 46.984 3.56754 47.0049 3.65613L47.836 7.46832ZM49.0977 6.19148L48.422 6.46029L47.8809 4.03184L49.0977 6.19148Z" fill="#767676"/>
<path d="M50.4693 3.79675C50.6397 4.38626 51.2496 4.71004 51.8266 4.54204L52.1286 4.45041C52.2721 4.40765 52.4246 4.48401 52.4664 4.63063L52.7206 5.50115C52.7624 5.64777 52.6817 5.80354 52.5352 5.84936L52.2332 5.94099C52.0897 5.98375 51.9373 5.90128 51.8924 5.75161L51.722 5.16821C51.6951 5.07352 51.6024 5.0216 51.5097 5.04909L51.0523 5.18959C50.9596 5.21708 50.9088 5.31177 50.9387 5.40646L51.0971 5.95627C51.2676 6.54578 51.8805 6.88483 52.4575 6.70767L52.7594 6.61604C53.3365 6.44193 53.6653 5.81576 53.4949 5.22624L53.2557 4.40154C53.0823 3.80592 52.4784 3.47297 51.8954 3.65013L51.5934 3.74177C51.4469 3.77843 51.2974 3.70206 51.2526 3.5524L51.133 3.1431C51.0912 2.99648 51.1749 2.8468 51.3184 2.80099L51.6204 2.70936C51.7639 2.66659 51.9163 2.74296 51.9582 2.88957L52 3.03007C52.0269 3.12476 52.1196 3.17669 52.2123 3.1492L52.6697 3.0087C52.7624 2.98121 52.8132 2.88651 52.7833 2.79182L52.7505 2.67881C52.5801 2.0893 51.9731 1.75025 51.3901 1.92741L51.0882 2.01904C50.5111 2.19315 50.1793 2.81932 50.3527 3.40883L50.4693 3.79675Z" fill="#767676"/>
<path d="M54.6697 5.15946C54.7683 5.64515 55.2288 5.95368 55.7012 5.85288L56.4367 5.69708C56.9061 5.59933 57.2141 5.12585 57.1154 4.64321L56.5055 1.61602C56.4068 1.13032 55.9404 0.815681 55.471 0.913432L54.7355 1.06922C54.2601 1.17003 53.9581 1.64656 54.0568 2.13226L54.6697 5.15946ZM55.0165 1.82984L55.5128 1.72598C55.6055 1.70765 55.7012 1.75653 55.7191 1.85428L56.2992 4.72569C56.3171 4.82039 56.2543 4.92119 56.1617 4.93952L55.6653 5.04338C55.5726 5.06171 55.474 4.99756 55.456 4.90286L54.879 2.03145C54.858 1.93676 54.9238 1.85122 55.0165 1.82984Z" fill="#767676"/>
<path d="M58.5955 5.31802L60.189 5.11336C60.2847 5.10114 60.3505 5.01561 60.3385 4.91786L60.2847 4.47494C60.2727 4.37719 60.189 4.31304 60.0934 4.32526L59.1456 4.44744L58.6672 0.56193C58.6553 0.464182 58.5716 0.400037 58.4759 0.412256L58.0005 0.473343C57.9048 0.485562 57.842 0.571096 57.854 0.668845L58.4101 5.17139C58.4161 5.26609 58.5028 5.33024 58.5955 5.31802Z" fill="#767676"/>
<path d="M61.5646 4.99733L62.0429 4.96374C62.1386 4.95763 62.2074 4.87515 62.2014 4.7774L61.9084 0.259554C61.9024 0.161804 61.8217 0.0823773 61.726 0.0915413L61.2477 0.125147C61.152 0.131257 61.0832 0.219844 61.0892 0.317593L61.3822 4.83544C61.3882 4.93319 61.4689 5.00344 61.5646 4.99733Z" fill="#767676"/>
<path d="M63.5592 4.8843H64.0017C64.0973 4.8843 64.1721 4.80793 64.1721 4.71018L64.1751 1.83582L65.066 4.76212C65.087 4.83848 65.1557 4.88736 65.2305 4.88736H65.7358C65.8315 4.88736 65.9062 4.81099 65.9062 4.71324L65.9122 0.177163C65.9122 0.0794154 65.8374 0.00305758 65.7418 0.00305758H65.2843C65.1886 0.00305758 65.1139 0.0794154 65.1139 0.177163L65.1109 2.62696L64.3156 0.119124C64.2887 0.0488687 64.2259 0 64.1511 0H63.5622C63.4665 0 63.3917 0.0763672 63.3917 0.174114L63.3857 4.71018C63.3887 4.80793 63.4635 4.8843 63.5592 4.8843Z" fill="#767676"/>
<path d="M67.232 4.96386L68.8315 5.09827C68.9272 5.10743 69.008 5.03717 69.0169 4.93942L69.0528 4.49344C69.0618 4.39569 68.993 4.31321 68.8973 4.30405L67.9495 4.22462L68.0661 2.75532L68.6641 2.80419C68.7598 2.81336 68.8405 2.7431 68.8495 2.64535L68.8854 2.21464C68.8943 2.11689 68.8256 2.03441 68.7299 2.02525L68.1289 1.97637L68.2126 0.940828L69.1604 1.02025C69.2561 1.02942 69.3368 0.959162 69.3458 0.861412L69.3817 0.41542C69.3906 0.31767 69.3219 0.235195 69.2262 0.226031L67.6266 0.0916236C67.531 0.0824595 67.4502 0.152723 67.4413 0.250474L67.0795 4.77447C67.0675 4.87222 67.1363 4.9547 67.232 4.96386Z" fill="#767676"/>
<path d="M70.2544 5.2814L70.3829 5.29973L70.2783 5.45246C70.2544 5.48301 70.2335 5.52272 70.2275 5.56548L70.2096 5.69683C70.2006 5.75181 70.2424 5.80679 70.2903 5.8129L70.5204 5.8465C70.5683 5.85261 70.6221 5.8129 70.6281 5.75792L70.634 5.72432C70.64 5.69072 70.6639 5.65712 70.6729 5.6449L70.8284 5.41275C70.8463 5.37915 70.8583 5.34554 70.8642 5.31194L70.9449 4.73157C70.9569 4.63382 70.9001 4.55441 70.8194 4.54525L70.365 4.47804C70.2693 4.46277 70.1856 4.52386 70.1737 4.61855L70.1079 5.08896C70.0959 5.18671 70.1587 5.26613 70.2544 5.2814Z" fill="#767676"/>
<path d="M72.1564 5.58054L73.3194 5.83103C73.9084 5.95932 74.4914 5.56832 74.614 4.96961L75.1491 2.38232C75.2747 1.77444 74.895 1.17879 74.306 1.05049L73.143 0.800006C73.0503 0.778624 72.9576 0.845824 72.9397 0.940518L72.0248 5.37283C72.0039 5.47058 72.0607 5.55916 72.1564 5.58054ZM73.6184 1.70724L74.1476 1.82026C74.2941 1.85081 74.3897 2.00049 74.3598 2.15017L73.8067 4.82604C73.7768 4.97572 73.6303 5.07348 73.4838 5.04293L72.9546 4.9299L73.6184 1.70724Z" fill="#767676"/>
<path d="M75.6187 6.40865L76.0791 6.54C76.1718 6.56749 76.2645 6.51251 76.2884 6.42087L77.4933 2.05884C77.5202 1.96414 77.4694 1.86335 77.3767 1.83585L76.9163 1.7045C76.8236 1.677 76.7279 1.7381 76.704 1.8328L75.4991 6.19483C75.4722 6.28646 75.526 6.38116 75.6187 6.40865Z" fill="#767676"/>
<path d="M77.5533 6.99796L79.0692 7.53859C79.1589 7.57219 79.2545 7.52332 79.2874 7.43168L79.4309 7.01017C79.4638 6.91854 79.416 6.8208 79.3263 6.7872L78.4293 6.46648L78.9047 5.07671L79.4728 5.27831C79.5625 5.31191 79.6582 5.26303 79.691 5.1714L79.8316 4.76211C79.8645 4.67047 79.8166 4.57273 79.7269 4.53913L79.1589 4.33753L79.4967 3.35706L80.3937 3.67778C80.4834 3.71138 80.579 3.66251 80.6119 3.57088L80.7554 3.14936C80.7883 3.05773 80.7405 2.95998 80.6508 2.92638L79.1349 2.38575C79.0452 2.35215 78.9496 2.40103 78.9167 2.49266L77.4487 6.77498C77.4188 6.86967 77.4636 6.96741 77.5533 6.99796Z" fill="#767676"/>
<path d="M81.177 8.41873L81.464 8.54705C82.0142 8.7945 82.6629 8.53787 82.9051 7.97575L83.243 7.19063C83.4881 6.6224 83.24 5.96862 82.6839 5.71811L82.3968 5.5898C82.2623 5.52259 82.1965 5.36373 82.2563 5.22015L82.4237 4.83217C82.4835 4.69164 82.645 4.63359 82.7825 4.69469L83.0696 4.823C83.2071 4.8841 83.2729 5.04296 83.2131 5.18349L83.1563 5.31791C83.1174 5.4065 83.1562 5.50732 83.243 5.54703L83.6795 5.74561C83.7662 5.78532 83.8648 5.74561 83.9037 5.65701L83.9515 5.54703C84.1937 4.98491 83.9485 4.32503 83.3924 4.07452L83.1054 3.94621C82.5553 3.69875 81.9065 3.95538 81.6643 4.5175L81.5059 4.88105C81.2637 5.44317 81.5208 6.09388 82.068 6.34744L82.355 6.47575C82.4925 6.53685 82.5583 6.69571 82.4985 6.83624L82.1397 7.6672C82.0799 7.80773 81.9185 7.87189 81.778 7.81079L81.4909 7.68248C81.3534 7.62138 81.2906 7.45641 81.3504 7.31282L81.5896 6.75681C81.6285 6.66822 81.5896 6.5674 81.5029 6.52769L81.0664 6.32911C80.9797 6.2894 80.881 6.32912 80.8421 6.41771L80.6149 6.94011C80.3757 7.50834 80.6269 8.17128 81.177 8.41873Z" fill="#767676"/>
<path d="M83.5817 9.57932L84.9959 10.3582C85.0796 10.4041 85.1812 10.3735 85.2261 10.288L85.4324 9.89394C85.4772 9.80841 85.4473 9.70456 85.3636 9.65874L84.5265 9.19749L85.2111 7.90234L85.7403 8.19253C85.824 8.23835 85.9257 8.2078 85.9705 8.12227L86.1709 7.74045C86.2157 7.65492 86.1858 7.55106 86.1021 7.50525L85.5729 7.21505L86.0543 6.29867L86.8914 6.75992C86.9751 6.80574 87.0768 6.77519 87.1246 6.68966L87.3309 6.29561C87.3757 6.21008 87.3458 6.10623 87.2621 6.06041L85.848 5.28149C85.7642 5.23567 85.6626 5.26621 85.6177 5.35174L83.513 9.34412C83.4651 9.42965 83.495 9.5335 83.5817 9.57932Z" fill="#767676"/>
<path d="M86.2416 11.1065L87.596 11.9862C87.6767 12.0381 87.7814 12.0137 87.8322 11.9312L88.0654 11.5555C88.1162 11.473 88.0923 11.3661 88.0146 11.3142L87.2073 10.7919L89.2614 7.48377C89.3122 7.4013 89.2883 7.29438 89.2075 7.24246L88.8039 6.97977C88.7232 6.92784 88.6185 6.95227 88.5677 7.03475L86.1878 10.8652C86.137 10.9477 86.1609 11.0546 86.2416 11.1065Z" fill="#767676"/>
<path d="M88.9199 12.1422L88.6478 12.527C88.591 12.6065 88.612 12.7073 88.6897 12.7653L88.7943 12.8417L88.6329 12.9272C88.597 12.9424 88.5611 12.9699 88.5372 13.0035L88.4624 13.1105C88.4296 13.1563 88.4415 13.2235 88.4804 13.254L88.6688 13.3915C88.7076 13.4189 88.7734 13.4098 88.8063 13.364L88.8273 13.3365C88.8482 13.309 88.8841 13.2907 88.899 13.2846L89.1412 13.1532C89.1711 13.1318 89.198 13.1074 89.219 13.0799L89.5539 12.6034C89.6107 12.524 89.5957 12.4262 89.5269 12.3774L89.1562 12.1055C89.0754 12.0505 88.9738 12.0628 88.9199 12.1422Z" fill="#767676"/>
<path d="M90.6254 14.2621C90.7002 14.3232 90.8048 14.311 90.8646 14.2377L92.1563 12.6126L92.6287 13.0036C92.7034 13.0646 92.808 13.0524 92.8678 12.9791L93.1399 12.637C93.1997 12.5606 93.1908 12.4537 93.116 12.3926L92.6436 12.0016L93.2804 11.2013L94.0219 11.8183C94.0967 11.8794 94.2013 11.8703 94.2611 11.7939L94.5362 11.4456C94.596 11.3693 94.584 11.2624 94.5123 11.2013L93.2655 10.1657C93.1908 10.1046 93.0861 10.1138 93.0263 10.1901L90.2248 13.7123C90.165 13.7886 90.177 13.8955 90.2487 13.9566L90.6254 14.2621Z" fill="#767676"/>
<path d="M93.0092 16.3697L93.5534 16.8982C93.9002 17.2342 94.4593 17.222 94.7911 16.8676L97.3624 14.1063C97.4282 14.036 97.4311 13.923 97.3594 13.8558L97.0126 13.5198C96.9438 13.4526 96.8332 13.4617 96.7674 13.532L94.253 16.2323C94.1872 16.3025 94.0766 16.3025 94.0078 16.2323L93.6401 15.8749C93.5713 15.8077 93.5623 15.6947 93.6281 15.6244L96.1425 12.9241C96.2083 12.8538 96.2113 12.7408 96.1395 12.6736L95.7927 12.3376C95.724 12.2704 95.6133 12.2796 95.5476 12.3498L92.9763 15.1112C92.6504 15.4625 92.6624 16.0337 93.0092 16.3697Z" fill="#767676"/>
<path d="M95.0967 18.499L96.167 19.7207C96.2298 19.7941 96.3374 19.8002 96.4092 19.733L96.7351 19.4336C96.8068 19.3695 96.8128 19.2595 96.747 19.1862L96.1132 18.4623L97.1865 17.4788L97.5872 17.9369C97.6499 18.0102 97.7576 18.0163 97.8293 17.9491L98.1432 17.659C98.215 17.5948 98.221 17.4849 98.1552 17.4116L97.7546 16.9534L98.511 16.26L99.1448 16.9809C99.2076 17.0542 99.3152 17.0603 99.387 16.9931L99.7129 16.6938C99.7846 16.6296 99.7906 16.5197 99.7248 16.4463L98.6545 15.2245C98.5917 15.1512 98.4841 15.1451 98.4123 15.2123L95.1057 18.2393C95.0369 18.3187 95.0339 18.4256 95.0967 18.499Z" fill="#767676"/>
<path d="M97.0815 20.8508L98.0652 22.1459C98.125 22.2223 98.2296 22.2375 98.3044 22.1765L98.6512 21.9016C98.726 21.8405 98.7409 21.7336 98.6811 21.6572L98.0951 20.8845L101.124 18.4867C101.199 18.4257 101.214 18.3188 101.154 18.2424L100.861 17.8575C100.801 17.7812 100.696 17.7659 100.622 17.827L97.1114 20.6034C97.0367 20.6645 97.0247 20.7714 97.0815 20.8508Z" fill="#767676"/>
<path d="M100.383 25.7201L100.76 26.383C100.999 26.8045 101.537 26.9542 101.956 26.7067L104.572 25.152C104.991 24.9015 105.134 24.3486 104.895 23.9271L104.518 23.2642C104.273 22.8366 103.735 22.6961 103.316 22.9435L100.7 24.4983C100.279 24.7487 100.138 25.2925 100.383 25.7201ZM101.187 25.1764L103.666 23.701C103.75 23.6522 103.848 23.6888 103.896 23.7743L104.15 24.2203C104.198 24.3058 104.18 24.4127 104.097 24.4616L101.615 25.937C101.531 25.9859 101.421 25.9553 101.373 25.8728L101.119 25.4269C101.077 25.3413 101.107 25.2253 101.187 25.1764Z" fill="#767676"/>
<path d="M101.811 28.3868L102.024 28.8236C102.066 28.9121 102.167 28.9457 102.251 28.903L106.227 26.8961C106.314 26.8534 106.353 26.7465 106.311 26.6579L106.099 26.2211C106.057 26.1325 105.949 26.102 105.863 26.1447L101.886 28.1516C101.802 28.1974 101.767 28.3012 101.811 28.3868Z" fill="#767676"/>
<path d="M107.08 28.3502C107.044 28.2586 106.945 28.2188 106.856 28.2555L102.762 30.015C102.676 30.0516 102.634 30.1524 102.673 30.2441L103.295 31.7561C103.331 31.8447 103.429 31.8875 103.519 31.8478L103.923 31.6737C104.012 31.637 104.051 31.5362 104.015 31.4446L103.644 30.5434L107.178 29.0253C107.265 28.9886 107.307 28.8878 107.271 28.7962L107.08 28.3502Z" fill="#767676"/>
</svg>
